LXGWWenKaiMonoLite-Regular.ufo
<glyph name="quotedbl" format="1">
  <advance width="500" height="500"/>
  <unicode hex="0022"/>
  <outline>
    <contour>
      <point x="324" y="476" type="qcurve" smooth="yes"/>
      <point x="355" y="476"/>
      <point x="355" y="492" type="qcurve" smooth="yes"/>
      <point x="361" y="703" type="line" smooth="yes"/>
      <point x="361" y="714"/>
      <point x="338" y="725"/>
      <point x="324" y="725" type="qcurve" smooth="yes"/>
      <point x="311" y="725"/>
      <point x="287" y="714"/>
      <point x="287" y="703" type="qcurve" smooth="yes"/>
      <point x="293" y="492" type="line" smooth="yes"/>
      <point x="293" y="476"/>
    </contour>
    <contour>
      <point x="176" y="476" type="qcurve" smooth="yes"/>
      <point x="207" y="476"/>
      <point x="207" y="492" type="qcurve" smooth="yes"/>
      <point x="213" y="703" type="line" smooth="yes"/>
      <point x="213" y="714"/>
      <point x="190" y="725"/>
      <point x="176" y="725" type="qcurve" smooth="yes"/>
      <point x="163" y="725"/>
      <point x="139" y="714"/>
      <point x="139" y="703" type="qcurve" smooth="yes"/>
      <point x="145" y="492" type="line" smooth="yes"/>
      <point x="145" y="476"/>
    </contour>
  </outline>
</glyph>
<glyph name="quotesingle" format="1">
  <advance width="500" height="500"/>
  <unicode hex="0027"/>
  <outline>
    <contour>
      <point x="250" y="476" type="qcurve" smooth="yes"/>
      <point x="281" y="476"/>
      <point x="281" y="492" type="qcurve" smooth="yes"/>
      <point x="287" y="703" type="line" smooth="yes"/>
      <point x="287" y="725"/>
      <point x="250" y="725" type="qcurve" smooth="yes"/>
      <point x="237" y="725"/>
      <point x="213" y="714"/>
      <point x="213" y="703" type="qcurve" smooth="yes"/>
      <point x="219" y="492" type="line" smooth="yes"/>
      <point x="221" y="476"/>
    </contour>
  </outline>
</glyph>
<glyph name="period" format="1">
  <advance width="500" height="500"/>
  <unicode hex="002E"/>
  <outline>
    <contour>
      <point x="248" y="-26" type="qcurve" smooth="yes"/>
      <point x="273" y="-26"/>
      <point x="318" y="13"/>
      <point x="318" y="40" type="qcurve" smooth="yes"/>
      <point x="318" y="71"/>
      <point x="272" y="122"/>
      <point x="248" y="122" type="qcurve" smooth="yes"/>
      <point x="219" y="122"/>
      <point x="180" y="84"/>
      <point x="180" y="56" type="qcurve" smooth="yes"/>
      <point x="180" y="26"/>
      <point x="222" y="-26"/>
    </contour>
  </outline>
</glyph>
<glyph name="bracketleft" format="1">
  <advance width="500" height="500"/>
  <unicode hex="005B"/>
  <outline>
    <contour>
      <point x="208" y="-151" type="line" smooth="yes"/>
      <point x="196" y="-151"/>
      <point x="170" y="-126"/>
      <point x="170" y="-114" type="qcurve" smooth="yes"/>
      <point x="171" y="-101" type="line" smooth="yes"/>
      <point x="174" y="-75"/>
      <point x="174" y="-51" type="qcurve" smooth="yes"/>
      <point x="174" y="678" type="line" smooth="yes"/>
      <point x="174" y="698"/>
      <point x="168" y="727"/>
      <point x="168" y="737" type="qcurve" smooth="yes"/>
      <point x="168" y="752"/>
      <point x="186" y="764"/>
      <point x="216" y="764" type="qcurve" smooth="yes"/>
      <point x="253" y="764"/>
      <point x="312" y="766" type="qcurve" smooth="yes"/>
      <point x="342" y="766" type="line" smooth="yes"/>
      <point x="354" y="766"/>
      <point x="372" y="742"/>
      <point x="372" y="729" type="qcurve" smooth="yes"/>
      <point x="372" y="711"/>
      <point x="358" y="711" type="qcurve" smooth="yes"/>
      <point x="239" y="711" type="line"/>
      <point x="239" y="-95" type="line"/>
      <point x="295" y="-93" type="line" smooth="yes"/>
      <point x="315" y="-92"/>
      <point x="338" y="-92" type="qcurve" smooth="yes"/>
      <point x="350" y="-92"/>
      <point x="369" y="-117"/>
      <point x="369" y="-130" type="qcurve" smooth="yes"/>
      <point x="369" y="-147"/>
      <point x="356" y="-147" type="qcurve" smooth="yes"/>
      <point x="252" y="-147" type="line" smooth="yes"/>
      <point x="232" y="-147"/>
      <point x="214" y="-150" type="qcurve" smooth="yes"/>
    </contour>
  </outline>
</glyph>
<glyph name="dieresis" format="1">
  <advance width="1000" height="1000"/>
  <unicode hex="00A8"/>
  <outline>
    <contour>
      <point x="596" y="733" type="qcurve" smooth="yes"/>
      <point x="637" y="733"/>
      <point x="641" y="780" type="qcurve" smooth="yes"/>
      <point x="641" y="803"/>
      <point x="606" y="842"/>
      <point x="586" y="842" type="qcurve" smooth="yes"/>
      <point x="543" y="842"/>
      <point x="540" y="794" type="qcurve" smooth="yes"/>
      <point x="540" y="774"/>
      <point x="574" y="733"/>
    </contour>
    <contour>
      <point x="413" y="733" type="qcurve" smooth="yes"/>
      <point x="454" y="733"/>
      <point x="458" y="780" type="qcurve" smooth="yes"/>
      <point x="458" y="803"/>
      <point x="423" y="842"/>
      <point x="403" y="842" type="qcurve" smooth="yes"/>
      <point x="360" y="842"/>
      <point x="357" y="794" type="qcurve" smooth="yes"/>
      <point x="357" y="774"/>
      <point x="391" y="733"/>
    </contour>
  </outline>
</glyph>
<glyph name="copyright" format="1">
  <advance width="1000" height="1000"/>
  <unicode hex="00A9"/>
  <outline>
    <contour>
      <point x="479" y="121" type="qcurve" smooth="yes"/>
      <point x="544" y="121"/>
      <point x="629" y="164"/>
      <point x="661" y="212" type="qcurve" smooth="yes"/>
      <point x="668" y="223"/>
      <point x="668" y="230" type="qcurve" smooth="yes"/>
      <point x="668" y="241"/>
      <point x="656" y="241" type="qcurve" smooth="yes"/>
      <point x="649" y="241"/>
      <point x="638" y="233" type="qcurve" smooth="yes"/>
      <point x="575" y="177"/>
      <point x="479" y="177" type="qcurve" smooth="yes"/>
      <point x="457" y="177"/>
      <point x="406" y="204"/>
      <point x="373" y="263"/>
      <point x="373" y="311" type="qcurve" smooth="yes"/>
      <point x="373" y="367"/>
      <point x="423" y="454"/>
      <point x="497" y="504"/>
      <point x="537" y="504" type="qcurve" smooth="yes"/>
      <point x="564" y="504"/>
      <point x="589" y="486" type="qcurve" smooth="yes"/>
      <point x="600" y="479"/>
      <point x="604" y="469" type="qcurve" smooth="yes"/>
      <point x="616" y="441"/>
      <point x="625" y="441" type="qcurve" smooth="yes"/>
      <point x="636" y="441"/>
      <point x="663" y="471"/>
      <point x="663" y="485" type="qcurve" smooth="yes"/>
      <point x="663" y="493"/>
      <point x="639" y="529"/>
      <point x="582" y="561"/>
      <point x="535" y="561" type="qcurve" smooth="yes"/>
      <point x="453" y="561"/>
      <point x="380" y="487" type="qcurve" smooth="yes"/>
      <point x="307" y="409"/>
      <point x="307" y="306" type="qcurve" smooth="yes"/>
      <point x="307" y="248"/>
      <point x="355" y="165"/>
      <point x="433" y="121"/>
    </contour>
    <contour>
      <point x="212" y="216"/>
      <point x="212" y="456"/>
      <point x="382" y="626"/>
      <point x="622" y="626"/>
      <point x="792" y="456"/>
      <point x="792" y="216"/>
      <point x="622" y="46"/>
      <point x="382" y="46"/>
    </contour>
    <contour>
      <point x="501" y="-7" type="qcurve" smooth="yes"/>
      <point x="644" y="-7"/>
      <point x="744" y="94" type="qcurve" smooth="yes"/>
      <point x="792" y="142"/>
      <point x="845" y="265"/>
      <point x="845" y="407"/>
      <point x="792" y="531"/>
      <point x="744" y="579" type="qcurve" smooth="yes"/>
      <point x="644" y="679"/>
      <point x="501" y="679" type="qcurve" smooth="yes"/>
      <point x="359" y="679"/>
      <point x="158" y="479"/>
      <point x="158" y="336" type="qcurve" smooth="yes"/>
      <point x="158" y="194"/>
      <point x="259" y="94" type="qcurve" smooth="yes"/>
      <point x="359" y="-7"/>
    </contour>
  </outline>
</glyph>
<glyph name="logicalnot" format="1">
  <advance width="500" height="500"/>
  <unicode hex="00AC"/>
  <outline>
    <contour>
      <point x="412" y="179" type="qcurve" smooth="yes"/>
      <point x="399" y="179"/>
      <point x="380" y="191"/>
      <point x="380" y="200" type="qcurve" smooth="yes"/>
      <point x="380" y="388" type="line"/>
      <point x="61" y="388" type="line" smooth="yes"/>
      <point x="39" y="388"/>
      <point x="39" y="420" type="qcurve" smooth="yes"/>
      <point x="39" y="452"/>
      <point x="61" y="452" type="qcurve" smooth="yes"/>
      <point x="395" y="452" type="line" smooth="yes"/>
      <point x="444" y="449"/>
      <point x="444" y="401" type="qcurve" smooth="yes"/>
      <point x="444" y="200" type="line" smooth="yes"/>
      <point x="444" y="191"/>
      <point x="424" y="179"/>
    </contour>
  </outline>
</glyph>
<glyph name="uni00AD" format="1">
  <advance width="500" height="500"/>
  <unicode hex="00AD"/>
  <outline>
    <contour>
      <point x="495" y="350" type="line" smooth="yes"/>
      <point x="505" y="350"/>
      <point x="514" y="369"/>
      <point x="514" y="379" type="qcurve" smooth="yes"/>
      <point x="514" y="390"/>
      <point x="505" y="408"/>
      <point x="495" y="408" type="qcurve" smooth="yes"/>
      <point x="5" y="408" type="line" smooth="yes"/>
      <point x="-5" y="408"/>
      <point x="-14" y="390"/>
      <point x="-14" y="379" type="qcurve" smooth="yes"/>
      <point x="-14" y="369"/>
      <point x="-5" y="350"/>
      <point x="5" y="350" type="qcurve" smooth="yes"/>
    </contour>
  </outline>
</glyph>
<glyph name="registered" format="1">
  <advance width="1000" height="1000"/>
  <unicode hex="00AE"/>
  <outline>
    <contour>
      <point x="472" y="376" type="qcurve" smooth="yes"/>
      <point x="454" y="376"/>
      <point x="448" y="377" type="qcurve" smooth="yes"/>
      <point x="447" y="378"/>
      <point x="437" y="378"/>
      <point x="435" y="376" type="qcurve" smooth="yes"/>
      <point x="435" y="500" type="line"/>
      <point x="471" y="511"/>
      <point x="514" y="511" type="qcurve" smooth="yes"/>
      <point x="597" y="511"/>
      <point x="597" y="456" type="qcurve" smooth="yes"/>
      <point x="597" y="426"/>
      <point x="535" y="376"/>
    </contour>
    <contour>
      <point x="670" y="120" type="qcurve" smooth="yes"/>
      <point x="702" y="120"/>
      <point x="702" y="132" type="qcurve" smooth="yes"/>
      <point x="702" y="138"/>
      <point x="685" y="152"/>
      <point x="671" y="156" type="qcurve" smooth="yes"/>
      <point x="639" y="168"/>
      <point x="564" y="261" type="qcurve" smooth="yes"/>
      <point x="530" y="302"/>
      <point x="503" y="330" type="qcurve"/>
      <point x="545" y="333"/>
      <point x="616" y="367"/>
      <point x="658" y="421"/>
      <point x="658" y="458" type="qcurve" smooth="yes"/>
      <point x="658" y="485"/>
      <point x="630" y="535"/>
      <point x="568" y="567"/>
      <point x="515" y="567" type="qcurve" smooth="yes"/>
      <point x="455" y="567"/>
      <point x="425" y="559" type="qcurve" smooth="yes"/>
      <point x="400" y="554"/>
      <point x="380" y="551" type="qcurve" smooth="yes"/>
      <point x="371" y="549"/>
      <point x="354" y="548"/>
      <point x="354" y="534" type="qcurve" smooth="yes"/>
      <point x="354" y="524"/>
      <point x="366" y="501"/>
      <point x="374" y="495" type="qcurve"/>
      <point x="374" y="169" type="line"/>
      <point x="373" y="144" type="line" smooth="yes"/>
      <point x="373" y="134"/>
      <point x="401" y="123"/>
      <point x="414" y="123" type="qcurve" smooth="yes"/>
      <point x="436" y="123"/>
      <point x="436" y="133" type="qcurve" smooth="yes"/>
      <point x="436" y="164" type="line" smooth="yes"/>
      <point x="435" y="184"/>
      <point x="435" y="319" type="qcurve"/>
      <point x="453" y="311"/>
      <point x="497" y="256" type="qcurve" smooth="yes"/>
      <point x="547" y="191"/>
      <point x="602" y="142" type="qcurve" smooth="yes"/>
      <point x="632" y="120"/>
    </contour>
    <contour>
      <point x="212" y="216"/>
      <point x="212" y="456"/>
      <point x="382" y="626"/>
      <point x="622" y="626"/>
      <point x="792" y="456"/>
      <point x="792" y="216"/>
      <point x="622" y="46"/>
      <point x="382" y="46"/>
    </contour>
    <contour>
      <point x="501" y="-7" type="qcurve" smooth="yes"/>
      <point x="644" y="-7"/>
      <point x="744" y="94" type="qcurve" smooth="yes"/>
      <point x="792" y="142"/>
      <point x="845" y="265"/>
      <point x="845" y="407"/>
      <point x="792" y="531"/>
      <point x="744" y="579" type="qcurve" smooth="yes"/>
      <point x="644" y="679"/>
      <point x="501" y="679" type="qcurve" smooth="yes"/>
      <point x="359" y="679"/>
      <point x="158" y="479"/>
      <point x="158" y="336" type="qcurve" smooth="yes"/>
      <point x="158" y="194"/>
      <point x="259" y="94" type="qcurve" smooth="yes"/>
      <point x="359" y="-7"/>
    </contour>
  </outline>
</glyph>
<glyph name="degree" format="1">
  <advance width="1000" height="1000"/>
  <unicode hex="00B0"/>
  <outline>
    <contour>
      <point x="162" y="645" type="qcurve" smooth="yes"/>
      <point x="137" y="645"/>
      <point x="101" y="681"/>
      <point x="101" y="706" type="qcurve" smooth="yes"/>
      <point x="101" y="732"/>
      <point x="137" y="767"/>
      <point x="162" y="767" type="qcurve" smooth="yes"/>
      <point x="188" y="767"/>
      <point x="223" y="732"/>
      <point x="223" y="706" type="qcurve" smooth="yes"/>
      <point x="223" y="681"/>
      <point x="188" y="645"/>
    </contour>
    <contour>
      <point x="269" y="661"/>
      <point x="269" y="751"/>
      <point x="207" y="813"/>
      <point x="117" y="813"/>
      <point x="55" y="751"/>
      <point x="55" y="661"/>
      <point x="117" y="599"/>
      <point x="207" y="599"/>
    </contour>
  </outline>
</glyph>
<glyph name="plusminus" format="1">
  <advance width="1000" height="1000"/>
  <unicode hex="00B1"/>
  <outline>
    <contour>
      <point x="505" y="204" type="qcurve" smooth="yes"/>
      <point x="532" y="204"/>
      <point x="532" y="220" type="qcurve" smooth="yes"/>
      <point x="532" y="266" type="line" smooth="yes"/>
      <point x="531" y="290"/>
      <point x="531" y="428" type="qcurve"/>
      <point x="770" y="431" type="line"/>
      <point x="817" y="430" type="line" smooth="yes"/>
      <point x="825" y="430"/>
      <point x="834" y="447"/>
      <point x="834" y="457" type="qcurve" smooth="yes"/>
      <point x="834" y="471"/>
      <point x="822" y="496"/>
      <point x="812" y="496" type="qcurve" smooth="yes"/>
      <point x="777" y="495" type="line" smooth="yes"/>
      <point x="754" y="493"/>
      <point x="531" y="490" type="qcurve"/>
      <point x="531" y="602" type="line" smooth="yes"/>
      <point x="531" y="634"/>
      <point x="534" y="684" type="qcurve" smooth="yes"/>
      <point x="534" y="693"/>
      <point x="507" y="704"/>
      <point x="493" y="704" type="qcurve" smooth="yes"/>
      <point x="467" y="704"/>
      <point x="467" y="688" type="qcurve" smooth="yes"/>
      <point x="469" y="648"/>
      <point x="469" y="490" type="qcurve"/>
      <point x="268" y="487" type="line" smooth="yes"/>
      <point x="221" y="487"/>
      <point x="181" y="489" type="qcurve" smooth="yes"/>
      <point x="173" y="489"/>
      <point x="165" y="474"/>
      <point x="165" y="464" type="qcurve" smooth="yes"/>
      <point x="165" y="450"/>
      <point x="176" y="422"/>
      <point x="186" y="422" type="qcurve" smooth="yes"/>
      <point x="205" y="425"/>
      <point x="267" y="425" type="qcurve" smooth="yes"/>
      <point x="469" y="427" type="line"/>
      <point x="469" y="302" type="line" smooth="yes"/>
      <point x="469" y="256"/>
      <point x="466" y="226" type="qcurve" smooth="yes"/>
      <point x="466" y="215"/>
      <point x="491" y="204"/>
    </contour>
    <contour>
      <point x="186" y="55" type="qcurve" smooth="yes"/>
      <point x="199" y="57"/>
      <point x="248" y="58"/>
      <point x="501" y="61" type="qcurve" smooth="yes"/>
      <point x="770" y="64" type="line"/>
      <point x="817" y="63" type="line" smooth="yes"/>
      <point x="825" y="63"/>
      <point x="834" y="80"/>
      <point x="834" y="90" type="qcurve" smooth="yes"/>
      <point x="834" y="104"/>
      <point x="822" y="129"/>
      <point x="812" y="129" type="qcurve" smooth="yes"/>
      <point x="777" y="128" type="line" smooth="yes"/>
      <point x="753" y="126"/>
      <point x="268" y="120" type="qcurve" smooth="yes"/>
      <point x="221" y="120"/>
      <point x="181" y="122" type="qcurve" smooth="yes"/>
      <point x="173" y="122"/>
      <point x="165" y="107"/>
      <point x="165" y="97" type="qcurve" smooth="yes"/>
      <point x="165" y="83"/>
      <point x="176" y="55"/>
    </contour>
  </outline>
</glyph>
<glyph name="paragraph" format="1">
  <advance width="1000" height="1000"/>
  <unicode hex="00B6"/>
  <outline>
    <contour>
      <point x="438" y="-56" type="qcurve" smooth="yes"/>
      <point x="449" y="-56"/>
      <point x="466" y="-48"/>
      <point x="466" y="-40" type="qcurve" smooth="yes"/>
      <point x="465" y="-17"/>
      <point x="465" y="11" type="qcurve" smooth="yes"/>
      <point x="465" y="707" type="line"/>
      <point x="603" y="714" type="line"/>
      <point x="603" y="63" type="line" smooth="yes"/>
      <point x="603" y="8"/>
      <point x="600" y="-23" type="qcurve" smooth="yes"/>
      <point x="600" y="-34"/>
      <point x="627" y="-45"/>
      <point x="641" y="-45" type="qcurve" smooth="yes"/>
      <point x="652" y="-45"/>
      <point x="669" y="-37"/>
      <point x="669" y="-29" type="qcurve" smooth="yes"/>
      <point x="668" y="-5"/>
      <point x="668" y="23" type="qcurve" smooth="yes"/>
      <point x="668" y="726" type="line" smooth="yes"/>
      <point x="668" y="745"/>
      <point x="643" y="774"/>
      <point x="620" y="774" type="qcurve" smooth="yes"/>
      <point x="406" y="764" type="line" smooth="yes"/>
      <point x="349" y="763"/>
      <point x="251" y="706"/>
      <point x="192" y="610"/>
      <point x="192" y="546" type="qcurve" smooth="yes"/>
      <point x="192" y="491"/>
      <point x="240" y="419"/>
      <point x="314" y="383"/>
      <point x="356" y="383" type="qcurve" smooth="yes"/>
      <point x="379" y="383"/>
      <point x="400" y="388" type="qcurve"/>
      <point x="400" y="52" type="line" smooth="yes"/>
      <point x="400" y="-3"/>
      <point x="397" y="-34" type="qcurve" smooth="yes"/>
      <point x="397" y="-45"/>
      <point x="424" y="-56"/>
    </contour>
  </outline>
</glyph>
<glyph name="ordmasculine" format="1">
  <advance width="500" height="500"/>
  <unicode hex="00BA"/>
  <outline>
    <contour>
      <point x="244" y="523" type="qcurve" smooth="yes"/>
      <point x="186" y="523"/>
      <point x="184" y="595" type="qcurve" smooth="yes"/>
      <point x="184" y="618"/>
      <point x="194" y="641" type="qcurve" smooth="yes"/>
      <point x="216" y="694"/>
      <point x="264" y="694" type="qcurve" smooth="yes"/>
      <point x="292" y="694"/>
      <point x="319" y="650"/>
      <point x="319" y="615" type="qcurve" smooth="yes"/>
      <point x="319" y="578"/>
      <point x="276" y="523"/>
    </contour>
    <contour>
      <point x="244" y="468" type="qcurve" smooth="yes"/>
      <point x="288" y="468"/>
      <point x="347" y="512"/>
      <point x="378" y="579"/>
      <point x="378" y="615" type="qcurve" smooth="yes"/>
      <point x="378" y="679"/>
      <point x="315" y="748"/>
      <point x="267" y="748" type="qcurve" smooth="yes"/>
      <point x="230" y="748"/>
      <point x="209" y="731" type="qcurve" smooth="yes"/>
      <point x="206" y="733"/>
      <point x="198" y="733" type="qcurve" smooth="yes"/>
      <point x="185" y="733"/>
      <point x="149" y="689"/>
      <point x="125" y="626"/>
      <point x="125" y="596" type="qcurve" smooth="yes"/>
      <point x="125" y="538"/>
      <point x="188" y="468"/>
    </contour>
  </outline>
</glyph>
<glyph name="multiply" format="1">
  <advance width="1000" height="1000"/>
  <unicode hex="00D7"/>
  <outline>
    <contour>
      <point x="234" y="64" type="qcurve" smooth="yes"/>
      <point x="242" y="64"/>
      <point x="245" y="69" type="qcurve" smooth="yes"/>
      <point x="304" y="129"/>
      <point x="501" y="325" type="qcurve"/>
      <point x="686" y="139" type="line"/>
      <point x="745" y="78" type="line" smooth="yes"/>
      <point x="749" y="73"/>
      <point x="756" y="73" type="qcurve" smooth="yes"/>
      <point x="767" y="73"/>
      <point x="789" y="103"/>
      <point x="789" y="118" type="qcurve" smooth="yes"/>
      <point x="789" y="129"/>
      <point x="782" y="134" type="qcurve" smooth="yes"/>
      <point x="724" y="185" type="line"/>
      <point x="544" y="368" type="line"/>
      <point x="730" y="553" type="line" smooth="yes"/>
      <point x="770" y="594"/>
      <point x="789" y="608" type="qcurve" smooth="yes"/>
      <point x="795" y="613"/>
      <point x="795" y="623" type="qcurve" smooth="yes"/>
      <point x="795" y="637"/>
      <point x="774" y="669"/>
      <point x="763" y="669" type="qcurve" smooth="yes"/>
      <point x="757" y="669"/>
      <point x="751" y="663" type="qcurve" smooth="yes"/>
      <point x="724" y="635" type="line"/>
      <point x="500" y="412" type="line"/>
      <point x="299" y="614"/>
      <point x="282" y="632"/>
      <point x="273" y="641" type="qcurve" smooth="yes"/>
      <point x="246" y="669" type="line" smooth="yes"/>
      <point x="240" y="675"/>
      <point x="234" y="675" type="qcurve" smooth="yes"/>
      <point x="221" y="675"/>
      <point x="201" y="643"/>
      <point x="201" y="629" type="qcurve" smooth="yes"/>
      <point x="201" y="619"/>
      <point x="207" y="614" type="qcurve" smooth="yes"/>
      <point x="218" y="606"/>
      <point x="236" y="590" type="qcurve" smooth="yes"/>
      <point x="457" y="369" type="line"/>
      <point x="265" y="177" type="line" smooth="yes"/>
      <point x="255" y="169"/>
      <point x="224" y="138"/>
      <point x="208" y="124" type="qcurve" smooth="yes"/>
      <point x="201" y="118"/>
      <point x="201" y="107" type="qcurve" smooth="yes"/>
      <point x="201" y="93"/>
      <point x="222" y="64"/>
    </contour>
  </outline>
</glyph>
<glyph name="divide" format="1">
  <advance width="1000" height="1000"/>
  <unicode hex="00F7"/>
  <outline>
    <contour>
      <point x="500" y="533" type="qcurve" smooth="yes"/>
      <point x="527" y="533"/>
      <point x="552" y="559"/>
      <point x="552" y="579" type="qcurve" smooth="yes"/>
      <point x="552" y="600"/>
      <point x="519" y="641"/>
      <point x="500" y="641" type="qcurve" smooth="yes"/>
      <point x="477" y="641"/>
      <point x="447" y="617"/>
      <point x="447" y="593" type="qcurve" smooth="yes"/>
      <point x="447" y="574"/>
      <point x="479" y="533"/>
    </contour>
    <contour>
      <point x="500" y="65" type="qcurve" smooth="yes"/>
      <point x="527" y="65"/>
      <point x="552" y="91"/>
      <point x="552" y="111" type="qcurve" smooth="yes"/>
      <point x="552" y="132"/>
      <point x="519" y="173"/>
      <point x="500" y="173" type="qcurve" smooth="yes"/>
      <point x="477" y="173"/>
      <point x="447" y="149"/>
      <point x="447" y="125" type="qcurve" smooth="yes"/>
      <point x="447" y="106"/>
      <point x="479" y="65"/>
    </contour>
    <contour>
      <point x="186" y="324" type="qcurve" smooth="yes"/>
      <point x="199" y="326"/>
      <point x="248" y="327"/>
      <point x="501" y="330" type="qcurve" smooth="yes"/>
      <point x="770" y="333" type="line"/>
      <point x="817" y="332" type="line" smooth="yes"/>
      <point x="825" y="332"/>
      <point x="834" y="349"/>
      <point x="834" y="359" type="qcurve" smooth="yes"/>
      <point x="834" y="373"/>
      <point x="822" y="398"/>
      <point x="812" y="398" type="qcurve" smooth="yes"/>
      <point x="777" y="397" type="line" smooth="yes"/>
      <point x="753" y="395"/>
      <point x="268" y="389" type="qcurve" smooth="yes"/>
      <point x="221" y="389"/>
      <point x="181" y="391" type="qcurve" smooth="yes"/>
      <point x="173" y="391"/>
      <point x="165" y="376"/>
      <point x="165" y="366" type="qcurve" smooth="yes"/>
      <point x="165" y="352"/>
      <point x="176" y="324"/>
    </contour>
  </outline>
</glyph>
<glyph name="IJ" format="1">
  <advance width="500" height="500"/>
  <unicode hex="0132"/>
  <outline>
    <contour>
      <point x="183" y="242" type="qcurve" smooth="yes"/>
      <point x="166" y="242"/>
      <point x="129" y="257"/>
      <point x="129" y="267" type="qcurve" smooth="yes"/>
      <point x="130" y="350" type="line" smooth="yes"/>
      <point x="130" y="596"/>
      <point x="128" y="697" type="qcurve" smooth="yes"/>
      <point x="128" y="705"/>
      <point x="146" y="705" type="qcurve" smooth="yes"/>
      <point x="164" y="705"/>
      <point x="200" y="690"/>
      <point x="200" y="680" type="qcurve" smooth="yes"/>
      <point x="199" y="596" type="line" smooth="yes"/>
      <point x="199" y="350"/>
      <point x="201" y="250" type="qcurve" smooth="yes"/>
      <point x="201" y="242"/>
    </contour>
    <contour>
      <point x="249" y="-17" type="qcurve" smooth="yes"/>
      <point x="204" y="-17"/>
      <point x="136" y="20"/>
      <point x="94" y="70"/>
      <point x="76" y="115"/>
      <point x="76" y="124" type="qcurve" smooth="yes"/>
      <point x="76" y="134"/>
      <point x="92" y="157"/>
      <point x="116" y="173"/>
      <point x="127" y="173" type="qcurve" smooth="yes"/>
      <point x="138" y="173"/>
      <point x="140" y="161" type="qcurve" smooth="yes"/>
      <point x="163" y="49"/>
      <point x="248" y="49" type="qcurve" smooth="yes"/>
      <point x="343" y="49"/>
      <point x="343" y="180" type="qcurve" smooth="yes"/>
      <point x="343" y="589"/>
      <point x="340" y="695" type="qcurve" smooth="yes"/>
      <point x="340" y="705"/>
      <point x="359" y="705" type="qcurve" smooth="yes"/>
      <point x="379" y="705"/>
      <point x="415" y="689"/>
      <point x="415" y="677" type="qcurve" smooth="yes"/>
      <point x="413" y="588" type="line"/>
      <point x="413" y="177" type="line" smooth="yes"/>
      <point x="413" y="-17"/>
    </contour>
  </outline>
</glyph>
<glyph name="uni01C0" format="1">
  <advance width="350" height="350"/>
  <unicode hex="01C0"/>
  <outline>
    <contour>
      <point x="209" y="-16" type="line"/>
      <point x="140" y="-16" type="line"/>
      <point x="140" y="267" type="line"/>
      <point x="209" y="267" type="line"/>
    </contour>
    <contour>
      <point x="209" y="434" type="line"/>
      <point x="140" y="434" type="line"/>
      <point x="140" y="717" type="line"/>
      <point x="209" y="717" type="line"/>
    </contour>
  </outline>
</glyph>
<glyph name="uni0235" format="1">
  <advance width="500" height="500"/>
  <unicode hex="0235"/>
  <outline>
    <contour>
      <point x="485" y="-123" type="qcurve" smooth="yes"/>
      <point x="499" y="-133"/>
      <point x="510" y="-133" type="qcurve" smooth="yes"/>
      <point x="520" y="-133"/>
      <point x="537" y="-114"/>
      <point x="537" y="-98" type="qcurve" smooth="yes"/>
      <point x="537" y="-59"/>
      <point x="509" y="-59" type="qcurve" smooth="yes"/>
      <point x="496" y="-59"/>
      <point x="473" y="-78"/>
      <point x="462" y="-95" type="qcurve"/>
      <point x="470" y="-111"/>
    </contour>
    <contour>
      <point x="371" y="293" type="line" smooth="yes"/>
      <point x="371" y="353"/>
      <point x="343" y="423"/>
      <point x="302" y="423" type="qcurve" smooth="yes"/>
      <point x="235" y="423"/>
      <point x="140" y="309"/>
      <point x="138" y="162" type="qcurve" smooth="yes"/>
      <point x="137" y="129"/>
      <point x="136" y="105" type="qcurve" smooth="yes"/>
      <point x="136" y="89" type="line" smooth="yes"/>
      <point x="136" y="59"/>
      <point x="139" y="-1" type="qcurve" smooth="yes"/>
      <point x="139" y="-11"/>
      <point x="100" y="-11"/>
      <point x="65" y="5"/>
      <point x="65" y="17" type="qcurve" smooth="yes"/>
      <point x="67" y="115" type="line"/>
      <point x="67" y="364" type="line"/>
      <point x="64" y="471" type="line" smooth="yes"/>
      <point x="64" y="481"/>
      <point x="103" y="481"/>
      <point x="138" y="465"/>
      <point x="138" y="453" type="qcurve" smooth="yes"/>
      <point x="138" y="439" type="line" smooth="yes"/>
      <point x="136" y="411"/>
      <point x="136" y="393" type="qcurve"/>
      <point x="155" y="427"/>
      <point x="250" y="485"/>
      <point x="299" y="485" type="qcurve" smooth="yes"/>
      <point x="386" y="485"/>
      <point x="418" y="420" type="qcurve" smooth="yes"/>
      <point x="441" y="375"/>
      <point x="441" y="297" type="qcurve" smooth="yes"/>
      <point x="440" y="92" type="line" smooth="yes"/>
      <point x="440" y="29"/>
      <point x="442" y="-26" type="qcurve"/>
      <point x="463" y="0"/>
      <point x="510" y="0" type="qcurve" smooth="yes"/>
      <point x="554" y="0"/>
      <point x="608" y="-54"/>
      <point x="608" y="-99" type="qcurve" smooth="yes"/>
      <point x="608" y="-139"/>
      <point x="554" y="-196"/>
      <point x="514" y="-196" type="qcurve" smooth="yes"/>
      <point x="486" y="-196"/>
      <point x="442" y="-173"/>
      <point x="432" y="-161" type="qcurve"/>
      <point x="430" y="-167"/>
      <point x="422" y="-196"/>
      <point x="402" y="-196" type="qcurve" smooth="yes"/>
      <point x="393" y="-196"/>
      <point x="364" y="-189"/>
      <point x="364" y="-178" type="qcurve" smooth="yes"/>
      <point x="364" y="-171"/>
      <point x="373" y="-144"/>
      <point x="384" y="-116"/>
      <point x="388" y="-107" type="qcurve"/>
      <point x="373" y="-83"/>
      <point x="369" y="-15"/>
      <point x="369" y="12" type="qcurve" smooth="yes"/>
    </contour>
  </outline>
</glyph>
<glyph name="uni0250" format="1">
  <advance width="500" height="500"/>
  <unicode hex="0250"/>
  <outline>
    <contour>
      <point x="109" y="51" type="qcurve" smooth="yes"/>
      <point x="73" y="106"/>
      <point x="73" y="196" type="qcurve" smooth="yes"/>
      <point x="73" y="273" type="line" smooth="yes"/>
      <point x="73" y="379"/>
      <point x="41" y="435" type="qcurve" smooth="yes"/>
      <point x="40" y="438"/>
      <point x="40" y="449"/>
      <point x="65" y="481"/>
      <point x="84" y="481" type="qcurve" smooth="yes"/>
      <point x="117" y="481"/>
      <point x="128" y="394" type="qcurve"/>
      <point x="138" y="426"/>
      <point x="178" y="454" type="qcurve" smooth="yes"/>
      <point x="225" y="486"/>
      <point x="358" y="486"/>
      <point x="432" y="441"/>
      <point x="464" y="375"/>
      <point x="464" y="299"/>
      <point x="427" y="245"/>
      <point x="375" y="230" type="qcurve" smooth="yes"/>
      <point x="266" y="199"/>
      <point x="144" y="199" type="qcurve"/>
      <point x="146" y="86"/>
      <point x="200" y="55" type="qcurve" smooth="yes"/>
      <point x="224" y="42"/>
      <point x="262" y="42" type="qcurve" smooth="yes"/>
      <point x="360" y="47"/>
      <point x="423" y="123" type="qcurve" smooth="yes"/>
      <point x="436" y="140"/>
      <point x="463" y="140"/>
      <point x="463" y="120"/>
      <point x="437" y="75"/>
      <point x="410" y="48" type="qcurve" smooth="yes"/>
      <point x="348" y="-12"/>
      <point x="256" y="-12" type="qcurve" smooth="yes"/>
      <point x="149" y="-12"/>
    </contour>
    <contour>
      <point x="394" y="341" type="qcurve" smooth="yes"/>
      <point x="394" y="425"/>
      <point x="296" y="425" type="qcurve" smooth="yes"/>
      <point x="244" y="425"/>
      <point x="157" y="340"/>
      <point x="147" y="251" type="qcurve"/>
      <point x="257" y="257"/>
      <point x="336" y="282" type="qcurve" smooth="yes"/>
      <point x="371" y="292"/>
      <point x="394" y="317"/>
    </contour>
  </outline>
</glyph>
<glyph name="uni0254" format="1">
  <advance width="500" height="500"/>
  <unicode hex="0254"/>
  <outline>
    <contour>
      <point x="237" y="-18" type="qcurve" smooth="yes"/>
      <point x="185" y="-18"/>
      <point x="149" y="1" type="qcurve" smooth="yes"/>
      <point x="85" y="37"/>
      <point x="62" y="109" type="qcurve" smooth="yes"/>
      <point x="60" y="114"/>
      <point x="60" y="120" type="qcurve" smooth="yes"/>
      <point x="60" y="136"/>
      <point x="73" y="136" type="qcurve" smooth="yes"/>
      <point x="87" y="136"/>
      <point x="95" y="121" type="qcurve" smooth="yes"/>
      <point x="136" y="47"/>
      <point x="229" y="47" type="qcurve" smooth="yes"/>
      <point x="265" y="47"/>
      <point x="331" y="96"/>
      <point x="374" y="185"/>
      <point x="374" y="246" type="qcurve" smooth="yes"/>
      <point x="374" y="333"/>
      <point x="300" y="420"/>
      <point x="245" y="420" type="qcurve" smooth="yes"/>
      <point x="156" y="420"/>
      <point x="124" y="345" type="qcurve" smooth="yes"/>
      <point x="120" y="337"/>
      <point x="108" y="337" type="qcurve" smooth="yes"/>
      <point x="96" y="337"/>
      <point x="70" y="373"/>
      <point x="70" y="387" type="qcurve" smooth="yes"/>
      <point x="70" y="401"/>
      <point x="112" y="447"/>
      <point x="191" y="486"/>
      <point x="249" y="486" type="qcurve" smooth="yes"/>
      <point x="307" y="486"/>
      <point x="395" y="425"/>
      <point x="443" y="317"/>
      <point x="443" y="239" type="qcurve" smooth="yes"/>
      <point x="443" y="160"/>
      <point x="386" y="42"/>
      <point x="289" y="-18"/>
    </contour>
  </outline>
</glyph>
<glyph name="uni025A" format="1">
  <advance width="500" height="500"/>
  <unicode hex="025A"/>
  <outline>
    <contour>
      <point x="196" y="-18" type="qcurve" smooth="yes"/>
      <point x="137" y="-18"/>
      <point x="72" y="26"/>
      <point x="43" y="94"/>
      <point x="43" y="168"/>
      <point x="76" y="222"/>
      <point x="122" y="238" type="qcurve" smooth="yes"/>
      <point x="218" y="269"/>
      <point x="325" y="269" type="qcurve"/>
      <point x="323" y="383"/>
      <point x="276" y="414" type="qcurve" smooth="yes"/>
      <point x="257" y="426"/>
      <point x="227" y="426" type="qcurve" smooth="yes"/>
      <point x="153" y="426"/>
      <point x="116" y="346" type="qcurve" smooth="yes"/>
      <point x="112" y="338"/>
      <point x="99" y="338" type="qcurve" smooth="yes"/>
      <point x="87" y="338"/>
      <point x="62" y="373"/>
      <point x="62" y="384" type="qcurve" smooth="yes"/>
      <point x="62" y="410"/>
      <point x="156" y="486"/>
      <point x="225" y="486" type="qcurve" smooth="yes"/>
      <point x="389" y="486"/>
      <point x="389" y="270" type="qcurve"/>
      <point x="448" y="270" type="line" smooth="yes"/>
      <point x="453" y="270"/>
      <point x="479" y="258"/>
      <point x="479" y="230"/>
      <point x="469" y="184"/>
      <point x="459" y="109"/>
      <point x="459" y="86" type="qcurve" smooth="yes"/>
      <point x="459" y="62"/>
      <point x="472" y="38"/>
      <point x="480" y="38" type="qcurve" smooth="yes"/>
      <point x="487" y="38"/>
      <point x="497" y="57" type="qcurve" smooth="yes"/>
      <point x="509" y="72"/>
      <point x="520" y="72" type="qcurve" smooth="yes"/>
      <point x="536" y="72"/>
      <point x="536" y="56" type="qcurve" smooth="yes"/>
      <point x="536" y="53"/>
      <point x="522" y="18"/>
      <point x="489" y="-14"/>
      <point x="462" y="-14" type="qcurve" smooth="yes"/>
      <point x="434" y="-14"/>
      <point x="397" y="36"/>
      <point x="397" y="82" type="qcurve" smooth="yes"/>
      <point x="397" y="127"/>
      <point x="412" y="214" type="qcurve"/>
      <point x="387" y="214" type="line"/>
      <point x="375" y="74"/>
      <point x="298" y="14" type="qcurve" smooth="yes"/>
      <point x="256" y="-18"/>
    </contour>
    <contour>
      <point x="199" y="43" type="qcurve" smooth="yes"/>
      <point x="244" y="43"/>
      <point x="313" y="131"/>
      <point x="322" y="214" type="qcurve"/>
      <point x="132" y="196"/>
      <point x="115" y="156" type="qcurve" smooth="yes"/>
      <point x="107" y="144"/>
      <point x="107" y="127" type="qcurve" smooth="yes"/>
      <point x="107" y="43"/>
    </contour>
  </outline>
</glyph>
<glyph name="uni026A" format="1">
  <advance width="500" height="500"/>
  <unicode hex="026A"/>
  <outline>
    <contour>
      <point x="103" y="-6" type="qcurve" smooth="yes"/>
      <point x="93" y="-6"/>
      <point x="71" y="15"/>
      <point x="70" y="27" type="qcurve" smooth="yes"/>
      <point x="70" y="51"/>
      <point x="86" y="51" type="qcurve" smooth="yes"/>
      <point x="217" y="52" type="line"/>
      <point x="218" y="90"/>
      <point x="218" y="232" type="qcurve" smooth="yes"/>
      <point x="218" y="377"/>
      <point x="217" y="423" type="qcurve"/>
      <point x="132" y="421" type="line" smooth="yes"/>
      <point x="121" y="421"/>
      <point x="100" y="443"/>
      <point x="99" y="454" type="qcurve" smooth="yes"/>
      <point x="99" y="478"/>
      <point x="115" y="478" type="qcurve" smooth="yes"/>
      <point x="250" y="480" type="line"/>
      <point x="374" y="485" type="line" smooth="yes"/>
      <point x="385" y="485"/>
      <point x="403" y="464"/>
      <point x="404" y="452" type="qcurve" smooth="yes"/>
      <point x="404" y="428"/>
      <point x="387" y="428" type="qcurve" smooth="yes"/>
      <point x="284" y="426" type="line"/>
      <point x="284" y="408"/>
      <point x="283" y="396" type="qcurve" smooth="yes"/>
      <point x="282" y="336" type="line" smooth="yes"/>
      <point x="282" y="97"/>
      <point x="284" y="55" type="qcurve"/>
      <point x="403" y="58" type="line" smooth="yes"/>
      <point x="414" y="58"/>
      <point x="431" y="37"/>
      <point x="431" y="23" type="qcurve" smooth="yes"/>
      <point x="431" y="1"/>
      <point x="402" y="1"/>
      <point x="388" y="0" type="qcurve" smooth="yes"/>
      <point x="322" y="0"/>
      <point x="263" y="-3" type="qcurve" smooth="yes"/>
      <point x="192" y="-6"/>
    </contour>
  </outline>
</glyph>
<glyph name="uni026E" format="1">
  <advance width="500" height="500"/>
  <unicode hex="026E"/>
  <outline>
    <contour>
      <point x="64" y="639" type="line"/>
      <point x="63" y="697" type="line" smooth="yes"/>
      <point x="63" y="707"/>
      <point x="87" y="707" type="qcurve" smooth="yes"/>
      <point x="104" y="707"/>
      <point x="134" y="687"/>
      <point x="134" y="679" type="qcurve" smooth="yes"/>
      <point x="134" y="658"/>
      <point x="133" y="643" type="qcurve" smooth="yes"/>
      <point x="133" y="590" type="line"/>
      <point x="133" y="465" type="line"/>
      <point x="356" y="475" type="line"/>
      <point x="382" y="481" type="line"/>
      <point x="389" y="481" type="line" smooth="yes"/>
      <point x="413" y="478"/>
      <point x="426" y="442" type="qcurve" smooth="yes"/>
      <point x="431" y="431"/>
      <point x="431" y="421"/>
      <point x="424" y="414" type="qcurve" smooth="yes"/>
      <point x="412" y="401" type="line" smooth="yes"/>
      <point x="390" y="374"/>
      <point x="289" y="254"/>
      <point x="276" y="238" type="qcurve"/>
      <point x="280" y="239"/>
      <point x="341" y="239"/>
      <point x="416" y="195"/>
      <point x="461" y="113"/>
      <point x="461" y="-9"/>
      <point x="421" y="-104"/>
      <point x="343" y="-162"/>
      <point x="245" y="-162"/>
      <point x="169" y="-117"/>
      <point x="134" y="-83" type="qcurve" smooth="yes"/>
      <point x="128" y="-76"/>
      <point x="128" y="-46"/>
      <point x="138" y="-14"/>
      <point x="172" y="-14"/>
      <point x="196" y="-46"/>
      <point x="216" y="-64" type="qcurve" smooth="yes"/>
      <point x="257" y="-99"/>
      <point x="311" y="-99"/>
      <point x="355" y="-71"/>
      <point x="386" y="-3"/>
      <point x="386" y="104"/>
      <point x="369" y="135" type="qcurve" smooth="yes"/>
      <point x="342" y="183"/>
      <point x="288" y="183" type="qcurve" smooth="yes"/>
      <point x="262" y="183"/>
      <point x="214" y="164"/>
      <point x="202" y="150" type="qcurve" smooth="yes"/>
      <point x="197" y="143"/>
      <point x="169" y="143"/>
      <point x="150" y="178"/>
      <point x="150" y="203"/>
      <point x="161" y="211" type="qcurve" smooth="yes"/>
      <point x="192" y="233"/>
      <point x="290" y="359" type="qcurve" smooth="yes"/>
      <point x="313" y="389"/>
      <point x="333" y="416" type="qcurve"/>
      <point x="133" y="405" type="line"/>
      <point x="133" y="105" type="line"/>
      <point x="133" y="67" type="line"/>
      <point x="135" y="-1" type="line" smooth="yes"/>
      <point x="135" y="-11"/>
      <point x="110" y="-11" type="qcurve" smooth="yes"/>
      <point x="93" y="-11"/>
      <point x="63" y="9"/>
      <point x="63" y="17" type="qcurve" smooth="yes"/>
      <point x="65" y="105" type="line"/>
      <point x="65" y="590" type="line"/>
    </contour>
  </outline>
</glyph>
<glyph name="uni0283" format="1">
  <advance width="500" height="500"/>
  <unicode hex="0283"/>
  <outline>
    <contour>
      <point x="216" y="589" type="line" smooth="yes"/>
      <point x="216" y="664"/>
      <point x="277" y="694" type="qcurve" smooth="yes"/>
      <point x="305" y="708"/>
      <point x="371" y="708"/>
      <point x="419" y="686"/>
      <point x="444" y="657"/>
      <point x="444" y="631"/>
      <point x="424" y="600"/>
      <point x="405" y="600"/>
      <point x="398" y="611" type="qcurve" smooth="yes"/>
      <point x="379" y="647"/>
      <point x="333" y="647" type="qcurve" smooth="yes"/>
      <point x="314" y="647"/>
      <point x="284" y="617"/>
      <point x="284" y="585" type="qcurve" smooth="yes"/>
      <point x="284" y="-76" type="line" smooth="yes"/>
      <point x="284" y="-114"/>
      <point x="267" y="-141" type="qcurve" smooth="yes"/>
      <point x="233" y="-195"/>
      <point x="99" y="-195"/>
      <point x="69" y="-158" type="qcurve" smooth="yes"/>
      <point x="56" y="-143"/>
      <point x="56" y="-118"/>
      <point x="76" y="-87"/>
      <point x="95" y="-87"/>
      <point x="102" y="-98" type="qcurve" smooth="yes"/>
      <point x="121" y="-134"/>
      <point x="167" y="-134" type="qcurve" smooth="yes"/>
      <point x="187" y="-134"/>
      <point x="216" y="-103"/>
      <point x="216" y="-72" type="qcurve" smooth="yes"/>
    </contour>
  </outline>
</glyph>
<glyph name="uni02BD" format="1">
  <advance width="500" height="500"/>
  <unicode hex="02BD"/>
  <outline>
    <contour>
      <point x="242" y="721" type="qcurve" smooth="yes"/>
      <point x="246" y="703"/>
      <point x="280" y="663"/>
      <point x="299" y="650" type="qcurve" smooth="yes"/>
      <point x="305" y="646"/>
      <point x="305" y="638" type="qcurve" smooth="yes"/>
      <point x="305" y="633"/>
      <point x="298" y="624"/>
      <point x="291" y="624" type="qcurve" smooth="yes"/>
      <point x="289" y="624"/>
      <point x="285" y="625"/>
      <point x="283" y="626" type="qcurve" smooth="yes"/>
      <point x="242" y="644"/>
      <point x="184" y="718"/>
      <point x="184" y="752" type="qcurve" smooth="yes"/>
      <point x="184" y="754"/>
      <point x="185" y="759"/>
      <point x="185" y="761" type="qcurve" smooth="yes"/>
      <point x="188" y="785"/>
      <point x="216" y="821"/>
      <point x="236" y="821" type="qcurve" smooth="yes"/>
      <point x="257" y="821"/>
      <point x="289" y="797"/>
      <point x="289" y="775" type="qcurve" smooth="yes"/>
      <point x="289" y="759"/>
      <point x="272" y="735"/>
      <point x="264" y="728" type="qcurve" smooth="yes"/>
      <point x="262" y="726"/>
      <point x="244" y="722"/>
    </contour>
  </outline>
</glyph>
<glyph name="caron" format="1">
  <advance width="500" height="500"/>
  <unicode hex="02C7"/>
  <outline>
    <contour>
      <point x="251" y="637" type="qcurve"/>
      <point x="286" y="660"/>
      <point x="354" y="703"/>
      <point x="384" y="729"/>
      <point x="392" y="729" type="qcurve" smooth="yes"/>
      <point x="410" y="729"/>
      <point x="410" y="696"/>
      <point x="324" y="612" type="qcurve" smooth="yes"/>
      <point x="304" y="593"/>
      <point x="280" y="569"/>
      <point x="221" y="569"/>
      <point x="210" y="578" type="qcurve" smooth="yes"/>
      <point x="140" y="644"/>
      <point x="91" y="708"/>
      <point x="91" y="713" type="qcurve" smooth="yes"/>
      <point x="91" y="729"/>
      <point x="109" y="729" type="qcurve" smooth="yes"/>
      <point x="117" y="729"/>
      <point x="147" y="703"/>
      <point x="216" y="660"/>
    </contour>
  </outline>
</glyph>
<glyph name="uni02C8" format="1">
  <advance width="500" height="500"/>
  <unicode hex="02C8"/>
  <outline>
    <contour>
      <point x="235" y="817"/>
      <point x="265" y="817"/>
      <point x="287" y="806"/>
      <point x="287" y="796" type="qcurve" smooth="yes"/>
      <point x="287" y="795" type="line"/>
      <point x="271" y="544" type="line" smooth="yes"/>
      <point x="270" y="536"/>
      <point x="258" y="528"/>
      <point x="250" y="528" type="qcurve" smooth="yes"/>
      <point x="243" y="528"/>
      <point x="230" y="536"/>
      <point x="229" y="544" type="qcurve" smooth="yes"/>
      <point x="213" y="795" type="line" smooth="yes"/>
      <point x="212" y="805"/>
    </contour>
  </outline>
</glyph>
<glyph name="acute" format="1">
  <advance width="1000" height="1000"/>
  <unicode hex="02CA"/>
  <unicode hex="00B4"/>
  <outline>
    <contour>
      <point x="415" y="700" type="qcurve" smooth="yes"/>
      <point x="420" y="700"/>
      <point x="426" y="703" type="qcurve" smooth="yes"/>
      <point x="460" y="723"/>
      <point x="557" y="757"/>
      <point x="606" y="775" type="qcurve" smooth="yes"/>
      <point x="613" y="778"/>
      <point x="613" y="785" type="qcurve" smooth="yes"/>
      <point x="613" y="796"/>
      <point x="590" y="820"/>
      <point x="564" y="839"/>
      <point x="554" y="839" type="qcurve" smooth="yes"/>
      <point x="550" y="839"/>
      <point x="548" y="838" type="qcurve" smooth="yes"/>
      <point x="398" y="739"/>
      <point x="398" y="717" type="qcurve" smooth="yes"/>
      <point x="398" y="710"/>
      <point x="408" y="700"/>
    </contour>
  </outline>
</glyph>
<glyph name="uni02CC" format="1">
  <advance width="500" height="500"/>
  <unicode hex="02CC"/>
  <outline>
    <contour>
      <point x="243" y="16"/>
      <point x="250" y="16" type="qcurve" smooth="yes"/>
      <point x="258" y="16"/>
      <point x="270" y="8"/>
      <point x="271" y="0" type="qcurve" smooth="yes"/>
      <point x="287" y="-251" type="line"/>
      <point x="287" y="-252" type="line" smooth="yes"/>
      <point x="287" y="-262"/>
      <point x="265" y="-273"/>
      <point x="235" y="-273"/>
      <point x="212" y="-261"/>
      <point x="213" y="-251" type="qcurve" smooth="yes"/>
      <point x="229" y="0" type="line" smooth="yes"/>
      <point x="230" y="8"/>
    </contour>
  </outline>
</glyph>
<glyph name="uni02D0" format="1">
  <advance width="500" height="500"/>
  <unicode hex="02D0"/>
  <outline>
    <contour>
      <point x="180" y="-3" type="line"/>
      <point x="251" y="126" type="line"/>
      <point x="320" y="-3" type="line"/>
    </contour>
    <contour>
      <point x="180" y="509" type="line"/>
      <point x="320" y="509" type="line"/>
      <point x="251" y="381" type="line"/>
    </contour>
  </outline>
</glyph>
<glyph name="dotaccent" format="1">
  <advance width="500" height="500"/>
  <unicode hex="02D9"/>
  <outline>
    <contour>
      <point x="299" y="658"/>
      <point x="299" y="617"/>
      <point x="273" y="590"/>
      <point x="231" y="590"/>
      <point x="200" y="629"/>
      <point x="200" y="670"/>
      <point x="225" y="698"/>
      <point x="268" y="698"/>
    </contour>
  </outline>
</glyph>
<glyph name="uni02EA" format="1">
  <advance width="500" height="500"/>
  <unicode hex="02EA"/>
  <outline>
    <contour>
      <point x="42" y="824" type="qcurve" smooth="yes"/>
      <point x="37" y="832"/>
      <point x="37" y="835" type="qcurve" smooth="yes"/>
      <point x="37" y="842"/>
      <point x="50" y="842" type="qcurve" smooth="yes"/>
      <point x="67" y="842"/>
      <point x="113" y="830"/>
      <point x="113" y="810" type="qcurve" smooth="yes"/>
      <point x="116" y="552" type="line"/>
      <point x="289" y="562" type="line" smooth="yes"/>
      <point x="314" y="563"/>
      <point x="342" y="573" type="qcurve" smooth="yes"/>
      <point x="348" y="575"/>
      <point x="352" y="575" type="qcurve" smooth="yes"/>
      <point x="365" y="575"/>
      <point x="405" y="539"/>
      <point x="405" y="526" type="qcurve" smooth="yes"/>
      <point x="405" y="515"/>
      <point x="387" y="513" type="qcurve" smooth="yes"/>
      <point x="121" y="498" type="line" smooth="yes"/>
      <point x="111" y="497"/>
      <point x="95" y="493"/>
      <point x="90" y="493" type="qcurve" smooth="yes"/>
      <point x="81" y="493"/>
      <point x="56" y="510"/>
      <point x="56" y="530" type="qcurve" smooth="yes"/>
      <point x="56" y="540" type="line"/>
      <point x="53" y="782" type="line" smooth="yes"/>
      <point x="53" y="808"/>
    </contour>
  </outline>
</glyph>
<glyph name="grave" format="1">
  <advance width="500" height="500"/>
  <unicode hex="0300"/>
  <unicode hex="02CB"/>
  <unicode hex="0060"/>
  <outline>
    <contour>
      <point x="300" y="564" type="qcurve" smooth="yes"/>
      <point x="313" y="564"/>
      <point x="333" y="587"/>
      <point x="333" y="600" type="qcurve" smooth="yes"/>
      <point x="333" y="611"/>
      <point x="326" y="617" type="qcurve" smooth="yes"/>
      <point x="223" y="723" type="line" smooth="yes"/>
      <point x="215" y="732"/>
      <point x="201" y="732" type="qcurve" smooth="yes"/>
      <point x="185" y="732"/>
      <point x="155" y="706"/>
      <point x="155" y="692" type="qcurve" smooth="yes"/>
      <point x="155" y="682"/>
      <point x="163" y="675" type="qcurve" smooth="yes"/>
      <point x="283" y="571" type="line" smooth="yes"/>
      <point x="290" y="564"/>
    </contour>
  </outline>
</glyph>
<glyph name="circumflex" format="1">
  <advance width="500" height="500"/>
  <unicode hex="0302"/>
  <unicode hex="02C6"/>
  <outline>
    <contour>
      <point x="250" y="657" type="qcurve"/>
      <point x="149" y="593"/>
      <point x="116" y="565"/>
      <point x="108" y="565" type="qcurve" smooth="yes"/>
      <point x="90" y="565"/>
      <point x="90" y="596"/>
      <point x="170" y="678" type="qcurve" smooth="yes"/>
      <point x="191" y="699"/>
      <point x="214" y="721"/>
      <point x="235" y="725"/>
      <point x="279" y="725"/>
      <point x="291" y="713" type="qcurve" smooth="yes"/>
      <point x="322" y="682" type="line" smooth="yes"/>
      <point x="409" y="598"/>
      <point x="409" y="565"/>
      <point x="391" y="565" type="qcurve" smooth="yes"/>
      <point x="383" y="565"/>
      <point x="348" y="596"/>
    </contour>
  </outline>
</glyph>
<glyph name="macron" format="1">
  <advance width="500" height="500"/>
  <unicode hex="0304"/>
  <unicode hex="02C9"/>
  <unicode hex="00AF"/>
  <outline>
    <contour>
      <point x="471" y="779" type="qcurve" smooth="yes"/>
      <point x="30" y="779" type="line" smooth="yes"/>
      <point x="10" y="779"/>
      <point x="10" y="810" type="qcurve" smooth="yes"/>
      <point x="10" y="840"/>
      <point x="30" y="840" type="qcurve" smooth="yes"/>
      <point x="471" y="840" type="line" smooth="yes"/>
      <point x="491" y="840"/>
      <point x="491" y="810" type="qcurve" smooth="yes"/>
      <point x="491" y="779"/>
    </contour>
  </outline>
</glyph>
<glyph name="uni0306" format="1">
  <advance width="0" height="0"/>
  <unicode hex="0306"/>
  <outline>
    <contour>
      <point x="406" y="685"/>
      <point x="406" y="675" type="qcurve" smooth="yes"/>
      <point x="406" y="655"/>
      <point x="366" y="619" type="qcurve" smooth="yes"/>
      <point x="318" y="578"/>
      <point x="182" y="578"/>
      <point x="135" y="622" type="qcurve" smooth="yes"/>
      <point x="97" y="656"/>
      <point x="97" y="676" type="qcurve" smooth="yes"/>
      <point x="97" y="684"/>
      <point x="124" y="707"/>
      <point x="151" y="707"/>
      <point x="156" y="696" type="qcurve" smooth="yes"/>
      <point x="189" y="638"/>
      <point x="317" y="638"/>
      <point x="348" y="696" type="qcurve" smooth="yes"/>
      <point x="354" y="708"/>
      <point x="381" y="708"/>
    </contour>
  </outline>
</glyph>
<glyph name="uni030B" format="1">
  <advance width="0" height="0"/>
  <unicode hex="030B"/>
  <outline>
    <contour>
      <point x="425" y="658" type="qcurve" smooth="yes"/>
      <point x="303" y="597"/>
      <point x="259" y="567"/>
      <point x="252" y="567" type="qcurve" smooth="yes"/>
      <point x="236" y="567"/>
      <point x="236" y="600"/>
      <point x="364" y="712" type="qcurve" smooth="yes"/>
      <point x="367" y="715"/>
      <point x="383" y="715"/>
      <point x="411" y="699"/>
      <point x="432" y="677"/>
      <point x="432" y="661"/>
    </contour>
    <contour>
      <point x="275" y="660" type="qcurve" smooth="yes"/>
      <point x="169" y="610"/>
      <point x="114" y="572" type="qcurve" smooth="yes"/>
      <point x="109" y="568"/>
      <point x="102" y="568" type="qcurve" smooth="yes"/>
      <point x="86" y="568"/>
      <point x="86" y="598"/>
      <point x="210" y="710"/>
      <point x="217" y="715"/>
      <point x="234" y="715"/>
      <point x="261" y="700"/>
      <point x="282" y="679"/>
      <point x="282" y="663"/>
    </contour>
  </outline>
</glyph>
<glyph name="uni030C" format="1">
  <advance width="0" height="0"/>
  <unicode hex="030C"/>
  <outline>
    <contour>
      <point x="250" y="637" type="qcurve"/>
      <point x="285" y="660"/>
      <point x="353" y="703"/>
      <point x="383" y="729"/>
      <point x="391" y="729" type="qcurve" smooth="yes"/>
      <point x="409" y="729"/>
      <point x="409" y="696"/>
      <point x="322" y="612" type="qcurve" smooth="yes"/>
      <point x="294" y="584" type="line" smooth="yes"/>
      <point x="279" y="569"/>
      <point x="220" y="569"/>
      <point x="209" y="578" type="qcurve" smooth="yes"/>
      <point x="139" y="644"/>
      <point x="102" y="693" type="qcurve" smooth="yes"/>
      <point x="90" y="708"/>
      <point x="90" y="713" type="qcurve" smooth="yes"/>
      <point x="90" y="729"/>
      <point x="108" y="729" type="qcurve" smooth="yes"/>
      <point x="116" y="729"/>
      <point x="146" y="703"/>
      <point x="215" y="660"/>
    </contour>
  </outline>
</glyph>
<glyph name="dotbelowcomb" format="1">
  <advance width="0" height="0"/>
  <unicode hex="0323"/>
  <outline>
    <contour>
      <point x="-153" y="-141"/>
      <point x="-153" y="-120" type="qcurve" smooth="yes"/>
      <point x="-153" y="-98"/>
      <point x="-129" y="-72"/>
      <point x="-107" y="-72" type="qcurve" smooth="yes"/>
      <point x="-87" y="-72"/>
      <point x="-52" y="-112"/>
      <point x="-52" y="-134" type="qcurve" smooth="yes"/>
      <point x="-52" y="-155"/>
      <point x="-77" y="-181"/>
      <point x="-97" y="-181" type="qcurve" smooth="yes"/>
      <point x="-119" y="-181"/>
    </contour>
  </outline>
</glyph>
<glyph name="cedilla" format="1">
  <advance width="500" height="500"/>
  <unicode hex="0327"/>
  <unicode hex="00B8"/>
  <outline>
    <contour>
      <point x="254" y="-180" type="qcurve" smooth="yes"/>
      <point x="355" y="-180"/>
      <point x="360" y="-97" type="qcurve"/>
      <point x="360" y="-26"/>
      <point x="282" y="-26" type="qcurve" smooth="yes"/>
      <point x="272" y="-26" type="line" smooth="yes"/>
      <point x="264" y="-26"/>
      <point x="262" y="-27" type="qcurve" smooth="yes"/>
      <point x="277" y="18" type="line"/>
      <point x="211" y="23" type="line"/>
      <point x="206" y="6" type="line" smooth="yes"/>
      <point x="200" y="-12"/>
      <point x="191" y="-35" type="qcurve" smooth="yes"/>
      <point x="191" y="-36"/>
      <point x="189" y="-41"/>
      <point x="189" y="-45" type="qcurve" smooth="yes"/>
      <point x="189" y="-58"/>
      <point x="208" y="-76"/>
      <point x="221" y="-76" type="qcurve" smooth="yes"/>
      <point x="226" y="-76" type="line"/>
      <point x="247" y="-72"/>
      <point x="260" y="-72" type="qcurve" smooth="yes"/>
      <point x="297" y="-72"/>
      <point x="297" y="-97" type="qcurve" smooth="yes"/>
      <point x="297" y="-114"/>
      <point x="275" y="-125"/>
      <point x="254" y="-125" type="qcurve" smooth="yes"/>
      <point x="229" y="-125"/>
      <point x="198" y="-113"/>
      <point x="178" y="-99" type="qcurve" smooth="yes"/>
      <point x="177" y="-97"/>
      <point x="172" y="-97" type="qcurve" smooth="yes"/>
      <point x="165" y="-97"/>
      <point x="155" y="-121"/>
      <point x="155" y="-134" type="qcurve" smooth="yes"/>
      <point x="155" y="-152"/>
      <point x="165" y="-158" type="qcurve" smooth="yes"/>
      <point x="209" y="-180"/>
    </contour>
  </outline>
</glyph>
<glyph name="uni0328" format="1">
  <advance width="0" height="0"/>
  <unicode hex="0328"/>
  <outline>
    <contour>
      <point x="225" y="-82" type="qcurve" smooth="yes"/>
      <point x="225" y="-115"/>
      <point x="307" y="-115"/>
      <point x="340" y="-86" type="qcurve" smooth="yes"/>
      <point x="351" y="-75"/>
      <point x="372" y="-75"/>
      <point x="372" y="-98"/>
      <point x="339" y="-138"/>
      <point x="286" y="-170"/>
      <point x="206" y="-170"/>
      <point x="157" y="-123"/>
      <point x="157" y="-51"/>
      <point x="184" y="7"/>
      <point x="203" y="24" type="qcurve"/>
      <point x="276" y="24" type="line"/>
      <point x="225" y="-24"/>
    </contour>
  </outline>
</glyph>
<glyph name="underscore" format="1">
  <advance width="500" height="500"/>
  <unicode hex="0332"/>
  <unicode hex="005F"/>
  <outline>
    <contour>
      <point x="471" y="-162" type="qcurve" smooth="yes"/>
      <point x="30" y="-162" type="line" smooth="yes"/>
      <point x="10" y="-162"/>
      <point x="10" y="-132" type="qcurve" smooth="yes"/>
      <point x="10" y="-101"/>
      <point x="30" y="-101" type="qcurve" smooth="yes"/>
      <point x="471" y="-101" type="line" smooth="yes"/>
      <point x="491" y="-101"/>
      <point x="491" y="-132" type="qcurve" smooth="yes"/>
      <point x="491" y="-162"/>
    </contour>
  </outline>
</glyph>
<glyph name="uni0361" format="1">
  <advance width="1000" height="1000"/>
  <unicode hex="0361"/>
  <outline>
    <contour>
      <point x="875" y="621"/>
      <point x="866" y="628" type="qcurve" smooth="yes"/>
      <point x="797" y="686"/>
      <point x="577" y="753"/>
      <point x="473" y="753" type="qcurve" smooth="yes"/>
      <point x="390" y="753"/>
      <point x="190" y="689"/>
      <point x="128" y="629" type="qcurve" smooth="yes"/>
      <point x="122" y="623"/>
      <point x="114" y="623" type="qcurve" smooth="yes"/>
      <point x="107" y="623"/>
      <point x="97" y="632"/>
      <point x="97" y="639" type="qcurve" smooth="yes"/>
      <point x="97" y="647"/>
      <point x="103" y="655" type="qcurve" smooth="yes"/>
      <point x="164" y="730"/>
      <point x="364" y="827"/>
      <point x="473" y="827" type="qcurve" smooth="yes"/>
      <point x="592" y="827"/>
      <point x="819" y="736"/>
      <point x="890" y="654" type="qcurve" smooth="yes"/>
      <point x="897" y="646"/>
      <point x="897" y="638" type="qcurve" smooth="yes"/>
      <point x="897" y="631"/>
      <point x="889" y="621"/>
    </contour>
  </outline>
</glyph>
<glyph name="uni0374" format="1">
  <advance width="500" height="500"/>
  <unicode hex="0374"/>
  <outline>
    <contour>
      <point x="312" y="797"/>
      <point x="349" y="777"/>
      <point x="349" y="764" type="qcurve" smooth="yes"/>
      <point x="349" y="761"/>
      <point x="347" y="757" type="qcurve" smooth="yes"/>
      <point x="206" y="534" type="line" smooth="yes"/>
      <point x="202" y="527"/>
      <point x="192" y="527" type="qcurve" smooth="yes"/>
      <point x="185" y="527"/>
      <point x="173" y="536"/>
      <point x="173" y="541" type="qcurve" smooth="yes"/>
      <point x="173" y="544"/>
      <point x="174" y="545" type="qcurve" smooth="yes"/>
      <point x="268" y="785" type="line" smooth="yes"/>
      <point x="272" y="797"/>
    </contour>
  </outline>
</glyph>
<glyph name="uni0375" format="1">
  <advance width="500" height="500"/>
  <unicode hex="0375"/>
  <outline>
    <contour>
      <point x="210" y="-273"/>
      <point x="173" y="-253"/>
      <point x="173" y="-240" type="qcurve" smooth="yes"/>
      <point x="173" y="-237"/>
      <point x="175" y="-233" type="qcurve" smooth="yes"/>
      <point x="316" y="-10" type="line" smooth="yes"/>
      <point x="320" y="-3"/>
      <point x="330" y="-3" type="qcurve" smooth="yes"/>
      <point x="337" y="-3"/>
      <point x="349" y="-12"/>
      <point x="349" y="-17" type="qcurve" smooth="yes"/>
      <point x="349" y="-20"/>
      <point x="348" y="-21" type="qcurve" smooth="yes"/>
      <point x="254" y="-261" type="line" smooth="yes"/>
      <point x="250" y="-273"/>
    </contour>
  </outline>
</glyph>
<glyph name="anoteleia" format="1">
  <advance width="500" height="500"/>
  <unicode hex="0387"/>
  <outline>
    <contour>
      <point x="261" y="400" type="qcurve" smooth="yes"/>
      <point x="236" y="400"/>
      <point x="198" y="449"/>
      <point x="198" y="472" type="qcurve" smooth="yes"/>
      <point x="198" y="501"/>
      <point x="234" y="530"/>
      <point x="261" y="530" type="qcurve" smooth="yes"/>
      <point x="284" y="530"/>
      <point x="324" y="481"/>
      <point x="324" y="455" type="qcurve" smooth="yes"/>
      <point x="324" y="431"/>
      <point x="294" y="400"/>
    </contour>
  </outline>
</glyph>
<glyph name="uni03DB" format="1">
  <advance width="500" height="500"/>
  <unicode hex="03DB"/>
  <outline>
    <contour>
      <point x="284" y="401" type="line"/>
      <point x="115" y="401"/>
      <point x="115" y="296" type="qcurve" smooth="yes"/>
      <point x="115" y="259"/>
      <point x="157" y="218"/>
      <point x="220" y="187"/>
      <point x="282" y="155"/>
      <point x="324" y="111"/>
      <point x="324" y="57"/>
      <point x="316" y="39" type="qcurve" smooth="yes"/>
      <point x="299" y="-2"/>
      <point x="160" y="-2"/>
      <point x="150" y="24" type="qcurve" smooth="yes"/>
      <point x="146" y="36"/>
      <point x="146" y="76"/>
      <point x="159" y="76" type="qcurve" smooth="yes"/>
      <point x="176" y="72"/>
      <point x="205" y="60"/>
      <point x="255" y="60"/>
      <point x="269" y="70"/>
      <point x="269" y="88"/>
      <point x="250" y="114"/>
      <point x="226" y="126" type="qcurve" smooth="yes"/>
      <point x="173" y="152" type="line" smooth="yes"/>
      <point x="102" y="188"/>
      <point x="72" y="236" type="qcurve" smooth="yes"/>
      <point x="55" y="264"/>
      <point x="55" y="349"/>
      <point x="96" y="415"/>
      <point x="158" y="458"/>
      <point x="230" y="479"/>
      <point x="376" y="479"/>
      <point x="430" y="471"/>
      <point x="436" y="449"/>
      <point x="436" y="419"/>
      <point x="417" y="397"/>
      <point x="401" y="396" type="qcurve" smooth="yes"/>
      <point x="392" y="396" type="line"/>
    </contour>
  </outline>
</glyph>
<glyph name="uni0E3F" format="1">
  <advance width="1000" height="1000"/>
  <unicode hex="0E3F"/>
  <outline>
    <contour>
      <point x="240" y="34"/>
      <point x="273" y="34"/>
      <point x="281" y="36" type="qcurve"/>
      <point x="281" y="625" type="line"/>
      <point x="268" y="629"/>
      <point x="241" y="657"/>
      <point x="241" y="676"/>
      <point x="248" y="679" type="qcurve" smooth="yes"/>
      <point x="274" y="689"/>
      <point x="350" y="700" type="qcurve" smooth="yes"/>
      <point x="398" y="707"/>
      <point x="444" y="709" type="qcurve"/>
      <point x="442" y="739"/>
      <point x="442" y="761" type="qcurve" smooth="yes"/>
      <point x="442" y="770"/>
      <point x="479" y="770"/>
      <point x="513" y="758"/>
      <point x="513" y="747" type="qcurve" smooth="yes"/>
      <point x="512" y="711" type="line"/>
      <point x="579" y="709"/>
      <point x="624" y="690" type="qcurve" smooth="yes"/>
      <point x="718" y="651"/>
      <point x="718" y="557" type="qcurve" smooth="yes"/>
      <point x="718" y="481"/>
      <point x="651" y="430" type="qcurve" smooth="yes"/>
      <point x="622" y="409"/>
      <point x="594" y="398" type="qcurve"/>
      <point x="642" y="393"/>
      <point x="724" y="344"/>
      <point x="774" y="265"/>
      <point x="774" y="150"/>
      <point x="747" y="108" type="qcurve" smooth="yes"/>
      <point x="688" y="16"/>
      <point x="511" y="-4" type="qcurve"/>
      <point x="511" y="-14" type="line" smooth="yes"/>
      <point x="514" y="-41"/>
      <point x="514" y="-114" type="qcurve" smooth="yes"/>
      <point x="514" y="-123"/>
      <point x="478" y="-123"/>
      <point x="443" y="-109"/>
      <point x="443" y="-98" type="qcurve" smooth="yes"/>
      <point x="445" y="-15" type="line"/>
      <point x="445" y="-9" type="line"/>
      <point x="424" y="-10"/>
      <point x="402" y="-10" type="qcurve" smooth="yes"/>
      <point x="309" y="-10"/>
      <point x="248" y="-1" type="qcurve" smooth="yes"/>
      <point x="228" y="3"/>
      <point x="228" y="17" type="qcurve" smooth="yes"/>
      <point x="228" y="23"/>
    </contour>
    <contour>
      <point x="511" y="51" type="line"/>
      <point x="624" y="70"/>
      <point x="670" y="123" type="qcurve" smooth="yes"/>
      <point x="703" y="161"/>
      <point x="703" y="207" type="qcurve" smooth="yes"/>
      <point x="703" y="287"/>
      <point x="641" y="325" type="qcurve" smooth="yes"/>
      <point x="592" y="356"/>
      <point x="521" y="358" type="qcurve" smooth="yes"/>
      <point x="511" y="358" type="line"/>
    </contour>
    <contour>
      <point x="511" y="422" type="line"/>
      <point x="538" y="430"/>
      <point x="562" y="442" type="qcurve" smooth="yes"/>
      <point x="598" y="459"/>
      <point x="647" y="515"/>
      <point x="647" y="551" type="qcurve" smooth="yes"/>
      <point x="647" y="641"/>
      <point x="511" y="649" type="qcurve"/>
      <point x="511" y="647" type="line"/>
    </contour>
    <contour>
      <point x="444" y="357" type="line"/>
      <point x="398" y="355"/>
      <point x="351" y="351" type="qcurve"/>
      <point x="351" y="39" type="line"/>
      <point x="402" y="39"/>
      <point x="445" y="43" type="qcurve"/>
    </contour>
    <contour>
      <point x="444" y="649" type="line"/>
      <point x="395" y="645"/>
      <point x="351" y="633" type="qcurve"/>
      <point x="351" y="408" type="line"/>
      <point x="364" y="408" type="line" smooth="yes"/>
      <point x="410" y="408"/>
      <point x="444" y="411" type="qcurve"/>
    </contour>
  </outline>
</glyph>
<glyph name="uni1E9E" format="1">
  <advance width="500" height="500"/>
  <unicode hex="1E9E"/>
  <outline>
    <contour>
      <point x="116" y="-8" type="qcurve" smooth="yes"/>
      <point x="100" y="-8"/>
      <point x="65" y="9"/>
      <point x="65" y="22" type="qcurve" smooth="yes"/>
      <point x="66" y="30"/>
      <point x="66" y="479" type="qcurve" smooth="yes"/>
      <point x="66" y="613"/>
      <point x="123" y="674" type="qcurve" smooth="yes"/>
      <point x="173" y="726"/>
      <point x="250" y="726" type="qcurve" smooth="yes"/>
      <point x="324" y="726"/>
      <point x="407" y="639"/>
      <point x="407" y="569" type="qcurve" smooth="yes"/>
      <point x="407" y="512"/>
      <point x="336" y="429"/>
      <point x="282" y="410" type="qcurve"/>
      <point x="335" y="410"/>
      <point x="415" y="358"/>
      <point x="463" y="272"/>
      <point x="463" y="217" type="qcurve" smooth="yes"/>
      <point x="463" y="88"/>
      <point x="377" y="27" type="qcurve" smooth="yes"/>
      <point x="335" y="-2"/>
      <point x="277" y="-2" type="qcurve" smooth="yes"/>
      <point x="218" y="-2"/>
      <point x="132" y="78"/>
      <point x="132" y="95" type="qcurve" smooth="yes"/>
      <point x="132" y="109"/>
      <point x="147" y="109" type="qcurve" smooth="yes"/>
      <point x="157" y="109"/>
      <point x="170" y="98" type="qcurve" smooth="yes"/>
      <point x="213" y="62"/>
      <point x="273" y="62" type="qcurve" smooth="yes"/>
      <point x="326" y="62"/>
      <point x="390" y="140"/>
      <point x="390" y="217" type="qcurve" smooth="yes"/>
      <point x="390" y="290"/>
      <point x="309" y="368"/>
      <point x="237" y="368" type="qcurve" smooth="yes"/>
      <point x="212" y="368"/>
      <point x="182" y="358" type="qcurve" smooth="yes"/>
      <point x="170" y="358"/>
      <point x="163" y="369" type="qcurve" smooth="yes"/>
      <point x="148" y="389"/>
      <point x="148" y="412" type="qcurve" smooth="yes"/>
      <point x="149" y="425"/>
      <point x="158" y="425" type="qcurve" smooth="yes"/>
      <point x="220" y="427"/>
      <point x="275" y="462" type="qcurve" smooth="yes"/>
      <point x="335" y="502"/>
      <point x="335" y="568" type="qcurve" smooth="yes"/>
      <point x="335" y="661"/>
      <point x="250" y="661" type="qcurve" smooth="yes"/>
      <point x="135" y="661"/>
      <point x="135" y="472" type="qcurve" smooth="yes"/>
      <point x="135" y="146"/>
      <point x="139" y="2" type="qcurve" smooth="yes"/>
      <point x="139" y="-8"/>
    </contour>
  </outline>
</glyph>
<glyph name="uni1F72" format="1">
  <advance width="500" height="500"/>
  <unicode hex="1F72"/>
  <outline>
    <contour>
      <point x="266" y="-18" type="qcurve" smooth="yes"/>
      <point x="171" y="-18"/>
      <point x="69" y="66"/>
      <point x="69" y="132" type="qcurve" smooth="yes"/>
      <point x="69" y="198"/>
      <point x="125" y="237" type="qcurve" smooth="yes"/>
      <point x="150" y="254"/>
      <point x="175" y="258" type="qcurve"/>
      <point x="139" y="269"/>
      <point x="87" y="325"/>
      <point x="87" y="370" type="qcurve" smooth="yes"/>
      <point x="87" y="415"/>
      <point x="171" y="486"/>
      <point x="251" y="486" type="qcurve" smooth="yes"/>
      <point x="296" y="486"/>
      <point x="375" y="452"/>
      <point x="408" y="426"/>
      <point x="408" y="413" type="qcurve" smooth="yes"/>
      <point x="408" y="401"/>
      <point x="393" y="365"/>
      <point x="382" y="365" type="qcurve" smooth="yes"/>
      <point x="371" y="365"/>
      <point x="355" y="380" type="qcurve" smooth="yes"/>
      <point x="309" y="428"/>
      <point x="250" y="428" type="qcurve" smooth="yes"/>
      <point x="156" y="428"/>
      <point x="156" y="365" type="qcurve" smooth="yes"/>
      <point x="156" y="283"/>
      <point x="337" y="275" type="qcurve" smooth="yes"/>
      <point x="350" y="275"/>
      <point x="350" y="260" type="qcurve" smooth="yes"/>
      <point x="350" y="245"/>
      <point x="335" y="211"/>
      <point x="320" y="211" type="qcurve" smooth="yes"/>
      <point x="278" y="220"/>
      <point x="250" y="220" type="qcurve" smooth="yes"/>
      <point x="197" y="220"/>
      <point x="138" y="169"/>
      <point x="138" y="129" type="qcurve" smooth="yes"/>
      <point x="138" y="88"/>
      <point x="210" y="42"/>
      <point x="260" y="42" type="qcurve" smooth="yes"/>
      <point x="309" y="42"/>
      <point x="370" y="57"/>
      <point x="412" y="84"/>
      <point x="420" y="84" type="qcurve" smooth="yes"/>
      <point x="438" y="84"/>
      <point x="438" y="67" type="qcurve" smooth="yes"/>
      <point x="438" y="55"/>
      <point x="391" y="15"/>
      <point x="313" y="-18"/>
    </contour>
    <contour>
      <point x="328" y="574" type="qcurve" smooth="yes"/>
      <point x="322" y="574"/>
      <point x="285" y="598"/>
      <point x="199" y="631"/>
      <point x="154" y="649" type="qcurve" smooth="yes"/>
      <point x="147" y="653"/>
      <point x="147" y="660" type="qcurve" smooth="yes"/>
      <point x="147" y="668"/>
      <point x="166" y="693"/>
      <point x="193" y="713"/>
      <point x="200" y="713" type="qcurve" smooth="yes"/>
      <point x="208" y="713"/>
      <point x="211" y="711" type="qcurve" smooth="yes"/>
      <point x="346" y="612"/>
      <point x="346" y="591" type="qcurve" smooth="yes"/>
      <point x="346" y="574"/>
    </contour>
  </outline>
</glyph>
<glyph name="uni1F73" format="1">
  <advance width="500" height="500"/>
  <unicode hex="1F73"/>
  <outline>
    <contour>
      <point x="266" y="-18" type="qcurve" smooth="yes"/>
      <point x="171" y="-18"/>
      <point x="69" y="66"/>
      <point x="69" y="132" type="qcurve" smooth="yes"/>
      <point x="69" y="198"/>
      <point x="125" y="237" type="qcurve" smooth="yes"/>
      <point x="150" y="254"/>
      <point x="175" y="258" type="qcurve"/>
      <point x="139" y="269"/>
      <point x="87" y="325"/>
      <point x="87" y="370" type="qcurve" smooth="yes"/>
      <point x="87" y="415"/>
      <point x="171" y="486"/>
      <point x="251" y="486" type="qcurve" smooth="yes"/>
      <point x="296" y="486"/>
      <point x="375" y="452"/>
      <point x="408" y="426"/>
      <point x="408" y="413" type="qcurve" smooth="yes"/>
      <point x="408" y="401"/>
      <point x="393" y="365"/>
      <point x="382" y="365" type="qcurve" smooth="yes"/>
      <point x="371" y="365"/>
      <point x="355" y="380" type="qcurve" smooth="yes"/>
      <point x="309" y="428"/>
      <point x="250" y="428" type="qcurve" smooth="yes"/>
      <point x="156" y="428"/>
      <point x="156" y="365" type="qcurve" smooth="yes"/>
      <point x="156" y="283"/>
      <point x="337" y="275" type="qcurve" smooth="yes"/>
      <point x="350" y="275"/>
      <point x="350" y="260" type="qcurve" smooth="yes"/>
      <point x="350" y="245"/>
      <point x="335" y="211"/>
      <point x="320" y="211" type="qcurve" smooth="yes"/>
      <point x="278" y="220"/>
      <point x="250" y="220" type="qcurve" smooth="yes"/>
      <point x="197" y="220"/>
      <point x="138" y="169"/>
      <point x="138" y="129" type="qcurve" smooth="yes"/>
      <point x="138" y="88"/>
      <point x="210" y="42"/>
      <point x="260" y="42" type="qcurve" smooth="yes"/>
      <point x="309" y="42"/>
      <point x="370" y="57"/>
      <point x="412" y="84"/>
      <point x="420" y="84" type="qcurve" smooth="yes"/>
      <point x="438" y="84"/>
      <point x="438" y="67" type="qcurve" smooth="yes"/>
      <point x="438" y="55"/>
      <point x="391" y="15"/>
      <point x="313" y="-18"/>
    </contour>
    <contour>
      <point x="179" y="574" type="qcurve" smooth="yes"/>
      <point x="172" y="574"/>
      <point x="162" y="585"/>
      <point x="162" y="591" type="qcurve" smooth="yes"/>
      <point x="162" y="611"/>
      <point x="297" y="711" type="qcurve" smooth="yes"/>
      <point x="300" y="713"/>
      <point x="308" y="713" type="qcurve" smooth="yes"/>
      <point x="316" y="713"/>
      <point x="329" y="703" type="qcurve" smooth="yes"/>
      <point x="362" y="678"/>
      <point x="362" y="659" type="qcurve" smooth="yes"/>
      <point x="362" y="653"/>
      <point x="355" y="649" type="qcurve" smooth="yes"/>
      <point x="310" y="631"/>
      <point x="223" y="598"/>
      <point x="187" y="574"/>
    </contour>
  </outline>
</glyph>
<glyph name="figuredash" format="1">
  <advance width="500" height="500"/>
  <unicode hex="2013"/>
  <unicode hex="2012"/>
  <outline>
    <contour>
      <point x="495" y="291" type="line" smooth="yes"/>
      <point x="514" y="291"/>
      <point x="514" y="228"/>
      <point x="495" y="228" type="qcurve" smooth="yes"/>
      <point x="5" y="228" type="line" smooth="yes"/>
      <point x="-14" y="228"/>
      <point x="-14" y="291"/>
      <point x="5" y="291" type="qcurve" smooth="yes"/>
    </contour>
  </outline>
</glyph>
<glyph name="dagger" format="1">
  <advance width="1000" height="1000"/>
  <unicode hex="2020"/>
  <outline>
    <contour>
      <point x="532" y="-18" type="line" smooth="yes"/>
      <point x="532" y="-34"/>
      <point x="505" y="-34" type="qcurve" smooth="yes"/>
      <point x="491" y="-34"/>
      <point x="466" y="-23"/>
      <point x="466" y="-13" type="qcurve" smooth="yes"/>
      <point x="466" y="-12" type="line" smooth="yes"/>
      <point x="469" y="20"/>
      <point x="469" y="64" type="qcurve" smooth="yes"/>
      <point x="469" y="507" type="line"/>
      <point x="417" y="506" type="line" smooth="yes"/>
      <point x="375" y="506"/>
      <point x="336" y="503" type="qcurve" smooth="yes"/>
      <point x="335" y="503" type="line" smooth="yes"/>
      <point x="327" y="503"/>
      <point x="315" y="530"/>
      <point x="315" y="568"/>
      <point x="331" y="568" type="qcurve" smooth="yes"/>
      <point x="365" y="566"/>
      <point x="418" y="566" type="qcurve" smooth="yes"/>
      <point x="469" y="567" type="line"/>
      <point x="469" y="672" type="line" smooth="yes"/>
      <point x="469" y="729"/>
      <point x="467" y="759" type="qcurve" smooth="yes"/>
      <point x="467" y="775"/>
      <point x="493" y="775" type="qcurve" smooth="yes"/>
      <point x="507" y="775"/>
      <point x="534" y="764"/>
      <point x="534" y="755" type="qcurve" smooth="yes"/>
      <point x="534" y="754" type="line" smooth="yes"/>
      <point x="531" y="718"/>
      <point x="531" y="673" type="qcurve" smooth="yes"/>
      <point x="531" y="568" type="line"/>
      <point x="585" y="569" type="line" smooth="yes"/>
      <point x="595" y="569"/>
      <point x="661" y="572" type="qcurve" smooth="yes"/>
      <point x="662" y="572" type="line" smooth="yes"/>
      <point x="672" y="572"/>
      <point x="684" y="548"/>
      <point x="684" y="536" type="qcurve" smooth="yes"/>
      <point x="684" y="508"/>
      <point x="667" y="508" type="qcurve" smooth="yes"/>
      <point x="584" y="509" type="line"/>
      <point x="531" y="508" type="line"/>
      <point x="531" y="65" type="line"/>
    </contour>
  </outline>
</glyph>
<glyph name="bullet" format="1">
  <advance width="500" height="500"/>
  <unicode hex="2022"/>
  <outline>
    <contour>
      <point x="361" y="337"/>
      <point x="361" y="276"/>
      <point x="346" y="250" type="qcurve" smooth="yes"/>
      <point x="313" y="195"/>
      <point x="250" y="195" type="qcurve" smooth="yes"/>
      <point x="220" y="195"/>
      <point x="169" y="225"/>
      <point x="139" y="276"/>
      <point x="139" y="337"/>
      <point x="169" y="387"/>
      <point x="220" y="417"/>
      <point x="281" y="417"/>
      <point x="331" y="387"/>
    </contour>
  </outline>
</glyph>
<glyph name="uni2035" format="1">
  <advance width="500" height="500"/>
  <unicode hex="2035"/>
  <outline>
    <contour>
      <point x="255" y="807" type="qcurve" smooth="yes"/>
      <point x="321" y="607" type="line" smooth="yes"/>
      <point x="322" y="606"/>
      <point x="322" y="593"/>
      <point x="293" y="577"/>
      <point x="266" y="577"/>
      <point x="263" y="586" type="qcurve" smooth="yes"/>
      <point x="185" y="782" type="line" smooth="yes"/>
      <point x="184" y="784"/>
      <point x="184" y="787" type="qcurve" smooth="yes"/>
      <point x="184" y="800"/>
      <point x="217" y="819"/>
      <point x="252" y="819"/>
    </contour>
  </outline>
</glyph>
<glyph name="uni203B" format="1">
  <advance width="1000" height="1000"/>
  <unicode hex="203B"/>
  <outline>
    <contour>
      <point x="533" y="35"/>
      <point x="488" y="35"/>
      <point x="453" y="77"/>
      <point x="453" y="121"/>
      <point x="478" y="149"/>
      <point x="521" y="149"/>
      <point x="558" y="107"/>
      <point x="558" y="62"/>
    </contour>
    <contour>
      <point x="252" y="311"/>
      <point x="207" y="311"/>
      <point x="172" y="353"/>
      <point x="172" y="397"/>
      <point x="197" y="425"/>
      <point x="240" y="425"/>
      <point x="277" y="383"/>
      <point x="277" y="338"/>
    </contour>
    <contour>
      <point x="811" y="311"/>
      <point x="766" y="311"/>
      <point x="731" y="353"/>
      <point x="731" y="397"/>
      <point x="756" y="425"/>
      <point x="799" y="425"/>
      <point x="836" y="383"/>
      <point x="836" y="338"/>
    </contour>
    <contour>
      <point x="766" y="49" type="qcurve" smooth="yes"/>
      <point x="502" y="314" type="line"/>
      <point x="286" y="100" type="line" smooth="yes"/>
      <point x="274" y="88"/>
      <point x="223" y="34"/>
      <point x="205" y="34"/>
      <point x="185" y="63"/>
      <point x="185" y="88"/>
      <point x="196" y="98" type="qcurve" smooth="yes"/>
      <point x="236" y="132"/>
      <point x="249" y="145" type="qcurve" smooth="yes"/>
      <point x="459" y="356" type="line"/>
      <point x="253" y="563" type="line" smooth="yes"/>
      <point x="222" y="597"/>
      <point x="193" y="619" type="qcurve" smooth="yes"/>
      <point x="187" y="624"/>
      <point x="187" y="648"/>
      <point x="206" y="679"/>
      <point x="224" y="679"/>
      <point x="230" y="673" type="qcurve" smooth="yes"/>
      <point x="242" y="658"/>
      <point x="291" y="609" type="qcurve" smooth="yes"/>
      <point x="501" y="398" type="line"/>
      <point x="708" y="605" type="line" smooth="yes"/>
      <point x="748" y="645"/>
      <point x="768" y="669" type="qcurve" smooth="yes"/>
      <point x="774" y="675"/>
      <point x="791" y="675"/>
      <point x="812" y="644"/>
      <point x="812" y="620"/>
      <point x="796" y="607"/>
      <point x="777" y="588" type="qcurve" smooth="yes"/>
      <point x="543" y="356" type="line"/>
      <point x="743" y="156" type="line" smooth="yes"/>
      <point x="754" y="145"/>
      <point x="796" y="108" type="qcurve" smooth="yes"/>
      <point x="808" y="98"/>
      <point x="808" y="74"/>
      <point x="787" y="44"/>
      <point x="771" y="44"/>
    </contour>
    <contour>
      <point x="533" y="578"/>
      <point x="488" y="578"/>
      <point x="453" y="620"/>
      <point x="453" y="664"/>
      <point x="478" y="692"/>
      <point x="521" y="692"/>
      <point x="558" y="650"/>
      <point x="558" y="605"/>
    </contour>
  </outline>
</glyph>
<glyph name="uni2049" format="1">
  <advance width="1000" height="1000"/>
  <unicode hex="2049"/>
  <outline>
    <contour>
      <point x="348" y="60"/>
      <point x="348" y="17"/>
      <point x="323" y="-9"/>
      <point x="275" y="-9"/>
      <point x="243" y="29"/>
      <point x="243" y="72"/>
      <point x="269" y="101"/>
      <point x="315" y="101"/>
    </contour>
    <contour>
      <point x="673" y="60"/>
      <point x="673" y="17"/>
      <point x="648" y="-9"/>
      <point x="600" y="-9"/>
      <point x="568" y="29"/>
      <point x="568" y="72"/>
      <point x="594" y="101"/>
      <point x="640" y="101"/>
    </contour>
    <contour>
      <point x="257" y="695" type="line" smooth="yes"/>
      <point x="257" y="712"/>
      <point x="301" y="712"/>
      <point x="342" y="694"/>
      <point x="342" y="681" type="qcurve" smooth="yes"/>
      <point x="342" y="680" type="line" smooth="yes"/>
      <point x="341" y="664"/>
      <point x="337" y="631"/>
      <point x="336" y="609" type="qcurve" smooth="yes"/>
      <point x="324" y="223" type="line"/>
      <point x="324" y="173" type="line" smooth="yes"/>
      <point x="324" y="165"/>
      <point x="295" y="165"/>
      <point x="266" y="177"/>
      <point x="266" y="187" type="qcurve" smooth="yes"/>
      <point x="266" y="188" type="line" smooth="yes"/>
      <point x="268" y="204"/>
      <point x="268" y="227" type="qcurve" smooth="yes"/>
      <point x="262" y="614" type="line" smooth="yes"/>
      <point x="262" y="663"/>
      <point x="257" y="693" type="qcurve"/>
    </contour>
    <contour>
      <point x="650" y="254" type="qcurve" smooth="yes"/>
      <point x="650" y="236" type="line" smooth="yes"/>
      <point x="650" y="224"/>
      <point x="660" y="184" type="qcurve" smooth="yes"/>
      <point x="660" y="168"/>
      <point x="595" y="168"/>
      <point x="583" y="201"/>
      <point x="583" y="247"/>
      <point x="593" y="314"/>
      <point x="635" y="371"/>
      <point x="690" y="418"/>
      <point x="717" y="442" type="qcurve" smooth="yes"/>
      <point x="779" y="497"/>
      <point x="779" y="568" type="qcurve" smooth="yes"/>
      <point x="779" y="604"/>
      <point x="733" y="654"/>
      <point x="633" y="654"/>
      <point x="549" y="616"/>
      <point x="498" y="563"/>
      <point x="485" y="519" type="qcurve" smooth="yes"/>
      <point x="481" y="506"/>
      <point x="452" y="506"/>
      <point x="420" y="533"/>
      <point x="420" y="554"/>
      <point x="422" y="557" type="qcurve" smooth="yes"/>
      <point x="469" y="640"/>
      <point x="598" y="713"/>
      <point x="762" y="713"/>
      <point x="852" y="639"/>
      <point x="852" y="522"/>
      <point x="814" y="450"/>
      <point x="757" y="396"/>
      <point x="698" y="350"/>
      <point x="650" y="293"/>
    </contour>
  </outline>
</glyph>
<glyph name="uni207A" format="1">
  <advance width="500" height="500"/>
  <unicode hex="207A"/>
  <outline>
    <contour>
      <point x="190" y="521" type="qcurve" smooth="yes"/>
      <point x="191" y="545" type="line"/>
      <point x="191" y="627" type="line"/>
      <point x="118" y="627" type="line" smooth="yes"/>
      <point x="104" y="627"/>
      <point x="76" y="625" type="qcurve" smooth="yes"/>
      <point x="46" y="624" type="line"/>
      <point x="44" y="624" type="line" smooth="yes"/>
      <point x="35" y="624"/>
      <point x="21" y="648"/>
      <point x="21" y="662" type="qcurve" smooth="yes"/>
      <point x="21" y="673"/>
      <point x="31" y="687"/>
      <point x="41" y="687" type="qcurve" smooth="yes"/>
      <point x="79" y="685"/>
      <point x="119" y="685" type="qcurve" smooth="yes"/>
      <point x="191" y="685" type="line"/>
      <point x="191" y="752" type="line" smooth="yes"/>
      <point x="191" y="792"/>
      <point x="189" y="830" type="qcurve" smooth="yes"/>
      <point x="189" y="840"/>
      <point x="203" y="850"/>
      <point x="214" y="850" type="qcurve" smooth="yes"/>
      <point x="228" y="850"/>
      <point x="252" y="836"/>
      <point x="252" y="827" type="qcurve" smooth="yes"/>
      <point x="252" y="825" type="line"/>
      <point x="251" y="795" type="line" smooth="yes"/>
      <point x="249" y="767"/>
      <point x="249" y="753" type="qcurve" smooth="yes"/>
      <point x="249" y="685" type="line"/>
      <point x="325" y="685" type="line"/>
      <point x="348" y="686" type="line" smooth="yes"/>
      <point x="374" y="688"/>
      <point x="392" y="688" type="qcurve" smooth="yes"/>
      <point x="393" y="688" type="line" smooth="yes"/>
      <point x="404" y="688"/>
      <point x="418" y="666"/>
      <point x="418" y="652" type="qcurve" smooth="yes"/>
      <point x="418" y="641"/>
      <point x="408" y="626"/>
      <point x="398" y="626" type="qcurve" smooth="yes"/>
      <point x="324" y="627" type="line"/>
      <point x="249" y="627" type="line"/>
      <point x="249" y="546" type="line"/>
      <point x="250" y="472" type="line" smooth="yes"/>
      <point x="250" y="462"/>
      <point x="234" y="452"/>
      <point x="223" y="452" type="qcurve" smooth="yes"/>
      <point x="209" y="452"/>
      <point x="188" y="466"/>
      <point x="188" y="477" type="qcurve" smooth="yes"/>
      <point x="188" y="478" type="line" smooth="yes"/>
      <point x="188" y="495"/>
    </contour>
  </outline>
</glyph>
<glyph name="uni207F" format="1">
  <advance width="500" height="500"/>
  <unicode hex="207F"/>
  <outline>
    <contour>
      <point x="333" y="417" type="line"/>
      <point x="333" y="529" type="line" smooth="yes"/>
      <point x="333" y="581"/>
      <point x="306" y="632"/>
      <point x="232" y="632"/>
      <point x="168" y="580"/>
      <point x="151" y="523" type="qcurve" smooth="yes"/>
      <point x="143" y="497"/>
      <point x="138" y="444"/>
      <point x="138" y="409" type="qcurve" smooth="yes"/>
      <point x="139" y="353" type="line" smooth="yes"/>
      <point x="140" y="342"/>
      <point x="140" y="323" type="qcurve" smooth="yes"/>
      <point x="140" y="318"/>
      <point x="130" y="312"/>
      <point x="122" y="312" type="qcurve" smooth="yes"/>
      <point x="107" y="312"/>
      <point x="77" y="327"/>
      <point x="77" y="338" type="qcurve" smooth="yes"/>
      <point x="78" y="417" type="line"/>
      <point x="78" y="587" type="line"/>
      <point x="76" y="674" type="line" smooth="yes"/>
      <point x="76" y="679"/>
      <point x="86" y="685"/>
      <point x="94" y="685" type="qcurve" smooth="yes"/>
      <point x="109" y="685"/>
      <point x="140" y="670"/>
      <point x="140" y="659" type="qcurve" smooth="yes"/>
      <point x="138" y="625"/>
      <point x="138" y="607" type="qcurve"/>
      <point x="165" y="646"/>
      <point x="234" y="688"/>
      <point x="269" y="688" type="qcurve" smooth="yes"/>
      <point x="392" y="688"/>
      <point x="392" y="533" type="qcurve" smooth="yes"/>
      <point x="392" y="409" type="line"/>
      <point x="394" y="323" type="line" smooth="yes"/>
      <point x="394" y="318"/>
      <point x="384" y="312"/>
      <point x="376" y="312" type="qcurve" smooth="yes"/>
      <point x="360" y="312"/>
      <point x="331" y="326"/>
      <point x="331" y="337" type="qcurve" smooth="yes"/>
      <point x="331" y="338" type="line"/>
    </contour>
  </outline>
</glyph>
<glyph name="uni20A2" format="1">
  <advance width="1000" height="1000"/>
  <unicode hex="20A2"/>
  <outline>
    <contour>
      <point x="809" y="150" type="qcurve" smooth="yes"/>
      <point x="775" y="91"/>
      <point x="705" y="44" type="qcurve" smooth="yes"/>
      <point x="616" y="-18"/>
      <point x="506" y="-18" type="qcurve" smooth="yes"/>
      <point x="419" y="-18"/>
      <point x="280" y="46"/>
      <point x="200" y="183"/>
      <point x="200" y="381"/>
      <point x="254" y="534"/>
      <point x="351" y="649"/>
      <point x="481" y="713"/>
      <point x="557" y="713" type="qcurve" smooth="yes"/>
      <point x="706" y="713"/>
      <point x="777" y="628" type="qcurve" smooth="yes"/>
      <point x="780" y="624"/>
      <point x="780" y="603"/>
      <point x="754" y="569"/>
      <point x="731" y="569"/>
      <point x="725" y="578" type="qcurve" smooth="yes"/>
      <point x="679" y="649"/>
      <point x="438" y="649"/>
      <point x="357" y="550" type="qcurve" smooth="yes"/>
      <point x="272" y="449"/>
      <point x="272" y="128"/>
      <point x="387" y="72" type="qcurve" smooth="yes"/>
      <point x="433" y="49"/>
      <point x="482" y="46" type="qcurve"/>
      <point x="483" y="106" type="line"/>
      <point x="483" y="317" type="line"/>
      <point x="480" y="424" type="line" smooth="yes"/>
      <point x="480" y="434"/>
      <point x="516" y="434"/>
      <point x="553" y="419"/>
      <point x="553" y="396"/>
      <point x="550" y="372"/>
      <point x="550" y="355" type="qcurve"/>
      <point x="570" y="388"/>
      <point x="644" y="436"/>
      <point x="726" y="436"/>
      <point x="778" y="416"/>
      <point x="811" y="388"/>
      <point x="811" y="360"/>
      <point x="788" y="324"/>
      <point x="767" y="324"/>
      <point x="761" y="334" type="qcurve" smooth="yes"/>
      <point x="751" y="353"/>
      <point x="708" y="371"/>
      <point x="693" y="371" type="qcurve" smooth="yes"/>
      <point x="651" y="371"/>
      <point x="615" y="345" type="qcurve" smooth="yes"/>
      <point x="563" y="307"/>
      <point x="553" y="216" type="qcurve" smooth="yes"/>
      <point x="549" y="180"/>
      <point x="549" y="106" type="qcurve" smooth="yes"/>
      <point x="552" y="49" type="line"/>
      <point x="581" y="53"/>
      <point x="609" y="62" type="qcurve" smooth="yes"/>
      <point x="660" y="80"/>
      <point x="754" y="144"/>
      <point x="785" y="185" type="qcurve"/>
      <point x="797" y="190"/>
      <point x="823" y="190"/>
      <point x="823" y="174"/>
    </contour>
  </outline>
</glyph>
<glyph name="franc" format="1">
  <advance width="1000" height="1000"/>
  <unicode hex="20A3"/>
  <outline>
    <contour>
      <point x="315" y="233" type="qcurve"/>
      <point x="315" y="364" type="line"/>
      <point x="304" y="370"/>
      <point x="288" y="402"/>
      <point x="288" y="424"/>
      <point x="296" y="424" type="qcurve" smooth="yes"/>
      <point x="298" y="424" type="line" smooth="yes"/>
      <point x="306" y="422"/>
      <point x="315" y="422" type="qcurve"/>
      <point x="315" y="634" type="line"/>
      <point x="311" y="685" type="line" smooth="yes"/>
      <point x="311" y="699"/>
      <point x="339" y="699"/>
      <point x="377" y="687"/>
      <point x="378" y="686" type="qcurve" smooth="yes"/>
      <point x="649" y="704" type="line" smooth="yes"/>
      <point x="672" y="706"/>
      <point x="723" y="712"/>
      <point x="746" y="712"/>
      <point x="766" y="677"/>
      <point x="766" y="645"/>
      <point x="753" y="645" type="qcurve" smooth="yes"/>
      <point x="691" y="645" type="line" smooth="yes"/>
      <point x="664" y="645"/>
      <point x="650" y="644" type="qcurve" smooth="yes"/>
      <point x="385" y="626" type="line"/>
      <point x="385" y="423" type="line"/>
      <point x="594" y="436" type="line" smooth="yes"/>
      <point x="617" y="438"/>
      <point x="668" y="444"/>
      <point x="691" y="444"/>
      <point x="711" y="409"/>
      <point x="711" y="377"/>
      <point x="698" y="377" type="qcurve" smooth="yes"/>
      <point x="635" y="377" type="line" smooth="yes"/>
      <point x="609" y="377"/>
      <point x="595" y="376" type="qcurve" smooth="yes"/>
      <point x="385" y="364" type="line"/>
      <point x="385" y="233" type="line"/>
      <point x="489" y="233" type="line" smooth="yes"/>
      <point x="518" y="233"/>
      <point x="560" y="236" type="qcurve" smooth="yes"/>
      <point x="561" y="236" type="line" smooth="yes"/>
      <point x="572" y="236"/>
      <point x="584" y="210"/>
      <point x="584" y="173"/>
      <point x="569" y="173" type="qcurve" smooth="yes"/>
      <point x="488" y="175" type="line"/>
      <point x="385" y="175" type="line"/>
      <point x="385" y="107" type="line"/>
      <point x="388" y="1" type="line" smooth="yes"/>
      <point x="388" y="-9"/>
      <point x="351" y="-9"/>
      <point x="313" y="6"/>
      <point x="313" y="19" type="qcurve" smooth="yes"/>
      <point x="315" y="108" type="line"/>
      <point x="315" y="175" type="line"/>
      <point x="270" y="175"/>
      <point x="255" y="172" type="qcurve" smooth="yes"/>
      <point x="254" y="172" type="line" smooth="yes"/>
      <point x="245" y="172"/>
      <point x="234" y="198"/>
      <point x="234" y="211" type="qcurve" smooth="yes"/>
      <point x="234" y="235"/>
      <point x="250" y="235" type="qcurve" smooth="yes"/>
      <point x="275" y="233"/>
    </contour>
  </outline>
</glyph>
<glyph name="uni20A6" format="1">
  <advance width="1000" height="1000"/>
  <unicode hex="20A6"/>
  <outline>
    <contour>
      <point x="860" y="301" type="line" smooth="yes"/>
      <point x="879" y="301"/>
      <point x="879" y="272" type="qcurve" smooth="yes"/>
      <point x="879" y="262"/>
      <point x="870" y="243"/>
      <point x="860" y="243" type="qcurve" smooth="yes"/>
      <point x="766" y="243" type="line"/>
      <point x="766" y="87" type="line"/>
      <point x="770" y="32" type="line" smooth="yes"/>
      <point x="770" y="22"/>
      <point x="761" y="12" type="qcurve" smooth="yes"/>
      <point x="738" y="-13"/>
      <point x="695" y="-13"/>
      <point x="676" y="15"/>
      <point x="651" y="51" type="qcurve" smooth="yes"/>
      <point x="582" y="148"/>
      <point x="518" y="243" type="qcurve"/>
      <point x="306" y="243" type="line"/>
      <point x="306" y="105" type="line"/>
      <point x="309" y="-1" type="line" smooth="yes"/>
      <point x="309" y="-11"/>
      <point x="273" y="-11"/>
      <point x="235" y="4"/>
      <point x="235" y="17" type="qcurve" smooth="yes"/>
      <point x="237" y="106" type="line"/>
      <point x="237" y="243" type="line"/>
      <point x="150" y="243" type="line" smooth="yes"/>
      <point x="140" y="243"/>
      <point x="131" y="262"/>
      <point x="131" y="272" type="qcurve" smooth="yes"/>
      <point x="131" y="301"/>
      <point x="150" y="301" type="qcurve" smooth="yes"/>
      <point x="237" y="301" type="line"/>
      <point x="237" y="413" type="line"/>
      <point x="150" y="413" type="line" smooth="yes"/>
      <point x="140" y="413"/>
      <point x="131" y="432"/>
      <point x="131" y="442" type="qcurve" smooth="yes"/>
      <point x="131" y="471"/>
      <point x="150" y="471" type="qcurve" smooth="yes"/>
      <point x="237" y="471" type="line"/>
      <point x="237" y="641" type="line"/>
      <point x="230" y="678" type="line" smooth="yes"/>
      <point x="230" y="692"/>
      <point x="275" y="708"/>
      <point x="296" y="708"/>
      <point x="308" y="706"/>
      <point x="313" y="698" type="qcurve" smooth="yes"/>
      <point x="338" y="653"/>
      <point x="451" y="471" type="qcurve"/>
      <point x="697" y="471" type="line"/>
      <point x="697" y="589" type="line"/>
      <point x="693" y="695" type="line" smooth="yes"/>
      <point x="693" y="705"/>
      <point x="731" y="705"/>
      <point x="768" y="690"/>
      <point x="768" y="677" type="qcurve" smooth="yes"/>
      <point x="766" y="588" type="line"/>
      <point x="766" y="471" type="line"/>
      <point x="860" y="471" type="line" smooth="yes"/>
      <point x="879" y="471"/>
      <point x="879" y="442" type="qcurve" smooth="yes"/>
      <point x="879" y="432"/>
      <point x="870" y="413"/>
      <point x="860" y="413" type="qcurve" smooth="yes"/>
      <point x="766" y="413" type="line"/>
      <point x="766" y="301" type="line"/>
    </contour>
    <contour>
      <point x="306" y="413" type="line"/>
      <point x="306" y="301" type="line"/>
      <point x="480" y="301" type="line"/>
      <point x="443" y="357"/>
      <point x="408" y="413" type="qcurve"/>
    </contour>
    <contour>
      <point x="306" y="471" type="line"/>
      <point x="371" y="471" type="line"/>
      <point x="338" y="525"/>
      <point x="306" y="579" type="qcurve"/>
    </contour>
    <contour>
      <point x="697" y="413" type="line"/>
      <point x="488" y="413" type="line"/>
      <point x="524" y="356"/>
      <point x="561" y="301" type="qcurve"/>
      <point x="697" y="301" type="line"/>
    </contour>
    <contour>
      <point x="697" y="243" type="line"/>
      <point x="600" y="243" type="line"/>
      <point x="648" y="172"/>
      <point x="697" y="104" type="qcurve"/>
    </contour>
  </outline>
</glyph>
<glyph name="dong" format="1">
  <advance width="1000" height="1000"/>
  <unicode hex="20AB"/>
  <outline>
    <contour>
      <point x="748" y="-101" type="line" smooth="yes"/>
      <point x="767" y="-101"/>
      <point x="767" y="-162"/>
      <point x="748" y="-162" type="qcurve" smooth="yes"/>
      <point x="258" y="-162" type="line" smooth="yes"/>
      <point x="239" y="-162"/>
      <point x="239" y="-101"/>
      <point x="258" y="-101" type="qcurve" smooth="yes"/>
    </contour>
    <contour>
      <point x="630" y="381" type="line"/>
      <point x="626" y="377"/>
      <point x="615" y="377"/>
      <point x="611" y="382" type="qcurve" smooth="yes"/>
      <point x="578" y="428"/>
      <point x="513" y="428" type="qcurve" smooth="yes"/>
      <point x="482" y="428"/>
      <point x="416" y="387"/>
      <point x="391" y="352" type="qcurve" smooth="yes"/>
      <point x="337" y="276"/>
      <point x="337" y="116"/>
      <point x="390" y="42"/>
      <point x="427" y="42" type="qcurve" smooth="yes"/>
      <point x="499" y="42"/>
      <point x="630" y="184"/>
      <point x="630" y="276" type="qcurve" smooth="yes"/>
    </contour>
    <contour>
      <point x="629" y="615" type="line"/>
      <point x="626" y="699" type="line" smooth="yes"/>
      <point x="626" y="709"/>
      <point x="662" y="709"/>
      <point x="698" y="694"/>
      <point x="698" y="681" type="qcurve" smooth="yes"/>
      <point x="697" y="615" type="line"/>
      <point x="720" y="616"/>
      <point x="750" y="617" type="qcurve" smooth="yes"/>
      <point x="751" y="617" type="line" smooth="yes"/>
      <point x="759" y="617"/>
      <point x="771" y="593"/>
      <point x="771" y="555"/>
      <point x="756" y="555" type="qcurve" smooth="yes"/>
      <point x="696" y="557" type="line"/>
      <point x="696" y="185" type="line" smooth="yes"/>
      <point x="696" y="142"/>
      <point x="714" y="59"/>
      <point x="730" y="39" type="qcurve" smooth="yes"/>
      <point x="732" y="35"/>
      <point x="732" y="20"/>
      <point x="704" y="-12"/>
      <point x="690" y="-12" type="qcurve" smooth="yes"/>
      <point x="666" y="-12"/>
      <point x="633" y="91"/>
      <point x="633" y="118" type="qcurve"/>
      <point x="590" y="46"/>
      <point x="492" y="-18"/>
      <point x="360" y="-18"/>
      <point x="269" y="88"/>
      <point x="269" y="186" type="qcurve" smooth="yes"/>
      <point x="269" y="304"/>
      <point x="421" y="486"/>
      <point x="518" y="486" type="qcurve" smooth="yes"/>
      <point x="556" y="486"/>
      <point x="614" y="457"/>
      <point x="630" y="434" type="qcurve"/>
      <point x="630" y="557" type="line"/>
      <point x="558" y="557" type="line" smooth="yes"/>
      <point x="502" y="557"/>
      <point x="484" y="554" type="qcurve" smooth="yes"/>
      <point x="483" y="554" type="line" smooth="yes"/>
      <point x="474" y="554"/>
      <point x="463" y="580"/>
      <point x="463" y="593" type="qcurve" smooth="yes"/>
      <point x="463" y="617"/>
      <point x="479" y="617" type="qcurve" smooth="yes"/>
      <point x="509" y="615"/>
      <point x="559" y="615" type="qcurve" smooth="yes"/>
    </contour>
  </outline>
</glyph>
<glyph name="Euro" format="1">
  <advance width="1000" height="1000"/>
  <unicode hex="20AC"/>
  <outline>
    <contour>
      <point x="509" y="273" type="line" smooth="yes"/>
      <point x="532" y="273"/>
      <point x="580" y="276" type="qcurve" smooth="yes"/>
      <point x="581" y="276" type="line" smooth="yes"/>
      <point x="592" y="276"/>
      <point x="604" y="251"/>
      <point x="604" y="213"/>
      <point x="588" y="213" type="qcurve" smooth="yes"/>
      <point x="508" y="215" type="line"/>
      <point x="300" y="215" type="line"/>
      <point x="320" y="127"/>
      <point x="444" y="45"/>
      <point x="629" y="45"/>
      <point x="727" y="112" type="qcurve" smooth="yes"/>
      <point x="774" y="144"/>
      <point x="805" y="185" type="qcurve" smooth="yes"/>
      <point x="817" y="200"/>
      <point x="843" y="200"/>
      <point x="843" y="174"/>
      <point x="829" y="150" type="qcurve" smooth="yes"/>
      <point x="795" y="91"/>
      <point x="725" y="44" type="qcurve" smooth="yes"/>
      <point x="636" y="-18"/>
      <point x="526" y="-18" type="qcurve" smooth="yes"/>
      <point x="363" y="-18"/>
      <point x="282" y="82" type="qcurve" smooth="yes"/>
      <point x="240" y="133"/>
      <point x="226" y="215" type="qcurve"/>
      <point x="157" y="212" type="line" smooth="yes"/>
      <point x="147" y="212"/>
      <point x="134" y="239"/>
      <point x="134" y="275"/>
      <point x="150" y="275" type="qcurve" smooth="yes"/>
      <point x="220" y="273" type="line"/>
      <point x="220" y="333"/>
      <point x="226" y="369" type="qcurve"/>
      <point x="157" y="366" type="line" smooth="yes"/>
      <point x="147" y="366"/>
      <point x="134" y="393"/>
      <point x="134" y="429"/>
      <point x="150" y="429" type="qcurve" smooth="yes"/>
      <point x="224" y="427" type="line"/>
      <point x="238" y="427" type="line"/>
      <point x="261" y="511"/>
      <point x="359" y="640"/>
      <point x="496" y="713"/>
      <point x="577" y="713" type="qcurve" smooth="yes"/>
      <point x="726" y="713"/>
      <point x="797" y="628" type="qcurve" smooth="yes"/>
      <point x="800" y="624"/>
      <point x="800" y="603"/>
      <point x="774" y="569"/>
      <point x="751" y="569"/>
      <point x="745" y="578" type="qcurve" smooth="yes"/>
      <point x="699" y="649"/>
      <point x="573" y="649" type="qcurve" smooth="yes"/>
      <point x="516" y="649"/>
      <point x="412" y="595"/>
      <point x="332" y="495"/>
      <point x="311" y="427" type="qcurve"/>
      <point x="595" y="427" type="line" smooth="yes"/>
      <point x="609" y="427"/>
      <point x="666" y="430" type="qcurve" smooth="yes"/>
      <point x="667" y="430" type="line" smooth="yes"/>
      <point x="678" y="430"/>
      <point x="690" y="405"/>
      <point x="690" y="367"/>
      <point x="674" y="367" type="qcurve" smooth="yes"/>
      <point x="594" y="369" type="line"/>
      <point x="298" y="369" type="line"/>
      <point x="291" y="332"/>
      <point x="291" y="287"/>
      <point x="293" y="273" type="qcurve"/>
    </contour>
  </outline>
</glyph>
<glyph name="uni2105" format="1">
  <advance width="1000" height="1000"/>
  <unicode hex="2105"/>
  <outline>
    <contour>
      <point x="734" y="9" type="qcurve" smooth="yes"/>
      <point x="774" y="9"/>
      <point x="841" y="55"/>
      <point x="881" y="132"/>
      <point x="881" y="246"/>
      <point x="824" y="331"/>
      <point x="722" y="331"/>
      <point x="652" y="274"/>
      <point x="612" y="190"/>
      <point x="612" y="147" type="qcurve" smooth="yes"/>
      <point x="612" y="80"/>
      <point x="676" y="9"/>
    </contour>
    <contour>
      <point x="672" y="357" type="qcurve"/>
      <point x="717" y="389"/>
      <point x="773" y="389" type="qcurve" smooth="yes"/>
      <point x="848" y="389"/>
      <point x="944" y="278"/>
      <point x="944" y="178" type="qcurve" smooth="yes"/>
      <point x="944" y="122"/>
      <point x="897" y="17"/>
      <point x="804" y="-51"/>
      <point x="647" y="-51"/>
      <point x="549" y="55"/>
      <point x="549" y="217"/>
      <point x="592" y="293" type="qcurve" smooth="yes"/>
      <point x="613" y="330"/>
      <point x="642" y="356" type="qcurve" smooth="yes"/>
      <point x="650" y="362"/>
      <point x="665" y="362"/>
    </contour>
    <contour>
      <point x="401" y="486" type="qcurve" smooth="yes"/>
      <point x="419" y="505"/>
      <point x="442" y="505"/>
      <point x="442" y="482"/>
      <point x="416" y="434"/>
      <point x="390" y="407" type="qcurve" smooth="yes"/>
      <point x="327" y="342"/>
      <point x="234" y="342" type="qcurve" smooth="yes"/>
      <point x="188" y="342"/>
      <point x="110" y="385"/>
      <point x="63" y="469"/>
      <point x="63" y="525" type="qcurve" smooth="yes"/>
      <point x="63" y="631"/>
      <point x="202" y="783"/>
      <point x="287" y="783" type="qcurve" smooth="yes"/>
      <point x="330" y="783"/>
      <point x="386" y="753"/>
      <point x="415" y="716"/>
      <point x="415" y="690"/>
      <point x="390" y="664"/>
      <point x="369" y="664"/>
      <point x="365" y="672" type="qcurve" smooth="yes"/>
      <point x="352" y="696"/>
      <point x="321" y="725"/>
      <point x="250" y="725"/>
      <point x="175" y="672"/>
      <point x="126" y="585"/>
      <point x="126" y="488"/>
      <point x="142" y="458" type="qcurve" smooth="yes"/>
      <point x="175" y="401"/>
      <point x="318" y="401"/>
    </contour>
    <contour>
      <point x="181" y="7" type="line" smooth="yes"/>
      <point x="142" y="-32"/>
      <point x="99" y="-84" type="qcurve" smooth="yes"/>
      <point x="92" y="-91"/>
      <point x="72" y="-91"/>
      <point x="53" y="-59"/>
      <point x="53" y="-33"/>
      <point x="59" y="-27" type="qcurve" smooth="yes"/>
      <point x="94" y="1"/>
      <point x="141" y="48" type="qcurve" smooth="yes"/>
      <point x="832" y="743" type="line" smooth="yes"/>
      <point x="892" y="806"/>
      <point x="914" y="834" type="qcurve" smooth="yes"/>
      <point x="921" y="842"/>
      <point x="940" y="842"/>
      <point x="960" y="810"/>
      <point x="960" y="784"/>
      <point x="954" y="778" type="qcurve" smooth="yes"/>
      <point x="936" y="761"/>
      <point x="892" y="723"/>
      <point x="872" y="702" type="qcurve" smooth="yes"/>
    </contour>
  </outline>
</glyph>
<glyph name="uni2116" format="1">
  <advance width="1000" height="1000"/>
  <unicode hex="2116"/>
  <outline>
    <contour>
      <point x="967" y="-9"/>
      <point x="924" y="-9"/>
      <point x="890" y="32"/>
      <point x="890" y="75"/>
      <point x="914" y="101"/>
      <point x="956" y="101"/>
      <point x="991" y="60"/>
      <point x="991" y="16"/>
    </contour>
    <contour>
      <point x="687" y="43" type="qcurve" smooth="yes"/>
      <point x="733" y="43"/>
      <point x="803" y="96"/>
      <point x="844" y="188"/>
      <point x="844" y="328"/>
      <point x="788" y="426"/>
      <point x="675" y="426"/>
      <point x="600" y="360"/>
      <point x="558" y="260"/>
      <point x="558" y="208" type="qcurve" smooth="yes"/>
      <point x="558" y="126"/>
      <point x="620" y="43"/>
    </contour>
    <contour>
      <point x="629" y="445" type="qcurve"/>
      <point x="649" y="460"/>
      <point x="690" y="486"/>
      <point x="732" y="486" type="qcurve" smooth="yes"/>
      <point x="818" y="486"/>
      <point x="911" y="358"/>
      <point x="911" y="140"/>
      <point x="858" y="66" type="qcurve" smooth="yes"/>
      <point x="798" y="-18"/>
      <point x="587" y="-18"/>
      <point x="491" y="103"/>
      <point x="491" y="207" type="qcurve" smooth="yes"/>
      <point x="491" y="287"/>
      <point x="540" y="374" type="qcurve" smooth="yes"/>
      <point x="561" y="410"/>
      <point x="601" y="454"/>
      <point x="622" y="454"/>
    </contour>
    <contour>
      <point x="76" y="708"/>
      <point x="109" y="706"/>
      <point x="118" y="690"/>
      <point x="146" y="628" type="qcurve" smooth="yes"/>
      <point x="259" y="369"/>
      <point x="394" y="114" type="qcurve"/>
      <point x="394" y="589" type="line"/>
      <point x="391" y="695" type="line" smooth="yes"/>
      <point x="391" y="706"/>
      <point x="426" y="706"/>
      <point x="460" y="690"/>
      <point x="460" y="677" type="qcurve" smooth="yes"/>
      <point x="458" y="588" type="line"/>
      <point x="458" y="88" type="line"/>
      <point x="463" y="33" type="line" smooth="yes"/>
      <point x="463" y="18"/>
      <point x="420" y="-11"/>
      <point x="389" y="-11"/>
      <point x="366" y="25"/>
      <point x="241" y="258"/>
      <point x="102" y="566" type="qcurve"/>
      <point x="102" y="105" type="line"/>
      <point x="105" y="-1" type="line" smooth="yes"/>
      <point x="105" y="-12"/>
      <point x="70" y="-12"/>
      <point x="36" y="4"/>
      <point x="36" y="17" type="qcurve" smooth="yes"/>
      <point x="38" y="106" type="line"/>
      <point x="38" y="641" type="line"/>
      <point x="32" y="676" type="line"/>
      <point x="32" y="680" type="line" smooth="yes"/>
      <point x="34" y="691"/>
    </contour>
  </outline>
</glyph>
<glyph name="uni212B" format="1">
  <advance width="1000" height="1000"/>
  <unicode hex="212B"/>
  <outline>
    <contour>
      <point x="631" y="236" type="line"/>
      <point x="546" y="433"/>
      <point x="505" y="541" type="qcurve"/>
      <point x="422" y="356"/>
      <point x="359" y="225" type="qcurve"/>
    </contour>
    <contour>
      <point x="551" y="620" type="qcurve"/>
      <point x="548" y="600" type="line" smooth="yes"/>
      <point x="548" y="587"/>
      <point x="602" y="460" type="qcurve" smooth="yes"/>
      <point x="767" y="65"/>
      <point x="829" y="-24" type="qcurve" smooth="yes"/>
      <point x="840" y="-40"/>
      <point x="840" y="-44" type="qcurve" smooth="yes"/>
      <point x="840" y="-56"/>
      <point x="804" y="-69"/>
      <point x="760" y="-69"/>
      <point x="756" y="-57" type="qcurve" smooth="yes"/>
      <point x="737" y="-1"/>
      <point x="714" y="49" type="qcurve" smooth="yes"/>
      <point x="656" y="179" type="line"/>
      <point x="333" y="165" type="line"/>
      <point x="329" y="165" type="line"/>
      <point x="313" y="131"/>
      <point x="297" y="99" type="qcurve" smooth="yes"/>
      <point x="267" y="39" type="line" smooth="yes"/>
      <point x="248" y="1"/>
      <point x="230" y="-50" type="qcurve" smooth="yes"/>
      <point x="224" y="-67"/>
      <point x="148" y="-67"/>
      <point x="148" y="-48" type="qcurve" smooth="yes"/>
      <point x="148" y="-42"/>
      <point x="156" y="-31"/>
      <point x="164" y="-16"/>
      <point x="183" y="20"/>
      <point x="222" y="93"/>
      <point x="255" y="158" type="qcurve"/>
      <point x="248" y="158" type="line" smooth="yes"/>
      <point x="236" y="158"/>
      <point x="216" y="195"/>
      <point x="216" y="225"/>
      <point x="227" y="225" type="qcurve" smooth="yes"/>
      <point x="229" y="225" type="line" smooth="yes"/>
      <point x="247" y="223"/>
      <point x="268" y="223" type="qcurve" smooth="yes"/>
      <point x="287" y="223" type="line"/>
      <point x="422" y="493"/>
      <point x="461" y="593" type="qcurve" smooth="yes"/>
      <point x="465" y="602"/>
      <point x="469" y="639"/>
      <point x="479" y="651"/>
      <point x="510" y="651"/>
      <point x="548" y="633"/>
    </contour>
    <contour>
      <point x="549" y="727"/>
      <point x="549" y="766"/>
      <point x="523" y="792"/>
      <point x="484" y="792"/>
      <point x="457" y="766"/>
      <point x="457" y="727"/>
      <point x="484" y="700"/>
      <point x="523" y="700"/>
    </contour>
    <contour>
      <point x="591" y="710"/>
      <point x="539" y="658"/>
      <point x="467" y="658"/>
      <point x="415" y="710"/>
      <point x="415" y="782"/>
      <point x="467" y="834"/>
      <point x="539" y="834"/>
      <point x="591" y="782"/>
    </contour>
  </outline>
</glyph>
<glyph name="uni2152" format="1">
  <advance width="1000" height="1000"/>
  <unicode hex="2152"/>
  <outline>
    <contour>
      <point x="926" y="150" type="qcurve" smooth="yes"/>
      <point x="926" y="330"/>
      <point x="847" y="330" type="qcurve" smooth="yes"/>
      <point x="827" y="330"/>
      <point x="806" y="309" type="qcurve" smooth="yes"/>
      <point x="759" y="260"/>
      <point x="759" y="156" type="qcurve" smooth="yes"/>
      <point x="759" y="-6"/>
      <point x="838" y="-6" type="qcurve" smooth="yes"/>
      <point x="881" y="-6"/>
      <point x="926" y="88"/>
    </contour>
    <contour>
      <point x="655" y="50" type="line" smooth="yes"/>
      <point x="655" y="4"/>
      <point x="657" y="-40" type="qcurve" smooth="yes"/>
      <point x="657" y="-41" type="line" smooth="yes"/>
      <point x="657" y="-56"/>
      <point x="625" y="-56"/>
      <point x="598" y="-39"/>
      <point x="598" y="-26" type="qcurve" smooth="yes"/>
      <point x="598" y="-25" type="line"/>
      <point x="600" y="45" type="line"/>
      <point x="600" y="296" type="line"/>
      <point x="565" y="272"/>
      <point x="531" y="272"/>
      <point x="509" y="289"/>
      <point x="509" y="304"/>
      <point x="518" y="308" type="qcurve" smooth="yes"/>
      <point x="545" y="318"/>
      <point x="590" y="355" type="qcurve" smooth="yes"/>
      <point x="595" y="360"/>
      <point x="616" y="386"/>
      <point x="635" y="386"/>
      <point x="659" y="365"/>
      <point x="659" y="352" type="qcurve" smooth="yes"/>
      <point x="655" y="295" type="line"/>
    </contour>
    <contour>
      <point x="777" y="349" type="qcurve"/>
      <point x="808" y="388"/>
      <point x="849" y="388" type="qcurve" smooth="yes"/>
      <point x="915" y="388"/>
      <point x="980" y="265"/>
      <point x="980" y="164" type="qcurve" smooth="yes"/>
      <point x="980" y="25"/>
      <point x="920" y="-35" type="qcurve" smooth="yes"/>
      <point x="889" y="-65"/>
      <point x="793" y="-65"/>
      <point x="763" y="-36" type="qcurve" smooth="yes"/>
      <point x="705" y="20"/>
      <point x="705" y="154" type="qcurve" smooth="yes"/>
      <point x="705" y="250"/>
      <point x="739" y="323" type="qcurve" smooth="yes"/>
      <point x="753" y="353"/>
      <point x="765" y="353" type="qcurve" smooth="yes"/>
      <point x="771" y="353"/>
    </contour>
    <contour>
      <point x="273" y="357" type="line" smooth="yes"/>
      <point x="273" y="342"/>
      <point x="249" y="342" type="qcurve" smooth="yes"/>
      <point x="238" y="342"/>
      <point x="209" y="359"/>
      <point x="209" y="372" type="qcurve" smooth="yes"/>
      <point x="209" y="373" type="line"/>
      <point x="211" y="443" type="line"/>
      <point x="211" y="694" type="line"/>
      <point x="171" y="670"/>
      <point x="136" y="670"/>
      <point x="112" y="687"/>
      <point x="112" y="702"/>
      <point x="122" y="706" type="qcurve" smooth="yes"/>
      <point x="149" y="716"/>
      <point x="206" y="758"/>
      <point x="228" y="784"/>
      <point x="249" y="784"/>
      <point x="275" y="763"/>
      <point x="275" y="750" type="qcurve" smooth="yes"/>
      <point x="271" y="693" type="line"/>
      <point x="271" y="448" type="line" smooth="yes"/>
      <point x="271" y="402"/>
      <point x="273" y="358" type="qcurve" smooth="yes"/>
    </contour>
    <contour>
      <point x="150" y="10" type="line" smooth="yes"/>
      <point x="111" y="-29"/>
      <point x="68" y="-81" type="qcurve" smooth="yes"/>
      <point x="62" y="-87"/>
      <point x="44" y="-87"/>
      <point x="24" y="-53"/>
      <point x="24" y="-29"/>
      <point x="29" y="-25" type="qcurve" smooth="yes"/>
      <point x="64" y="3"/>
      <point x="111" y="50" type="qcurve" smooth="yes"/>
      <point x="802" y="745" type="line" smooth="yes"/>
      <point x="862" y="808"/>
      <point x="884" y="836" type="qcurve" smooth="yes"/>
      <point x="890" y="843"/>
      <point x="908" y="843"/>
      <point x="928" y="809"/>
      <point x="928" y="785"/>
      <point x="923" y="781" type="qcurve" smooth="yes"/>
      <point x="905" y="764"/>
      <point x="861" y="725"/>
      <point x="841" y="705" type="qcurve" smooth="yes"/>
    </contour>
  </outline>
</glyph>
<glyph name="uni2157" format="1">
  <advance width="1000" height="1000"/>
  <unicode hex="2157"/>
  <outline>
    <contour>
      <point x="861" y="86" type="qcurve" smooth="yes"/>
      <point x="861" y="169"/>
      <point x="768" y="169" type="qcurve" smooth="yes"/>
      <point x="745" y="169"/>
      <point x="685" y="155"/>
      <point x="665" y="130"/>
      <point x="647" y="130"/>
      <point x="619" y="149"/>
      <point x="619" y="169"/>
      <point x="620" y="172" type="qcurve" smooth="yes"/>
      <point x="625" y="192" type="line"/>
      <point x="647" y="335" type="line" smooth="yes"/>
      <point x="649" y="345"/>
      <point x="649" y="353" type="qcurve" smooth="yes"/>
      <point x="649" y="368" type="line" smooth="yes"/>
      <point x="649" y="379"/>
      <point x="684" y="379"/>
      <point x="707" y="369" type="qcurve"/>
      <point x="824" y="376" type="line" smooth="yes"/>
      <point x="835" y="377"/>
      <point x="863" y="381"/>
      <point x="872" y="382" type="qcurve" smooth="yes"/>
      <point x="874" y="382" type="line" smooth="yes"/>
      <point x="885" y="382"/>
      <point x="900" y="354"/>
      <point x="900" y="324"/>
      <point x="879" y="324"/>
      <point x="845" y="321"/>
      <point x="831" y="320" type="qcurve" smooth="yes"/>
      <point x="705" y="313" type="line"/>
      <point x="688" y="207" type="line"/>
      <point x="726" y="226"/>
      <point x="842" y="226"/>
      <point x="922" y="154"/>
      <point x="922" y="86" type="qcurve" smooth="yes"/>
      <point x="922" y="47"/>
      <point x="903" y="12" type="qcurve" smooth="yes"/>
      <point x="860" y="-65"/>
      <point x="751" y="-65" type="qcurve" smooth="yes"/>
      <point x="711" y="-65"/>
      <point x="643" y="-39"/>
      <point x="603" y="-5"/>
      <point x="603" y="21"/>
      <point x="625" y="49"/>
      <point x="643" y="49"/>
      <point x="647" y="43" type="qcurve" smooth="yes"/>
      <point x="661" y="23"/>
      <point x="716" y="-7"/>
      <point x="748" y="-7" type="qcurve" smooth="yes"/>
      <point x="806" y="-7"/>
      <point x="861" y="49"/>
    </contour>
    <contour>
      <point x="252" y="547" type="qcurve" smooth="yes"/>
      <point x="240" y="547"/>
      <point x="200" y="539" type="qcurve" smooth="yes"/>
      <point x="187" y="539"/>
      <point x="170" y="566"/>
      <point x="170" y="597"/>
      <point x="185" y="598" type="qcurve" smooth="yes"/>
      <point x="264" y="607"/>
      <point x="302" y="640" type="qcurve" smooth="yes"/>
      <point x="320" y="656"/>
      <point x="320" y="701"/>
      <point x="278" y="726"/>
      <point x="250" y="726" type="qcurve" smooth="yes"/>
      <point x="188" y="726"/>
      <point x="156" y="685" type="qcurve" smooth="yes"/>
      <point x="144" y="670"/>
      <point x="120" y="670"/>
      <point x="100" y="696"/>
      <point x="100" y="727"/>
      <point x="144" y="760"/>
      <point x="211" y="784"/>
      <point x="245" y="784" type="qcurve" smooth="yes"/>
      <point x="306" y="784"/>
      <point x="381" y="728"/>
      <point x="381" y="644"/>
      <point x="337" y="595"/>
      <point x="308" y="585" type="qcurve"/>
      <point x="350" y="579"/>
      <point x="400" y="521"/>
      <point x="400" y="435"/>
      <point x="358" y="370"/>
      <point x="281" y="331"/>
      <point x="182" y="331"/>
      <point x="115" y="354"/>
      <point x="78" y="385"/>
      <point x="78" y="410"/>
      <point x="101" y="438"/>
      <point x="121" y="438"/>
      <point x="129" y="430" type="qcurve" smooth="yes"/>
      <point x="161" y="389"/>
      <point x="227" y="389" type="qcurve" smooth="yes"/>
      <point x="273" y="389"/>
      <point x="339" y="438"/>
      <point x="339" y="507"/>
      <point x="290" y="547"/>
    </contour>
    <contour>
      <point x="180" y="10" type="line" smooth="yes"/>
      <point x="141" y="-29"/>
      <point x="98" y="-81" type="qcurve" smooth="yes"/>
      <point x="92" y="-87"/>
      <point x="74" y="-87"/>
      <point x="54" y="-53"/>
      <point x="54" y="-29"/>
      <point x="59" y="-25" type="qcurve" smooth="yes"/>
      <point x="94" y="3"/>
      <point x="141" y="50" type="qcurve" smooth="yes"/>
      <point x="832" y="745" type="line" smooth="yes"/>
      <point x="892" y="808"/>
      <point x="914" y="836" type="qcurve" smooth="yes"/>
      <point x="920" y="843"/>
      <point x="938" y="843"/>
      <point x="958" y="809"/>
      <point x="958" y="785"/>
      <point x="953" y="781" type="qcurve" smooth="yes"/>
      <point x="935" y="764"/>
      <point x="891" y="725"/>
      <point x="871" y="705" type="qcurve" smooth="yes"/>
    </contour>
  </outline>
</glyph>
<glyph name="uni215A" format="1">
  <advance width="1000" height="1000"/>
  <unicode hex="215A"/>
  <outline>
    <contour>
      <point x="863" y="38"/>
      <point x="863" y="113"/>
      <point x="814" y="164"/>
      <point x="720" y="164"/>
      <point x="660" y="111"/>
      <point x="660" y="40"/>
      <point x="707" y="-7"/>
      <point x="809" y="-7"/>
    </contour>
    <contour>
      <point x="701" y="205" type="qcurve"/>
      <point x="734" y="220"/>
      <point x="773" y="220" type="qcurve" smooth="yes"/>
      <point x="839" y="220"/>
      <point x="923" y="145"/>
      <point x="923" y="18"/>
      <point x="839" y="-65"/>
      <point x="758" y="-65" type="qcurve" smooth="yes"/>
      <point x="709" y="-65"/>
      <point x="638" y="-26"/>
      <point x="600" y="36"/>
      <point x="600" y="72" type="qcurve" smooth="yes"/>
      <point x="600" y="146"/>
      <point x="684" y="285"/>
      <point x="749" y="364" type="qcurve" smooth="yes"/>
      <point x="751" y="366"/>
      <point x="754" y="373"/>
      <point x="764" y="385"/>
      <point x="808" y="385"/>
      <point x="823" y="368"/>
      <point x="823" y="356"/>
      <point x="800" y="334"/>
      <point x="729" y="250"/>
    </contour>
    <contour>
      <point x="338" y="482" type="qcurve" smooth="yes"/>
      <point x="338" y="565"/>
      <point x="245" y="565" type="qcurve" smooth="yes"/>
      <point x="222" y="565"/>
      <point x="162" y="551"/>
      <point x="142" y="526"/>
      <point x="124" y="526"/>
      <point x="96" y="545"/>
      <point x="96" y="565"/>
      <point x="97" y="568" type="qcurve" smooth="yes"/>
      <point x="102" y="588" type="line"/>
      <point x="124" y="731" type="line" smooth="yes"/>
      <point x="126" y="741"/>
      <point x="126" y="749" type="qcurve" smooth="yes"/>
      <point x="126" y="764" type="line" smooth="yes"/>
      <point x="126" y="775"/>
      <point x="161" y="775"/>
      <point x="184" y="765" type="qcurve"/>
      <point x="301" y="772" type="line" smooth="yes"/>
      <point x="312" y="773"/>
      <point x="340" y="777"/>
      <point x="349" y="778" type="qcurve" smooth="yes"/>
      <point x="351" y="778" type="line" smooth="yes"/>
      <point x="362" y="778"/>
      <point x="377" y="750"/>
      <point x="377" y="720"/>
      <point x="356" y="720"/>
      <point x="322" y="717"/>
      <point x="308" y="716" type="qcurve" smooth="yes"/>
      <point x="182" y="709" type="line"/>
      <point x="165" y="603" type="line"/>
      <point x="203" y="622"/>
      <point x="319" y="622"/>
      <point x="399" y="550"/>
      <point x="399" y="482" type="qcurve" smooth="yes"/>
      <point x="399" y="443"/>
      <point x="380" y="408" type="qcurve" smooth="yes"/>
      <point x="337" y="331"/>
      <point x="228" y="331" type="qcurve" smooth="yes"/>
      <point x="188" y="331"/>
      <point x="120" y="357"/>
      <point x="80" y="391"/>
      <point x="80" y="417"/>
      <point x="102" y="445"/>
      <point x="120" y="445"/>
      <point x="124" y="439" type="qcurve" smooth="yes"/>
      <point x="138" y="419"/>
      <point x="193" y="389"/>
      <point x="225" y="389" type="qcurve" smooth="yes"/>
      <point x="283" y="389"/>
      <point x="338" y="445"/>
    </contour>
    <contour>
      <point x="180" y="10" type="line" smooth="yes"/>
      <point x="141" y="-29"/>
      <point x="98" y="-81" type="qcurve" smooth="yes"/>
      <point x="92" y="-87"/>
      <point x="74" y="-87"/>
      <point x="54" y="-53"/>
      <point x="54" y="-29"/>
      <point x="59" y="-25" type="qcurve" smooth="yes"/>
      <point x="94" y="3"/>
      <point x="141" y="50" type="qcurve" smooth="yes"/>
      <point x="832" y="745" type="line" smooth="yes"/>
      <point x="892" y="808"/>
      <point x="914" y="836" type="qcurve" smooth="yes"/>
      <point x="920" y="843"/>
      <point x="938" y="843"/>
      <point x="958" y="809"/>
      <point x="958" y="785"/>
      <point x="953" y="781" type="qcurve" smooth="yes"/>
      <point x="935" y="764"/>
      <point x="891" y="725"/>
      <point x="871" y="705" type="qcurve" smooth="yes"/>
    </contour>
  </outline>
</glyph>
<glyph name="fiveeighths" format="1">
  <advance width="1000" height="1000"/>
  <unicode hex="215D"/>
  <outline>
    <contour>
      <point x="749" y="158" type="qcurve"/>
      <point x="709" y="130"/>
      <point x="660" y="86"/>
      <point x="660" y="35"/>
      <point x="703" y="-10"/>
      <point x="805" y="-10"/>
      <point x="863" y="31"/>
      <point x="863" y="97"/>
      <point x="800" y="136"/>
    </contour>
    <contour>
      <point x="846" y="291" type="line"/>
      <point x="823" y="333"/>
      <point x="760" y="333" type="qcurve" smooth="yes"/>
      <point x="728" y="333"/>
      <point x="679" y="306"/>
      <point x="679" y="262"/>
      <point x="721" y="231"/>
      <point x="749" y="218" type="qcurve"/>
      <point x="806" y="254"/>
      <point x="851" y="286" type="qcurve"/>
    </contour>
    <contour>
      <point x="801" y="194" type="qcurve"/>
      <point x="855" y="170"/>
      <point x="921" y="114"/>
      <point x="921" y="6"/>
      <point x="836" y="-65"/>
      <point x="683" y="-65"/>
      <point x="601" y="3"/>
      <point x="601" y="108"/>
      <point x="652" y="151" type="qcurve" smooth="yes"/>
      <point x="675" y="170"/>
      <point x="698" y="185" type="qcurve"/>
      <point x="658" y="207"/>
      <point x="621" y="253"/>
      <point x="621" y="324"/>
      <point x="696" y="388"/>
      <point x="752" y="388" type="qcurve" smooth="yes"/>
      <point x="847" y="388"/>
      <point x="891" y="327" type="qcurve" smooth="yes"/>
      <point x="894" y="324"/>
      <point x="894" y="321" type="qcurve"/>
      <point x="896" y="323"/>
      <point x="899" y="323" type="qcurve" smooth="yes"/>
      <point x="904" y="323" type="line" smooth="yes"/>
      <point x="920" y="323"/>
      <point x="920" y="308" type="qcurve" smooth="yes"/>
      <point x="920" y="298"/>
      <point x="863" y="238"/>
    </contour>
    <contour>
      <point x="338" y="482" type="qcurve" smooth="yes"/>
      <point x="338" y="565"/>
      <point x="245" y="565" type="qcurve" smooth="yes"/>
      <point x="222" y="565"/>
      <point x="162" y="551"/>
      <point x="142" y="526"/>
      <point x="124" y="526"/>
      <point x="96" y="545"/>
      <point x="96" y="565"/>
      <point x="97" y="568" type="qcurve" smooth="yes"/>
      <point x="102" y="588" type="line"/>
      <point x="124" y="731" type="line" smooth="yes"/>
      <point x="126" y="741"/>
      <point x="126" y="749" type="qcurve" smooth="yes"/>
      <point x="126" y="764" type="line" smooth="yes"/>
      <point x="126" y="775"/>
      <point x="161" y="775"/>
      <point x="184" y="765" type="qcurve"/>
      <point x="301" y="772" type="line" smooth="yes"/>
      <point x="312" y="773"/>
      <point x="340" y="777"/>
      <point x="349" y="778" type="qcurve" smooth="yes"/>
      <point x="351" y="778" type="line" smooth="yes"/>
      <point x="362" y="778"/>
      <point x="377" y="750"/>
      <point x="377" y="720"/>
      <point x="356" y="720"/>
      <point x="322" y="717"/>
      <point x="308" y="716" type="qcurve" smooth="yes"/>
      <point x="182" y="709" type="line"/>
      <point x="165" y="603" type="line"/>
      <point x="203" y="622"/>
      <point x="319" y="622"/>
      <point x="399" y="550"/>
      <point x="399" y="482" type="qcurve" smooth="yes"/>
      <point x="399" y="443"/>
      <point x="380" y="408" type="qcurve" smooth="yes"/>
      <point x="337" y="331"/>
      <point x="228" y="331" type="qcurve" smooth="yes"/>
      <point x="188" y="331"/>
      <point x="120" y="357"/>
      <point x="80" y="391"/>
      <point x="80" y="417"/>
      <point x="102" y="445"/>
      <point x="120" y="445"/>
      <point x="124" y="439" type="qcurve" smooth="yes"/>
      <point x="138" y="419"/>
      <point x="193" y="389"/>
      <point x="225" y="389" type="qcurve" smooth="yes"/>
      <point x="283" y="389"/>
      <point x="338" y="445"/>
    </contour>
    <contour>
      <point x="180" y="10" type="line" smooth="yes"/>
      <point x="141" y="-29"/>
      <point x="98" y="-81" type="qcurve" smooth="yes"/>
      <point x="92" y="-87"/>
      <point x="74" y="-87"/>
      <point x="54" y="-53"/>
      <point x="54" y="-29"/>
      <point x="59" y="-25" type="qcurve" smooth="yes"/>
      <point x="94" y="3"/>
      <point x="141" y="50" type="qcurve" smooth="yes"/>
      <point x="832" y="745" type="line" smooth="yes"/>
      <point x="892" y="808"/>
      <point x="914" y="836" type="qcurve" smooth="yes"/>
      <point x="920" y="843"/>
      <point x="938" y="843"/>
      <point x="958" y="809"/>
      <point x="958" y="785"/>
      <point x="953" y="781" type="qcurve" smooth="yes"/>
      <point x="935" y="764"/>
      <point x="891" y="725"/>
      <point x="871" y="705" type="qcurve" smooth="yes"/>
    </contour>
  </outline>
</glyph>
<glyph name="uni215F" format="1">
  <advance width="1000" height="1000"/>
  <unicode hex="215F"/>
  <outline>
    <contour>
      <point x="283" y="357" type="line" smooth="yes"/>
      <point x="283" y="342"/>
      <point x="259" y="342" type="qcurve" smooth="yes"/>
      <point x="248" y="342"/>
      <point x="219" y="359"/>
      <point x="219" y="372" type="qcurve" smooth="yes"/>
      <point x="219" y="373" type="line"/>
      <point x="221" y="443" type="line"/>
      <point x="221" y="694" type="line"/>
      <point x="181" y="670"/>
      <point x="146" y="670"/>
      <point x="122" y="687"/>
      <point x="122" y="702"/>
      <point x="132" y="706" type="qcurve" smooth="yes"/>
      <point x="159" y="716"/>
      <point x="216" y="758"/>
      <point x="238" y="784"/>
      <point x="259" y="784"/>
      <point x="285" y="763"/>
      <point x="285" y="750" type="qcurve" smooth="yes"/>
      <point x="281" y="693" type="line"/>
      <point x="281" y="448" type="line" smooth="yes"/>
      <point x="281" y="402"/>
      <point x="283" y="358" type="qcurve" smooth="yes"/>
    </contour>
    <contour>
      <point x="180" y="10" type="line" smooth="yes"/>
      <point x="141" y="-29"/>
      <point x="98" y="-81" type="qcurve" smooth="yes"/>
      <point x="92" y="-87"/>
      <point x="74" y="-87"/>
      <point x="54" y="-53"/>
      <point x="54" y="-29"/>
      <point x="59" y="-25" type="qcurve" smooth="yes"/>
      <point x="94" y="3"/>
      <point x="141" y="50" type="qcurve" smooth="yes"/>
      <point x="832" y="745" type="line" smooth="yes"/>
      <point x="892" y="808"/>
      <point x="914" y="836" type="qcurve" smooth="yes"/>
      <point x="920" y="843"/>
      <point x="938" y="843"/>
      <point x="958" y="809"/>
      <point x="958" y="785"/>
      <point x="953" y="781" type="qcurve" smooth="yes"/>
      <point x="935" y="764"/>
      <point x="891" y="725"/>
      <point x="871" y="705" type="qcurve" smooth="yes"/>
    </contour>
  </outline>
</glyph>
<glyph name="uni2162" format="1">
  <advance width="1000" height="1000"/>
  <unicode hex="2162"/>
  <outline>
    <contour>
      <point x="240" y="18" type="qcurve" smooth="yes"/>
      <point x="242" y="107" type="line"/>
      <point x="242" y="589" type="line"/>
      <point x="239" y="695" type="line" smooth="yes"/>
      <point x="239" y="705"/>
      <point x="277" y="705"/>
      <point x="316" y="690"/>
      <point x="316" y="677" type="qcurve" smooth="yes"/>
      <point x="314" y="588" type="line"/>
      <point x="314" y="106" type="line"/>
      <point x="317" y="0" type="line" smooth="yes"/>
      <point x="317" y="-10"/>
      <point x="279" y="-10"/>
      <point x="240" y="5"/>
    </contour>
    <contour>
      <point x="463" y="18" type="qcurve" smooth="yes"/>
      <point x="465" y="107" type="line"/>
      <point x="465" y="589" type="line"/>
      <point x="462" y="695" type="line" smooth="yes"/>
      <point x="462" y="705"/>
      <point x="500" y="705"/>
      <point x="539" y="690"/>
      <point x="539" y="677" type="qcurve" smooth="yes"/>
      <point x="537" y="588" type="line"/>
      <point x="537" y="106" type="line"/>
      <point x="540" y="0" type="line" smooth="yes"/>
      <point x="540" y="-10"/>
      <point x="502" y="-10"/>
      <point x="463" y="5"/>
    </contour>
    <contour>
      <point x="685" y="18" type="qcurve" smooth="yes"/>
      <point x="687" y="107" type="line"/>
      <point x="687" y="589" type="line"/>
      <point x="684" y="695" type="line" smooth="yes"/>
      <point x="684" y="705"/>
      <point x="722" y="705"/>
      <point x="761" y="690"/>
      <point x="761" y="677" type="qcurve" smooth="yes"/>
      <point x="759" y="588" type="line"/>
      <point x="759" y="106" type="line"/>
      <point x="762" y="0" type="line" smooth="yes"/>
      <point x="762" y="-10"/>
      <point x="724" y="-10"/>
      <point x="685" y="5"/>
    </contour>
  </outline>
</glyph>
<glyph name="uni2164" format="1">
  <advance width="1000" height="1000"/>
  <unicode hex="2164"/>
  <outline>
    <contour>
      <point x="203" y="688" type="qcurve" smooth="yes"/>
      <point x="203" y="704"/>
      <point x="240" y="704" type="qcurve" smooth="yes"/>
      <point x="256" y="704"/>
      <point x="286" y="694"/>
      <point x="288" y="684" type="qcurve" smooth="yes"/>
      <point x="294" y="661"/>
      <point x="385" y="431"/>
      <point x="496" y="99" type="qcurve"/>
      <point x="624" y="440"/>
      <point x="716" y="666"/>
      <point x="725" y="700" type="qcurve" smooth="yes"/>
      <point x="728" y="711"/>
      <point x="761" y="711"/>
      <point x="801" y="687"/>
      <point x="801" y="673" type="qcurve" smooth="yes"/>
      <point x="801" y="668"/>
      <point x="777" y="628"/>
      <point x="765" y="600" type="qcurve" smooth="yes"/>
      <point x="565" y="127"/>
      <point x="542" y="35" type="qcurve" smooth="yes"/>
      <point x="538" y="17"/>
      <point x="536" y="6" type="qcurve" smooth="yes"/>
      <point x="533" y="-17"/>
      <point x="510" y="-17" type="qcurve" smooth="yes"/>
      <point x="494" y="-17"/>
      <point x="458" y="14"/>
      <point x="428" y="103"/>
      <point x="402" y="176" type="qcurve" smooth="yes"/>
      <point x="259" y="573"/>
      <point x="204" y="684" type="qcurve" smooth="yes"/>
      <point x="203" y="686"/>
    </contour>
  </outline>
</glyph>
<glyph name="uni2168" format="1">
  <advance width="1000" height="1000"/>
  <unicode hex="2168"/>
  <outline>
    <contour>
      <point x="217" y="18" type="qcurve" smooth="yes"/>
      <point x="219" y="107" type="line"/>
      <point x="219" y="589" type="line"/>
      <point x="216" y="695" type="line" smooth="yes"/>
      <point x="216" y="705"/>
      <point x="254" y="705"/>
      <point x="293" y="690"/>
      <point x="293" y="677" type="qcurve" smooth="yes"/>
      <point x="291" y="588" type="line"/>
      <point x="291" y="106" type="line"/>
      <point x="294" y="0" type="line" smooth="yes"/>
      <point x="294" y="-10"/>
      <point x="256" y="-10"/>
      <point x="217" y="5"/>
    </contour>
    <contour>
      <point x="626" y="304" type="line"/>
      <point x="492" y="85" type="line" smooth="yes"/>
      <point x="480" y="65"/>
      <point x="447" y="0" type="qcurve" smooth="yes"/>
      <point x="443" y="-10"/>
      <point x="403" y="-10"/>
      <point x="366" y="6"/>
      <point x="366" y="17" type="qcurve" smooth="yes"/>
      <point x="366" y="21"/>
      <point x="414" y="83"/>
      <point x="435" y="120" type="qcurve" smooth="yes"/>
      <point x="588" y="370" type="line"/>
      <point x="457" y="591" type="line" smooth="yes"/>
      <point x="431" y="641"/>
      <point x="408" y="671" type="qcurve" smooth="yes"/>
      <point x="405" y="676"/>
      <point x="405" y="679" type="qcurve" smooth="yes"/>
      <point x="405" y="690"/>
      <point x="444" y="707"/>
      <point x="477" y="707"/>
      <point x="480" y="699" type="qcurve" smooth="yes"/>
      <point x="505" y="641"/>
      <point x="516" y="623" type="qcurve" smooth="yes"/>
      <point x="627" y="435" type="line"/>
      <point x="741" y="621" type="line" smooth="yes"/>
      <point x="753" y="640"/>
      <point x="778" y="694" type="qcurve" smooth="yes"/>
      <point x="782" y="704"/>
      <point x="810" y="704"/>
      <point x="850" y="681"/>
      <point x="850" y="669" type="qcurve" smooth="yes"/>
      <point x="850" y="667"/>
      <point x="836" y="647"/>
      <point x="812" y="606"/>
      <point x="801" y="589" type="qcurve" smooth="yes"/>
      <point x="666" y="369" type="line"/>
      <point x="813" y="120" type="line" smooth="yes"/>
      <point x="844" y="66"/>
      <point x="875" y="25" type="qcurve" smooth="yes"/>
      <point x="877" y="21"/>
      <point x="877" y="20" type="qcurve" smooth="yes"/>
      <point x="877" y="10"/>
      <point x="837" y="-10"/>
      <point x="802" y="-10"/>
      <point x="796" y="0" type="qcurve" smooth="yes"/>
      <point x="770" y="61"/>
      <point x="756" y="85" type="qcurve" smooth="yes"/>
    </contour>
  </outline>
</glyph>
<glyph name="uni2175" format="1">
  <advance width="1000" height="1000"/>
  <unicode hex="2175"/>
  <outline>
    <contour>
      <point x="700" y="17" type="qcurve" smooth="yes"/>
      <point x="702" y="105" type="line"/>
      <point x="702" y="368" type="line"/>
      <point x="699" y="475" type="line" smooth="yes"/>
      <point x="699" y="484"/>
      <point x="735" y="484"/>
      <point x="773" y="469"/>
      <point x="773" y="457" type="qcurve" smooth="yes"/>
      <point x="771" y="368" type="line"/>
      <point x="771" y="105" type="line"/>
      <point x="774" y="-1" type="line" smooth="yes"/>
      <point x="774" y="-10"/>
      <point x="739" y="-10"/>
      <point x="700" y="5"/>
    </contour>
    <contour>
      <point x="194" y="463" type="qcurve" smooth="yes"/>
      <point x="194" y="481"/>
      <point x="244" y="481" type="qcurve" smooth="yes"/>
      <point x="268" y="481"/>
      <point x="275" y="456"/>
      <point x="284" y="421"/>
      <point x="290" y="405" type="qcurve" smooth="yes"/>
      <point x="403" y="90" type="line"/>
      <point x="533" y="405" type="line" smooth="yes"/>
      <point x="545" y="434"/>
      <point x="556" y="476" type="qcurve" smooth="yes"/>
      <point x="559" y="486"/>
      <point x="593" y="486"/>
      <point x="630" y="469"/>
      <point x="630" y="457" type="qcurve" smooth="yes"/>
      <point x="630" y="455"/>
      <point x="603" y="403"/>
      <point x="596" y="386" type="qcurve" smooth="yes"/>
      <point x="460" y="65" type="line" smooth="yes"/>
      <point x="451" y="44"/>
      <point x="438" y="5" type="qcurve" smooth="yes"/>
      <point x="431" y="-18"/>
      <point x="392" y="-18"/>
      <point x="376" y="1" type="qcurve" smooth="yes"/>
      <point x="368" y="9"/>
      <point x="362" y="27"/>
      <point x="354" y="46" type="qcurve" smooth="yes"/>
      <point x="226" y="389" type="line" smooth="yes"/>
      <point x="220" y="406"/>
      <point x="194" y="460"/>
    </contour>
    <contour>
      <point x="785" y="658"/>
      <point x="785" y="617"/>
      <point x="759" y="590"/>
      <point x="717" y="590"/>
      <point x="686" y="629"/>
      <point x="686" y="670"/>
      <point x="711" y="698"/>
      <point x="754" y="698"/>
    </contour>
  </outline>
</glyph>
<glyph name="uni2178" format="1">
  <advance width="1000" height="1000"/>
  <unicode hex="2178"/>
  <outline>
    <contour>
      <point x="611" y="194" type="line"/>
      <point x="510" y="56" type="line" smooth="yes"/>
      <point x="501" y="44"/>
      <point x="480" y="10"/>
      <point x="466" y="-11"/>
      <point x="429" y="-11"/>
      <point x="395" y="2"/>
      <point x="395" y="10" type="qcurve" smooth="yes"/>
      <point x="395" y="14"/>
      <point x="418" y="37"/>
      <point x="461" y="90" type="qcurve" smooth="yes"/>
      <point x="574" y="244" type="line"/>
      <point x="467" y="392" type="line" smooth="yes"/>
      <point x="446" y="420"/>
      <point x="412" y="454"/>
      <point x="412" y="456" type="qcurve" smooth="yes"/>
      <point x="412" y="464"/>
      <point x="453" y="479"/>
      <point x="484" y="479"/>
      <point x="488" y="471" type="qcurve" smooth="yes"/>
      <point x="497" y="453"/>
      <point x="518" y="424" type="qcurve" smooth="yes"/>
      <point x="612" y="295" type="line"/>
      <point x="709" y="428" type="line" smooth="yes"/>
      <point x="724" y="447"/>
      <point x="740" y="477" type="qcurve" smooth="yes"/>
      <point x="744" y="483"/>
      <point x="775" y="483"/>
      <point x="813" y="468"/>
      <point x="813" y="460" type="qcurve" smooth="yes"/>
      <point x="813" y="458"/>
      <point x="784" y="429"/>
      <point x="758" y="396" type="qcurve" smooth="yes"/>
      <point x="648" y="245" type="line"/>
      <point x="760" y="92" type="line" smooth="yes"/>
      <point x="772" y="76"/>
      <point x="825" y="17"/>
      <point x="825" y="13" type="qcurve" smooth="yes"/>
      <point x="825" y="4"/>
      <point x="790" y="-9"/>
      <point x="753" y="-9"/>
      <point x="740" y="11"/>
      <point x="718" y="46"/>
      <point x="709" y="58" type="qcurve" smooth="yes"/>
    </contour>
    <contour>
      <point x="255" y="17" type="qcurve" smooth="yes"/>
      <point x="257" y="105" type="line"/>
      <point x="257" y="368" type="line"/>
      <point x="254" y="475" type="line" smooth="yes"/>
      <point x="254" y="484"/>
      <point x="290" y="484"/>
      <point x="328" y="469"/>
      <point x="328" y="457" type="qcurve" smooth="yes"/>
      <point x="326" y="368" type="line"/>
      <point x="326" y="105" type="line"/>
      <point x="329" y="-1" type="line" smooth="yes"/>
      <point x="329" y="-10"/>
      <point x="294" y="-10"/>
      <point x="255" y="5"/>
    </contour>
    <contour>
      <point x="340" y="658"/>
      <point x="340" y="617"/>
      <point x="314" y="590"/>
      <point x="272" y="590"/>
      <point x="241" y="629"/>
      <point x="241" y="670"/>
      <point x="266" y="698"/>
      <point x="309" y="698"/>
    </contour>
  </outline>
</glyph>
<glyph name="arrowleft" format="1">
  <advance width="1000" height="1000"/>
  <unicode hex="2190"/>
  <outline>
    <contour>
      <point x="185" y="340" type="line"/>
      <point x="275" y="289"/>
      <point x="320" y="251" type="qcurve" smooth="yes"/>
      <point x="327" y="245"/>
      <point x="327" y="222"/>
      <point x="309" y="198"/>
      <point x="294" y="198"/>
      <point x="277" y="210"/>
      <point x="254" y="231"/>
      <point x="209" y="262"/>
      <point x="122" y="322"/>
      <point x="73" y="344" type="qcurve" smooth="yes"/>
      <point x="59" y="350"/>
      <point x="59" y="389"/>
      <point x="73" y="395" type="qcurve" smooth="yes"/>
      <point x="131" y="422"/>
      <point x="232" y="492" type="qcurve" smooth="yes"/>
      <point x="254" y="507"/>
      <point x="290" y="540"/>
      <point x="309" y="540"/>
      <point x="327" y="516"/>
      <point x="327" y="493"/>
      <point x="320" y="487" type="qcurve" smooth="yes"/>
      <point x="275" y="449"/>
      <point x="185" y="398" type="qcurve"/>
      <point x="919" y="398" type="line" smooth="yes"/>
      <point x="930" y="398"/>
      <point x="942" y="379"/>
      <point x="942" y="358"/>
      <point x="931" y="340"/>
      <point x="919" y="340" type="qcurve" smooth="yes"/>
    </contour>
  </outline>
</glyph>
<glyph name="arrowup" format="1">
  <advance width="1000" height="1000"/>
  <unicode hex="2191"/>
  <outline>
    <contour>
      <point x="471" y="682" type="line"/>
      <point x="424" y="600"/>
      <point x="382" y="547" type="qcurve" smooth="yes"/>
      <point x="376" y="540"/>
      <point x="354" y="540"/>
      <point x="330" y="559"/>
      <point x="330" y="575"/>
      <point x="341" y="590"/>
      <point x="362" y="614"/>
      <point x="393" y="658"/>
      <point x="453" y="745"/>
      <point x="475" y="794" type="qcurve" smooth="yes"/>
      <point x="481" y="808"/>
      <point x="520" y="808"/>
      <point x="526" y="794" type="qcurve" smooth="yes"/>
      <point x="556" y="731"/>
      <point x="638" y="614"/>
      <point x="670" y="577"/>
      <point x="670" y="559"/>
      <point x="646" y="540"/>
      <point x="624" y="540"/>
      <point x="618" y="547" type="qcurve" smooth="yes"/>
      <point x="576" y="600"/>
      <point x="529" y="682" type="qcurve"/>
      <point x="529" y="-52" type="line" smooth="yes"/>
      <point x="529" y="-63"/>
      <point x="510" y="-75"/>
      <point x="489" y="-75"/>
      <point x="471" y="-64"/>
      <point x="471" y="-52" type="qcurve" smooth="yes"/>
    </contour>
  </outline>
</glyph>
<glyph name="arrowright" format="1">
  <advance width="1000" height="1000"/>
  <unicode hex="2192"/>
  <outline>
    <contour>
      <point x="81" y="340" type="line" smooth="yes"/>
      <point x="69" y="340"/>
      <point x="58" y="358"/>
      <point x="58" y="379"/>
      <point x="70" y="398"/>
      <point x="81" y="398" type="qcurve" smooth="yes"/>
      <point x="815" y="398" type="line"/>
      <point x="733" y="445"/>
      <point x="680" y="487" type="qcurve" smooth="yes"/>
      <point x="673" y="493"/>
      <point x="673" y="516"/>
      <point x="691" y="540"/>
      <point x="706" y="540"/>
      <point x="723" y="528"/>
      <point x="747" y="507"/>
      <point x="769" y="492" type="qcurve" smooth="yes"/>
      <point x="864" y="425"/>
      <point x="927" y="395" type="qcurve" smooth="yes"/>
      <point x="941" y="389"/>
      <point x="941" y="350"/>
      <point x="927" y="344" type="qcurve" smooth="yes"/>
      <point x="878" y="322"/>
      <point x="750" y="234"/>
      <point x="709" y="198"/>
      <point x="691" y="198"/>
      <point x="673" y="222"/>
      <point x="673" y="245"/>
      <point x="680" y="251" type="qcurve" smooth="yes"/>
      <point x="733" y="293"/>
      <point x="815" y="340" type="qcurve"/>
    </contour>
  </outline>
</glyph>
<glyph name="arrowboth" format="1">
  <advance width="1000" height="1000"/>
  <unicode hex="2194"/>
  <outline>
    <contour>
      <point x="701" y="201" type="line" smooth="yes"/>
      <point x="695" y="197"/>
      <point x="680" y="197"/>
      <point x="662" y="222"/>
      <point x="662" y="245"/>
      <point x="672" y="253" type="qcurve" smooth="yes"/>
      <point x="718" y="290"/>
      <point x="803" y="339" type="qcurve"/>
      <point x="198" y="339" type="line"/>
      <point x="280" y="292"/>
      <point x="333" y="250" type="qcurve" smooth="yes"/>
      <point x="339" y="245"/>
      <point x="339" y="222"/>
      <point x="321" y="197"/>
      <point x="306" y="197"/>
      <point x="300" y="201" type="qcurve" smooth="yes"/>
      <point x="259" y="235" type="line" smooth="yes"/>
      <point x="222" y="261"/>
      <point x="135" y="322"/>
      <point x="86" y="344" type="qcurve" smooth="yes"/>
      <point x="72" y="350"/>
      <point x="72" y="388"/>
      <point x="103" y="402"/>
      <point x="220" y="467"/>
      <point x="300" y="536" type="qcurve" smooth="yes"/>
      <point x="306" y="540"/>
      <point x="321" y="540"/>
      <point x="339" y="515"/>
      <point x="339" y="492"/>
      <point x="329" y="484" type="qcurve" smooth="yes"/>
      <point x="278" y="443"/>
      <point x="198" y="397" type="qcurve"/>
      <point x="803" y="397" type="line"/>
      <point x="726" y="442"/>
      <point x="668" y="487" type="qcurve" smooth="yes"/>
      <point x="662" y="492"/>
      <point x="662" y="515"/>
      <point x="680" y="540"/>
      <point x="695" y="540"/>
      <point x="701" y="536" type="qcurve" smooth="yes"/>
      <point x="818" y="438"/>
      <point x="915" y="394" type="qcurve" smooth="yes"/>
      <point x="929" y="388"/>
      <point x="929" y="350"/>
      <point x="915" y="344" type="qcurve" smooth="yes"/>
      <point x="866" y="322"/>
      <point x="780" y="261"/>
      <point x="742" y="235" type="qcurve"/>
    </contour>
  </outline>
</glyph>
<glyph name="uni2198" format="1">
  <advance width="1000" height="1000"/>
  <unicode hex="2198"/>
  <outline>
    <contour>
      <point x="736" y="174" type="line"/>
      <point x="711" y="274"/>
      <point x="704" y="333" type="qcurve"/>
      <point x="704" y="334" type="line" smooth="yes"/>
      <point x="704" y="346"/>
      <point x="727" y="360"/>
      <point x="759" y="360"/>
      <point x="761" y="345" type="qcurve" smooth="yes"/>
      <point x="779" y="188"/>
      <point x="813" y="92" type="qcurve" smooth="yes"/>
      <point x="814" y="90"/>
      <point x="814" y="74"/>
      <point x="797" y="56"/>
      <point x="781" y="56"/>
      <point x="762" y="64" type="qcurve" smooth="yes"/>
      <point x="693" y="91"/>
      <point x="525" y="109" type="qcurve" smooth="yes"/>
      <point x="510" y="110"/>
      <point x="510" y="142"/>
      <point x="524" y="166"/>
      <point x="536" y="166" type="qcurve" smooth="yes"/>
      <point x="537" y="166" type="line"/>
      <point x="608" y="158"/>
      <point x="696" y="134" type="qcurve"/>
      <point x="164" y="664" type="line" smooth="yes"/>
      <point x="157" y="671"/>
      <point x="157" y="691"/>
      <point x="178" y="712"/>
      <point x="197" y="712"/>
      <point x="202" y="707" type="qcurve" smooth="yes"/>
    </contour>
  </outline>
</glyph>
<glyph name="uni2199" format="1">
  <advance width="1000" height="1000"/>
  <unicode hex="2199"/>
  <outline>
    <contour>
      <point x="319" y="134" type="line"/>
      <point x="407" y="158"/>
      <point x="478" y="166" type="qcurve"/>
      <point x="479" y="166" type="line" smooth="yes"/>
      <point x="491" y="166"/>
      <point x="505" y="142"/>
      <point x="505" y="110"/>
      <point x="490" y="109" type="qcurve" smooth="yes"/>
      <point x="321" y="91"/>
      <point x="237" y="57" type="qcurve" smooth="yes"/>
      <point x="234" y="56"/>
      <point x="218" y="56"/>
      <point x="201" y="74"/>
      <point x="201" y="90"/>
      <point x="213" y="120"/>
      <point x="242" y="238"/>
      <point x="254" y="345" type="qcurve" smooth="yes"/>
      <point x="256" y="360"/>
      <point x="288" y="360"/>
      <point x="311" y="346"/>
      <point x="311" y="334" type="qcurve" smooth="yes"/>
      <point x="311" y="333" type="line"/>
      <point x="303" y="262"/>
      <point x="279" y="174" type="qcurve"/>
      <point x="813" y="707" type="line" smooth="yes"/>
      <point x="818" y="712"/>
      <point x="837" y="712"/>
      <point x="858" y="691"/>
      <point x="858" y="671"/>
      <point x="851" y="664" type="qcurve" smooth="yes"/>
    </contour>
  </outline>
</glyph>
<glyph name="uni21E6" format="1">
  <advance width="1000" height="1000"/>
  <unicode hex="21E6"/>
  <outline>
    <contour>
      <point x="849" y="465" type="line"/>
      <point x="365" y="465" type="line"/>
      <point x="365" y="592" type="line"/>
      <point x="114" y="380" type="line"/>
      <point x="365" y="169" type="line"/>
      <point x="365" y="294" type="line"/>
      <point x="849" y="294" type="line"/>
    </contour>
    <contour>
      <point x="410" y="249" type="line"/>
      <point x="410" y="71" type="line"/>
      <point x="46" y="380" type="line"/>
      <point x="410" y="688" type="line"/>
      <point x="410" y="510" type="line"/>
      <point x="894" y="510" type="line"/>
      <point x="894" y="249" type="line"/>
    </contour>
  </outline>
</glyph>
<glyph name="existential" format="1">
  <advance width="1000" height="1000"/>
  <unicode hex="2203"/>
  <outline>
    <contour>
      <point x="249" y="32" type="line" smooth="yes"/>
      <point x="239" y="32"/>
      <point x="229" y="52"/>
      <point x="229" y="75"/>
      <point x="239" y="94"/>
      <point x="249" y="94" type="qcurve" smooth="yes"/>
      <point x="719" y="94" type="line"/>
      <point x="719" y="337" type="line"/>
      <point x="249" y="337" type="line" smooth="yes"/>
      <point x="239" y="337"/>
      <point x="229" y="357"/>
      <point x="229" y="380"/>
      <point x="239" y="399"/>
      <point x="249" y="399" type="qcurve" smooth="yes"/>
      <point x="719" y="399" type="line"/>
      <point x="719" y="643" type="line"/>
      <point x="249" y="643" type="line" smooth="yes"/>
      <point x="239" y="643"/>
      <point x="229" y="663"/>
      <point x="229" y="686"/>
      <point x="239" y="705"/>
      <point x="249" y="705" type="qcurve" smooth="yes"/>
      <point x="731" y="705" type="line" smooth="yes"/>
      <point x="753" y="705"/>
      <point x="781" y="680"/>
      <point x="781" y="655" type="qcurve" smooth="yes"/>
      <point x="781" y="82" type="line" smooth="yes"/>
      <point x="781" y="59"/>
      <point x="753" y="32"/>
      <point x="731" y="32" type="qcurve" smooth="yes"/>
    </contour>
  </outline>
</glyph>
<glyph name="gradient" format="1">
  <advance width="1000" height="1000"/>
  <unicode hex="2207"/>
  <outline>
    <contour>
      <point x="754" y="642" type="line"/>
      <point x="288" y="642" type="line"/>
      <point x="518" y="135" type="line"/>
    </contour>
    <contour>
      <point x="198" y="658" type="line" smooth="yes"/>
      <point x="193" y="670"/>
      <point x="193" y="677" type="qcurve" smooth="yes"/>
      <point x="193" y="702"/>
      <point x="224" y="702" type="qcurve" smooth="yes"/>
      <point x="784" y="702" type="line" smooth="yes"/>
      <point x="815" y="702"/>
      <point x="815" y="677" type="qcurve" smooth="yes"/>
      <point x="815" y="670"/>
      <point x="810" y="658" type="qcurve" smooth="yes"/>
      <point x="520" y="36" type="line" smooth="yes"/>
      <point x="513" y="21"/>
      <point x="487" y="21"/>
      <point x="481" y="35" type="qcurve" smooth="yes"/>
    </contour>
  </outline>
</glyph>
<glyph name="uni220A" format="1">
  <advance width="1000" height="1000"/>
  <unicode hex="220A"/>
  <outline>
    <contour>
      <point x="600" y="231" type="qcurve" smooth="yes"/>
      <point x="520" y="232" type="line"/>
      <point x="356" y="232" type="line"/>
      <point x="361" y="170"/>
      <point x="386" y="130" type="qcurve" smooth="yes"/>
      <point x="436" y="53"/>
      <point x="528" y="53" type="qcurve" smooth="yes"/>
      <point x="579" y="53"/>
      <point x="658" y="88"/>
      <point x="686" y="134" type="qcurve" smooth="yes"/>
      <point x="689" y="137"/>
      <point x="703" y="137"/>
      <point x="709" y="134" type="qcurve" smooth="yes"/>
      <point x="721" y="126"/>
      <point x="721" y="110"/>
      <point x="695" y="71"/>
      <point x="670" y="49" type="qcurve" smooth="yes"/>
      <point x="609" y="-5"/>
      <point x="452" y="-5"/>
      <point x="339" y="61"/>
      <point x="276" y="179"/>
      <point x="276" y="256" type="qcurve" smooth="yes"/>
      <point x="276" y="258" type="line" smooth="yes"/>
      <point x="276" y="336"/>
      <point x="338" y="454"/>
      <point x="451" y="521"/>
      <point x="577" y="521"/>
      <point x="650" y="487"/>
      <point x="697" y="441"/>
      <point x="719" y="404"/>
      <point x="719" y="391"/>
      <point x="709" y="383" type="qcurve" smooth="yes"/>
      <point x="706" y="382"/>
      <point x="696" y="378"/>
      <point x="687" y="378"/>
      <point x="686" y="380" type="qcurve" smooth="yes"/>
      <point x="635" y="464"/>
      <point x="527" y="464" type="qcurve" smooth="yes"/>
      <point x="487" y="464"/>
      <point x="450" y="446" type="qcurve" smooth="yes"/>
      <point x="365" y="407"/>
      <point x="356" y="293" type="qcurve"/>
      <point x="529" y="293" type="line"/>
      <point x="616" y="296" type="line" smooth="yes"/>
      <point x="630" y="296"/>
      <point x="630" y="259"/>
      <point x="615" y="231"/>
    </contour>
  </outline>
</glyph>
<glyph name="minus" format="1">
  <advance width="500" height="500"/>
  <unicode hex="2212"/>
  <outline>
    <contour>
      <point x="313" y="280" type="line" smooth="yes"/>
      <point x="342" y="280"/>
      <point x="384" y="282" type="qcurve" smooth="yes"/>
      <point x="385" y="282" type="line" smooth="yes"/>
      <point x="393" y="282"/>
      <point x="405" y="258"/>
      <point x="405" y="220"/>
      <point x="390" y="220" type="qcurve" smooth="yes"/>
      <point x="312" y="222" type="line"/>
      <point x="192" y="222" type="line" smooth="yes"/>
      <point x="136" y="222"/>
      <point x="118" y="219" type="qcurve" smooth="yes"/>
      <point x="117" y="219" type="line" smooth="yes"/>
      <point x="108" y="219"/>
      <point x="97" y="245"/>
      <point x="97" y="258" type="qcurve" smooth="yes"/>
      <point x="97" y="282"/>
      <point x="113" y="282" type="qcurve" smooth="yes"/>
      <point x="143" y="280"/>
      <point x="193" y="280" type="qcurve" smooth="yes"/>
    </contour>
  </outline>
</glyph>
<glyph name="uni2215" format="1">
  <advance width="500" height="500"/>
  <unicode hex="2215"/>
  <outline>
    <contour>
      <point x="328" y="660" type="line" smooth="yes"/>
      <point x="343" y="702"/>
      <point x="352" y="738" type="qcurve" smooth="yes"/>
      <point x="355" y="751"/>
      <point x="374" y="751"/>
      <point x="385" y="744" type="qcurve" smooth="yes"/>
      <point x="410" y="725"/>
      <point x="410" y="709" type="qcurve" smooth="yes"/>
      <point x="410" y="706"/>
      <point x="395" y="676"/>
      <point x="381" y="640" type="qcurve" smooth="yes"/>
      <point x="165" y="47" type="line" smooth="yes"/>
      <point x="148" y="0"/>
      <point x="139" y="-29" type="qcurve" smooth="yes"/>
      <point x="135" y="-42"/>
      <point x="109" y="-42"/>
      <point x="83" y="-19"/>
      <point x="83" y="3"/>
      <point x="86" y="9" type="qcurve" smooth="yes"/>
      <point x="104" y="42"/>
      <point x="114" y="70" type="qcurve" smooth="yes"/>
    </contour>
  </outline>
</glyph>
<glyph name="periodcentered" format="1">
  <advance width="500" height="500"/>
  <unicode hex="2219"/>
  <unicode hex="00B7"/>
  <outline>
    <contour>
      <point x="258" y="274" type="qcurve" smooth="yes"/>
      <point x="294" y="274"/>
      <point x="337" y="318"/>
      <point x="337" y="356" type="qcurve" smooth="yes"/>
      <point x="337" y="382"/>
      <point x="323" y="407" type="qcurve" smooth="yes"/>
      <point x="288" y="465"/>
      <point x="241" y="465" type="qcurve" smooth="yes"/>
      <point x="165" y="465"/>
      <point x="161" y="380" type="qcurve" smooth="yes"/>
      <point x="161" y="358"/>
      <point x="175" y="332" type="qcurve" smooth="yes"/>
      <point x="209" y="274"/>
    </contour>
  </outline>
</glyph>
<glyph name="orthogonal" format="1">
  <advance width="1000" height="1000"/>
  <unicode hex="221F"/>
  <outline>
    <contour>
      <point x="694" y="112" type="line" smooth="yes"/>
      <point x="721" y="112"/>
      <point x="784" y="115" type="qcurve" smooth="yes"/>
      <point x="785" y="115" type="line" smooth="yes"/>
      <point x="795" y="115"/>
      <point x="807" y="91"/>
      <point x="807" y="79" type="qcurve" smooth="yes"/>
      <point x="807" y="51"/>
      <point x="790" y="51" type="qcurve" smooth="yes"/>
      <point x="766" y="52"/>
      <point x="737" y="52" type="qcurve" smooth="yes"/>
      <point x="693" y="52" type="line"/>
      <point x="289" y="47" type="line" smooth="yes"/>
      <point x="242" y="47"/>
      <point x="242" y="98" type="qcurve" smooth="yes"/>
      <point x="242" y="597" type="line" smooth="yes"/>
      <point x="242" y="656"/>
      <point x="240" y="686" type="qcurve" smooth="yes"/>
      <point x="240" y="702"/>
      <point x="279" y="702"/>
      <point x="307" y="690"/>
      <point x="307" y="682" type="qcurve" smooth="yes"/>
      <point x="307" y="681" type="line" smooth="yes"/>
      <point x="304" y="642"/>
      <point x="304" y="600" type="qcurve" smooth="yes"/>
      <point x="304" y="107" type="line"/>
    </contour>
  </outline>
</glyph>
<glyph name="angle" format="1">
  <advance width="1000" height="1000"/>
  <unicode hex="2220"/>
  <outline>
    <contour>
      <point x="743" y="113" type="line" smooth="yes"/>
      <point x="749" y="113"/>
      <point x="833" y="117" type="qcurve"/>
      <point x="834" y="117" type="line" smooth="yes"/>
      <point x="844" y="117"/>
      <point x="856" y="92"/>
      <point x="856" y="80" type="qcurve" smooth="yes"/>
      <point x="856" y="52"/>
      <point x="839" y="52" type="qcurve" smooth="yes"/>
      <point x="817" y="53"/>
      <point x="788" y="53" type="qcurve" smooth="yes"/>
      <point x="742" y="53" type="line"/>
      <point x="208" y="47" type="line" smooth="yes"/>
      <point x="194" y="47"/>
      <point x="179" y="61"/>
      <point x="179" y="80"/>
      <point x="186" y="87" type="qcurve" smooth="yes"/>
      <point x="638" y="598" type="line" smooth="yes"/>
      <point x="695" y="664"/>
      <point x="716" y="695" type="qcurve" smooth="yes"/>
      <point x="722" y="704"/>
      <point x="747" y="704"/>
      <point x="774" y="673"/>
      <point x="774" y="653"/>
      <point x="754" y="631"/>
      <point x="715" y="591"/>
      <point x="694" y="567" type="qcurve" smooth="yes"/>
      <point x="286" y="107" type="line"/>
    </contour>
  </outline>
</glyph>
<glyph name="uni2223" format="1">
  <advance width="1000" height="1000"/>
  <unicode hex="2223"/>
  <outline>
    <contour>
      <point x="501" y="-134" type="qcurve" smooth="yes"/>
      <point x="471" y="-134"/>
      <point x="471" y="-115" type="qcurve" smooth="yes"/>
      <point x="471" y="875" type="line" smooth="yes"/>
      <point x="471" y="894"/>
      <point x="501" y="894" type="qcurve" smooth="yes"/>
      <point x="530" y="894"/>
      <point x="530" y="875" type="qcurve" smooth="yes"/>
      <point x="530" y="-115" type="line" smooth="yes"/>
      <point x="530" y="-127"/>
      <point x="515" y="-132" type="qcurve" smooth="yes"/>
      <point x="508" y="-134"/>
    </contour>
  </outline>
</glyph>
<glyph name="union" format="1">
  <advance width="1000" height="1000"/>
  <unicode hex="222A"/>
  <outline>
    <contour>
      <point x="274" y="714"/>
      <point x="274" y="694" type="qcurve" smooth="yes"/>
      <point x="274" y="296" type="line" smooth="yes"/>
      <point x="274" y="232"/>
      <point x="339" y="140"/>
      <point x="442" y="91"/>
      <point x="558" y="91"/>
      <point x="663" y="139"/>
      <point x="730" y="231"/>
      <point x="730" y="296" type="qcurve" smooth="yes"/>
      <point x="730" y="694" type="line" smooth="yes"/>
      <point x="730" y="714"/>
      <point x="792" y="714"/>
      <point x="792" y="694" type="qcurve" smooth="yes"/>
      <point x="792" y="291" type="line" smooth="yes"/>
      <point x="792" y="213"/>
      <point x="713" y="92"/>
      <point x="581" y="24"/>
      <point x="512" y="24" type="qcurve" smooth="yes"/>
      <point x="383" y="24"/>
      <point x="212" y="175"/>
      <point x="212" y="291" type="qcurve" smooth="yes"/>
      <point x="212" y="694" type="line" smooth="yes"/>
      <point x="212" y="714"/>
    </contour>
  </outline>
</glyph>
<glyph name="uni222C" format="1">
  <advance width="1000" height="1000"/>
  <unicode hex="222C"/>
  <outline>
    <contour>
      <point x="324" y="-49"/>
      <point x="295" y="-49" type="qcurve" smooth="yes"/>
      <point x="247" y="-49"/>
      <point x="206" y="-17" type="qcurve" smooth="yes"/>
      <point x="199" y="-11"/>
      <point x="199" y="19"/>
      <point x="211" y="48"/>
      <point x="219" y="48" type="qcurve" smooth="yes"/>
      <point x="223" y="48"/>
      <point x="261" y="12"/>
      <point x="300" y="12"/>
      <point x="309" y="16" type="qcurve" smooth="yes"/>
      <point x="329" y="26"/>
      <point x="342" y="173"/>
      <point x="342" y="497"/>
      <point x="353" y="661"/>
      <point x="380" y="749"/>
      <point x="425" y="782"/>
      <point x="454" y="782" type="qcurve" smooth="yes"/>
      <point x="502" y="782"/>
      <point x="543" y="750" type="qcurve" smooth="yes"/>
      <point x="550" y="744"/>
      <point x="550" y="714"/>
      <point x="538" y="685"/>
      <point x="530" y="685" type="qcurve" smooth="yes"/>
      <point x="526" y="685"/>
      <point x="514" y="696" type="qcurve" smooth="yes"/>
      <point x="490" y="721"/>
      <point x="461" y="721" type="qcurve" smooth="yes"/>
      <point x="449" y="721"/>
      <point x="440" y="716" type="qcurve" smooth="yes"/>
      <point x="421" y="707"/>
      <point x="407" y="560"/>
      <point x="407" y="230"/>
      <point x="396" y="65"/>
      <point x="369" y="-20"/>
    </contour>
    <contour>
      <point x="590" y="-49"/>
      <point x="561" y="-49" type="qcurve" smooth="yes"/>
      <point x="513" y="-49"/>
      <point x="472" y="-17" type="qcurve" smooth="yes"/>
      <point x="465" y="-11"/>
      <point x="465" y="19"/>
      <point x="477" y="48"/>
      <point x="485" y="48" type="qcurve" smooth="yes"/>
      <point x="489" y="48"/>
      <point x="527" y="12"/>
      <point x="566" y="12"/>
      <point x="575" y="16" type="qcurve" smooth="yes"/>
      <point x="595" y="26"/>
      <point x="608" y="173"/>
      <point x="608" y="497"/>
      <point x="619" y="661"/>
      <point x="646" y="749"/>
      <point x="691" y="782"/>
      <point x="720" y="782" type="qcurve" smooth="yes"/>
      <point x="768" y="782"/>
      <point x="809" y="750" type="qcurve" smooth="yes"/>
      <point x="816" y="744"/>
      <point x="816" y="714"/>
      <point x="804" y="685"/>
      <point x="796" y="685" type="qcurve" smooth="yes"/>
      <point x="792" y="685"/>
      <point x="780" y="696" type="qcurve" smooth="yes"/>
      <point x="756" y="721"/>
      <point x="727" y="721" type="qcurve" smooth="yes"/>
      <point x="715" y="721"/>
      <point x="706" y="716" type="qcurve" smooth="yes"/>
      <point x="687" y="707"/>
      <point x="673" y="560"/>
      <point x="673" y="230"/>
      <point x="662" y="65"/>
      <point x="635" y="-20"/>
    </contour>
  </outline>
</glyph>
<glyph name="uni222D" format="1">
  <advance width="1000" height="1000"/>
  <unicode hex="222D"/>
  <outline>
    <contour>
      <point x="190" y="-49"/>
      <point x="161" y="-49" type="qcurve" smooth="yes"/>
      <point x="113" y="-49"/>
      <point x="72" y="-17" type="qcurve" smooth="yes"/>
      <point x="65" y="-11"/>
      <point x="65" y="19"/>
      <point x="77" y="48"/>
      <point x="85" y="48" type="qcurve" smooth="yes"/>
      <point x="89" y="48"/>
      <point x="127" y="12"/>
      <point x="166" y="12"/>
      <point x="175" y="16" type="qcurve" smooth="yes"/>
      <point x="195" y="26"/>
      <point x="208" y="173"/>
      <point x="208" y="497"/>
      <point x="219" y="661"/>
      <point x="246" y="749"/>
      <point x="291" y="782"/>
      <point x="320" y="782" type="qcurve" smooth="yes"/>
      <point x="368" y="782"/>
      <point x="409" y="750" type="qcurve" smooth="yes"/>
      <point x="416" y="744"/>
      <point x="416" y="714"/>
      <point x="404" y="685"/>
      <point x="396" y="685" type="qcurve" smooth="yes"/>
      <point x="392" y="685"/>
      <point x="380" y="696" type="qcurve" smooth="yes"/>
      <point x="356" y="721"/>
      <point x="327" y="721" type="qcurve" smooth="yes"/>
      <point x="315" y="721"/>
      <point x="306" y="716" type="qcurve" smooth="yes"/>
      <point x="287" y="707"/>
      <point x="273" y="560"/>
      <point x="273" y="230"/>
      <point x="262" y="65"/>
      <point x="235" y="-20"/>
    </contour>
    <contour>
      <point x="445" y="-49"/>
      <point x="416" y="-49" type="qcurve" smooth="yes"/>
      <point x="368" y="-49"/>
      <point x="327" y="-17" type="qcurve" smooth="yes"/>
      <point x="320" y="-11"/>
      <point x="320" y="19"/>
      <point x="332" y="48"/>
      <point x="340" y="48" type="qcurve" smooth="yes"/>
      <point x="344" y="48"/>
      <point x="382" y="12"/>
      <point x="421" y="12"/>
      <point x="430" y="16" type="qcurve" smooth="yes"/>
      <point x="449" y="26"/>
      <point x="463" y="173"/>
      <point x="463" y="497"/>
      <point x="474" y="661"/>
      <point x="501" y="749"/>
      <point x="546" y="782"/>
      <point x="575" y="782" type="qcurve" smooth="yes"/>
      <point x="623" y="782"/>
      <point x="664" y="750" type="qcurve" smooth="yes"/>
      <point x="671" y="744"/>
      <point x="671" y="714"/>
      <point x="659" y="685"/>
      <point x="651" y="685" type="qcurve" smooth="yes"/>
      <point x="647" y="685"/>
      <point x="636" y="696" type="qcurve" smooth="yes"/>
      <point x="611" y="721"/>
      <point x="582" y="721" type="qcurve" smooth="yes"/>
      <point x="570" y="721"/>
      <point x="561" y="716" type="qcurve" smooth="yes"/>
      <point x="541" y="707"/>
      <point x="528" y="560"/>
      <point x="528" y="230"/>
      <point x="517" y="65"/>
      <point x="490" y="-20"/>
    </contour>
    <contour>
      <point x="704" y="-49"/>
      <point x="675" y="-49" type="qcurve" smooth="yes"/>
      <point x="627" y="-49"/>
      <point x="586" y="-17" type="qcurve" smooth="yes"/>
      <point x="579" y="-11"/>
      <point x="579" y="19"/>
      <point x="591" y="48"/>
      <point x="599" y="48" type="qcurve" smooth="yes"/>
      <point x="603" y="48"/>
      <point x="641" y="12"/>
      <point x="680" y="12"/>
      <point x="689" y="16" type="qcurve" smooth="yes"/>
      <point x="709" y="26"/>
      <point x="722" y="173"/>
      <point x="722" y="497"/>
      <point x="733" y="661"/>
      <point x="760" y="749"/>
      <point x="805" y="782"/>
      <point x="834" y="782" type="qcurve" smooth="yes"/>
      <point x="882" y="782"/>
      <point x="923" y="750" type="qcurve" smooth="yes"/>
      <point x="930" y="744"/>
      <point x="930" y="714"/>
      <point x="918" y="685"/>
      <point x="910" y="685" type="qcurve" smooth="yes"/>
      <point x="906" y="685"/>
      <point x="894" y="696" type="qcurve" smooth="yes"/>
      <point x="870" y="721"/>
      <point x="841" y="721" type="qcurve" smooth="yes"/>
      <point x="829" y="721"/>
      <point x="820" y="716" type="qcurve" smooth="yes"/>
      <point x="801" y="707"/>
      <point x="787" y="560"/>
      <point x="787" y="230"/>
      <point x="776" y="65"/>
      <point x="749" y="-20"/>
    </contour>
  </outline>
</glyph>
<glyph name="uni2235" format="1">
  <advance width="1000" height="1000"/>
  <unicode hex="2235"/>
  <outline>
    <contour>
      <point x="552" y="141"/>
      <point x="552" y="100"/>
      <point x="527" y="74"/>
      <point x="479" y="74"/>
      <point x="447" y="115"/>
      <point x="447" y="158"/>
      <point x="477" y="182"/>
      <point x="519" y="182"/>
    </contour>
    <contour>
      <point x="278" y="617"/>
      <point x="278" y="576"/>
      <point x="253" y="550"/>
      <point x="205" y="550"/>
      <point x="173" y="591"/>
      <point x="173" y="634"/>
      <point x="203" y="658"/>
      <point x="245" y="658"/>
    </contour>
    <contour>
      <point x="824" y="617"/>
      <point x="824" y="576"/>
      <point x="799" y="550"/>
      <point x="751" y="550"/>
      <point x="719" y="591"/>
      <point x="719" y="634"/>
      <point x="749" y="658"/>
      <point x="791" y="658"/>
    </contour>
  </outline>
</glyph>
<glyph name="uni2236" format="1">
  <advance width="1000" height="1000"/>
  <unicode hex="2236"/>
  <outline>
    <contour>
      <point x="501" y="82" type="qcurve" smooth="yes"/>
      <point x="480" y="82"/>
      <point x="448" y="123"/>
      <point x="448" y="142" type="qcurve" smooth="yes"/>
      <point x="448" y="166"/>
      <point x="478" y="190"/>
      <point x="501" y="190" type="qcurve" smooth="yes"/>
      <point x="520" y="190"/>
      <point x="553" y="149"/>
      <point x="553" y="128" type="qcurve" smooth="yes"/>
      <point x="553" y="108"/>
      <point x="528" y="82"/>
    </contour>
    <contour>
      <point x="501" y="566" type="qcurve" smooth="yes"/>
      <point x="480" y="566"/>
      <point x="448" y="607"/>
      <point x="448" y="626" type="qcurve" smooth="yes"/>
      <point x="448" y="650"/>
      <point x="478" y="674"/>
      <point x="501" y="674" type="qcurve" smooth="yes"/>
      <point x="520" y="674"/>
      <point x="553" y="633"/>
      <point x="553" y="612" type="qcurve" smooth="yes"/>
      <point x="553" y="592"/>
      <point x="528" y="566"/>
    </contour>
  </outline>
</glyph>
<glyph name="uni2243" format="1">
  <advance width="1000" height="1000"/>
  <unicode hex="2243"/>
  <outline>
    <contour>
      <point x="755" y="291" type="line" smooth="yes"/>
      <point x="768" y="291"/>
      <point x="831" y="294" type="qcurve" smooth="yes"/>
      <point x="832" y="294" type="line" smooth="yes"/>
      <point x="842" y="294"/>
      <point x="854" y="269"/>
      <point x="854" y="257" type="qcurve" smooth="yes"/>
      <point x="854" y="228"/>
      <point x="837" y="228" type="qcurve" smooth="yes"/>
      <point x="754" y="229" type="line"/>
      <point x="247" y="223" type="line" smooth="yes"/>
      <point x="184" y="223"/>
      <point x="166" y="220" type="qcurve" smooth="yes"/>
      <point x="165" y="220" type="line" smooth="yes"/>
      <point x="156" y="220"/>
      <point x="145" y="248"/>
      <point x="145" y="287"/>
      <point x="161" y="287" type="qcurve" smooth="yes"/>
      <point x="191" y="285"/>
      <point x="248" y="285" type="qcurve" smooth="yes"/>
    </contour>
    <contour>
      <point x="852" y="491" type="qcurve" smooth="yes"/>
      <point x="852" y="481"/>
      <point x="824" y="448"/>
      <point x="800" y="432" type="qcurve" smooth="yes"/>
      <point x="740" y="395"/>
      <point x="688" y="395" type="qcurve" smooth="yes"/>
      <point x="587" y="395"/>
      <point x="391" y="480"/>
      <point x="228" y="480"/>
      <point x="176" y="442" type="qcurve" smooth="yes"/>
      <point x="166" y="435"/>
      <point x="157" y="435" type="qcurve" smooth="yes"/>
      <point x="144" y="435"/>
      <point x="144" y="448" type="qcurve" smooth="yes"/>
      <point x="144" y="474"/>
      <point x="200" y="508" type="qcurve" smooth="yes"/>
      <point x="257" y="544"/>
      <point x="311" y="544" type="qcurve" smooth="yes"/>
      <point x="408" y="544"/>
      <point x="609" y="459"/>
      <point x="768" y="459"/>
      <point x="820" y="497" type="qcurve" smooth="yes"/>
      <point x="830" y="504"/>
      <point x="839" y="504" type="qcurve" smooth="yes"/>
      <point x="852" y="504"/>
    </contour>
  </outline>
</glyph>
<glyph name="uni2252" format="1">
  <advance width="1000" height="1000"/>
  <unicode hex="2252"/>
  <outline>
    <contour>
      <point x="694" y="85"/>
      <point x="694" y="44"/>
      <point x="669" y="18"/>
      <point x="621" y="18"/>
      <point x="589" y="59"/>
      <point x="589" y="102"/>
      <point x="619" y="126"/>
      <point x="661" y="126"/>
    </contour>
    <contour>
      <point x="735" y="270" type="line" smooth="yes"/>
      <point x="748" y="270"/>
      <point x="811" y="273" type="qcurve" smooth="yes"/>
      <point x="812" y="273" type="line" smooth="yes"/>
      <point x="822" y="273"/>
      <point x="834" y="249"/>
      <point x="834" y="237" type="qcurve" smooth="yes"/>
      <point x="834" y="209"/>
      <point x="817" y="209" type="qcurve" smooth="yes"/>
      <point x="734" y="210" type="line"/>
      <point x="267" y="204" type="line" smooth="yes"/>
      <point x="204" y="204"/>
      <point x="186" y="201" type="qcurve" smooth="yes"/>
      <point x="185" y="201" type="line" smooth="yes"/>
      <point x="176" y="201"/>
      <point x="165" y="228"/>
      <point x="165" y="241" type="qcurve" smooth="yes"/>
      <point x="165" y="266"/>
      <point x="181" y="266" type="qcurve" smooth="yes"/>
      <point x="211" y="264"/>
      <point x="268" y="264" type="qcurve" smooth="yes"/>
    </contour>
    <contour>
      <point x="735" y="470" type="line" smooth="yes"/>
      <point x="748" y="470"/>
      <point x="811" y="473" type="qcurve" smooth="yes"/>
      <point x="812" y="473" type="line" smooth="yes"/>
      <point x="822" y="473"/>
      <point x="834" y="449"/>
      <point x="834" y="437" type="qcurve" smooth="yes"/>
      <point x="834" y="409"/>
      <point x="817" y="409" type="qcurve" smooth="yes"/>
      <point x="734" y="410" type="line"/>
      <point x="267" y="404" type="line" smooth="yes"/>
      <point x="204" y="404"/>
      <point x="186" y="401" type="qcurve" smooth="yes"/>
      <point x="185" y="401" type="line" smooth="yes"/>
      <point x="176" y="401"/>
      <point x="165" y="428"/>
      <point x="165" y="441" type="qcurve" smooth="yes"/>
      <point x="165" y="466"/>
      <point x="181" y="466" type="qcurve" smooth="yes"/>
      <point x="211" y="464"/>
      <point x="268" y="464" type="qcurve" smooth="yes"/>
    </contour>
    <contour>
      <point x="412" y="620"/>
      <point x="412" y="579"/>
      <point x="387" y="553"/>
      <point x="339" y="553"/>
      <point x="307" y="594"/>
      <point x="307" y="637"/>
      <point x="337" y="661"/>
      <point x="379" y="661"/>
    </contour>
  </outline>
</glyph>
<glyph name="lessequal" format="1">
  <advance width="1000" height="1000"/>
  <unicode hex="2264"/>
  <outline>
    <contour>
      <point x="772" y="29" type="qcurve" smooth="yes"/>
      <point x="768" y="29" type="line"/>
      <point x="694" y="56" type="line"/>
      <point x="238" y="207" type="line" smooth="yes"/>
      <point x="206" y="216"/>
      <point x="203" y="216" type="qcurve" smooth="yes"/>
      <point x="195" y="220"/>
      <point x="192" y="234" type="qcurve" smooth="yes"/>
      <point x="189" y="244"/>
      <point x="189" y="254" type="qcurve" smooth="yes"/>
      <point x="190" y="265" type="line" smooth="yes"/>
      <point x="192" y="286"/>
      <point x="202" y="286" type="qcurve" smooth="yes"/>
      <point x="206" y="286"/>
      <point x="242" y="272" type="qcurve" smooth="yes"/>
      <point x="284" y="256" type="line"/>
      <point x="669" y="129"/>
      <point x="732" y="109" type="qcurve" smooth="yes"/>
      <point x="767" y="98"/>
      <point x="771" y="98" type="qcurve" smooth="yes"/>
      <point x="787" y="91"/>
      <point x="787" y="57" type="qcurve" smooth="yes"/>
      <point x="787" y="51" type="line"/>
      <point x="783" y="29"/>
    </contour>
    <contour>
      <point x="767" y="215" type="qcurve" smooth="yes"/>
      <point x="764" y="215"/>
      <point x="761" y="217" type="qcurve" smooth="yes"/>
      <point x="736" y="231"/>
      <point x="710" y="243" type="qcurve" smooth="yes"/>
      <point x="652" y="269"/>
      <point x="454" y="334" type="qcurve" smooth="yes"/>
      <point x="292" y="388"/>
      <point x="243" y="400" type="qcurve" smooth="yes"/>
      <point x="230" y="403"/>
      <point x="210" y="414"/>
      <point x="200" y="443"/>
      <point x="200" y="456" type="qcurve" smooth="yes"/>
      <point x="200" y="465"/>
      <point x="203" y="472" type="qcurve" smooth="yes"/>
      <point x="211" y="484"/>
      <point x="244" y="494" type="qcurve" smooth="yes"/>
      <point x="563" y="591"/>
      <point x="677" y="636" type="qcurve" smooth="yes"/>
      <point x="715" y="652"/>
      <point x="758" y="676" type="qcurve" smooth="yes"/>
      <point x="761" y="678"/>
      <point x="764" y="678" type="qcurve" smooth="yes"/>
      <point x="775" y="678"/>
      <point x="788" y="645"/>
      <point x="788" y="628" type="qcurve" smooth="yes"/>
      <point x="788" y="612"/>
      <point x="779" y="606" type="qcurve" smooth="yes"/>
      <point x="749" y="598"/>
      <point x="727" y="589" type="qcurve" smooth="yes"/>
      <point x="705" y="581" type="line" smooth="yes"/>
      <point x="537" y="522"/>
      <point x="279" y="445" type="qcurve"/>
      <point x="402" y="409" type="line"/>
      <point x="560" y="361" type="line" smooth="yes"/>
      <point x="655" y="333"/>
      <point x="712" y="312" type="qcurve" smooth="yes"/>
      <point x="775" y="290" type="line" smooth="yes"/>
      <point x="786" y="287"/>
      <point x="786" y="259" type="qcurve" smooth="yes"/>
      <point x="786" y="243"/>
      <point x="777" y="215"/>
    </contour>
  </outline>
</glyph>
<glyph name="greaterequal" format="1">
  <advance width="1000" height="1000"/>
  <unicode hex="2265"/>
  <outline>
    <contour>
      <point x="208" y="29" type="qcurve"/>
      <point x="204" y="29" type="line" smooth="yes"/>
      <point x="199" y="29"/>
      <point x="189" y="42"/>
      <point x="189" y="61" type="qcurve" smooth="yes"/>
      <point x="189" y="91"/>
      <point x="205" y="98" type="qcurve" smooth="yes"/>
      <point x="209" y="98"/>
      <point x="244" y="109" type="qcurve" smooth="yes"/>
      <point x="274" y="118" type="line"/>
      <point x="699" y="258"/>
      <point x="772" y="286"/>
      <point x="774" y="286" type="qcurve" smooth="yes"/>
      <point x="778" y="286"/>
      <point x="787" y="272"/>
      <point x="787" y="252" type="qcurve" smooth="yes"/>
      <point x="787" y="223"/>
      <point x="773" y="216" type="qcurve"/>
      <point x="772" y="216" type="line"/>
      <point x="739" y="208"/>
      <point x="700" y="194" type="qcurve" smooth="yes"/>
      <point x="294" y="60"/>
    </contour>
    <contour>
      <point x="226" y="214" type="qcurve" smooth="yes"/>
      <point x="216" y="214"/>
      <point x="202" y="248"/>
      <point x="202" y="264" type="qcurve" smooth="yes"/>
      <point x="202" y="281"/>
      <point x="211" y="286" type="qcurve" smooth="yes"/>
      <point x="241" y="294"/>
      <point x="263" y="303" type="qcurve" smooth="yes"/>
      <point x="285" y="311" type="line" smooth="yes"/>
      <point x="460" y="373"/>
      <point x="709" y="447" type="qcurve"/>
      <point x="594" y="481" type="line" smooth="yes"/>
      <point x="358" y="551"/>
      <point x="278" y="580" type="qcurve" smooth="yes"/>
      <point x="215" y="602" type="line" smooth="yes"/>
      <point x="204" y="605"/>
      <point x="204" y="633" type="qcurve" smooth="yes"/>
      <point x="204" y="649"/>
      <point x="213" y="677"/>
      <point x="223" y="677" type="qcurve" smooth="yes"/>
      <point x="226" y="677"/>
      <point x="229" y="675" type="qcurve" smooth="yes"/>
      <point x="254" y="661"/>
      <point x="280" y="649" type="qcurve" smooth="yes"/>
      <point x="338" y="623"/>
      <point x="537" y="558" type="qcurve" smooth="yes"/>
      <point x="698" y="504"/>
      <point x="747" y="492" type="qcurve" smooth="yes"/>
      <point x="760" y="489"/>
      <point x="780" y="478"/>
      <point x="790" y="450"/>
      <point x="790" y="436" type="qcurve" smooth="yes"/>
      <point x="790" y="427"/>
      <point x="787" y="420" type="qcurve" smooth="yes"/>
      <point x="779" y="408"/>
      <point x="746" y="398" type="qcurve" smooth="yes"/>
      <point x="427" y="301"/>
      <point x="313" y="256" type="qcurve" smooth="yes"/>
      <point x="275" y="241"/>
      <point x="232" y="216" type="qcurve" smooth="yes"/>
      <point x="229" y="214"/>
    </contour>
  </outline>
</glyph>
<glyph name="uni2267" format="1">
  <advance width="1000" height="1000"/>
  <unicode hex="2267"/>
  <outline>
    <contour>
      <point x="731" y="60" type="line" smooth="yes"/>
      <point x="744" y="60"/>
      <point x="807" y="63" type="qcurve" smooth="yes"/>
      <point x="808" y="63" type="line" smooth="yes"/>
      <point x="818" y="63"/>
      <point x="830" y="39"/>
      <point x="830" y="27" type="qcurve" smooth="yes"/>
      <point x="830" y="-1"/>
      <point x="813" y="-1" type="qcurve" smooth="yes"/>
      <point x="730" y="0" type="line"/>
      <point x="278" y="-6" type="line" smooth="yes"/>
      <point x="215" y="-6"/>
      <point x="197" y="-9" type="qcurve" smooth="yes"/>
      <point x="196" y="-9" type="line" smooth="yes"/>
      <point x="187" y="-9"/>
      <point x="176" y="18"/>
      <point x="176" y="31" type="qcurve" smooth="yes"/>
      <point x="176" y="56"/>
      <point x="192" y="56" type="qcurve" smooth="yes"/>
      <point x="222" y="54"/>
      <point x="279" y="54" type="qcurve" smooth="yes"/>
    </contour>
    <contour>
      <point x="731" y="204" type="line" smooth="yes"/>
      <point x="744" y="204"/>
      <point x="807" y="207" type="qcurve" smooth="yes"/>
      <point x="808" y="207" type="line" smooth="yes"/>
      <point x="818" y="207"/>
      <point x="830" y="183"/>
      <point x="830" y="171" type="qcurve" smooth="yes"/>
      <point x="830" y="143"/>
      <point x="813" y="143" type="qcurve" smooth="yes"/>
      <point x="730" y="144" type="line"/>
      <point x="278" y="138" type="line" smooth="yes"/>
      <point x="215" y="138"/>
      <point x="197" y="135" type="qcurve" smooth="yes"/>
      <point x="196" y="135" type="line" smooth="yes"/>
      <point x="187" y="135"/>
      <point x="176" y="162"/>
      <point x="176" y="175" type="qcurve" smooth="yes"/>
      <point x="176" y="200"/>
      <point x="192" y="200" type="qcurve" smooth="yes"/>
      <point x="222" y="198"/>
      <point x="279" y="198" type="qcurve" smooth="yes"/>
    </contour>
    <contour>
      <point x="224" y="719" type="qcurve" smooth="yes"/>
      <point x="226" y="719"/>
      <point x="260" y="700"/>
      <point x="356" y="661"/>
      <point x="469" y="621"/>
      <point x="583" y="584"/>
      <point x="678" y="555"/>
      <point x="738" y="537"/>
      <point x="749" y="534"/>
      <point x="765" y="530"/>
      <point x="781" y="521"/>
      <point x="791" y="492"/>
      <point x="791" y="466"/>
      <point x="776" y="450"/>
      <point x="715" y="431"/>
      <point x="671" y="418" type="qcurve" smooth="yes"/>
      <point x="357" y="321"/>
      <point x="288" y="287" type="qcurve" smooth="yes"/>
      <point x="253" y="270"/>
      <point x="229" y="256"/>
      <point x="227" y="256" type="qcurve" smooth="yes"/>
      <point x="217" y="256"/>
      <point x="203" y="289"/>
      <point x="203" y="324"/>
      <point x="212" y="327" type="qcurve" smooth="yes"/>
      <point x="235" y="333"/>
      <point x="270" y="347"/>
      <point x="531" y="436"/>
      <point x="714" y="489" type="qcurve"/>
      <point x="638" y="513"/>
      <point x="335" y="602"/>
      <point x="243" y="636"/>
      <point x="216" y="645" type="qcurve" smooth="yes"/>
      <point x="205" y="649"/>
      <point x="205" y="719"/>
    </contour>
  </outline>
</glyph>
<glyph name="uni226A" format="1">
  <advance width="1000" height="1000"/>
  <unicode hex="226A"/>
  <outline>
    <contour>
      <point x="192" y="358" type="qcurve"/>
      <point x="388" y="227"/>
      <point x="571" y="93"/>
      <point x="592" y="80" type="qcurve" smooth="yes"/>
      <point x="597" y="76"/>
      <point x="597" y="48"/>
      <point x="584" y="13"/>
      <point x="573" y="13" type="qcurve" smooth="yes"/>
      <point x="570" y="13"/>
      <point x="565" y="16" type="qcurve" smooth="yes"/>
      <point x="546" y="32"/>
      <point x="512" y="61"/>
      <point x="435" y="119"/>
      <point x="169" y="312"/>
      <point x="134" y="317"/>
      <point x="121" y="353"/>
      <point x="121" y="377"/>
      <point x="124" y="383" type="qcurve" smooth="yes"/>
      <point x="129" y="391"/>
      <point x="159" y="401"/>
      <point x="232" y="454" type="qcurve" smooth="yes"/>
      <point x="334" y="525"/>
      <point x="519" y="664"/>
      <point x="566" y="705"/>
      <point x="571" y="705" type="qcurve" smooth="yes"/>
      <point x="583" y="705"/>
      <point x="601" y="670"/>
      <point x="601" y="646"/>
      <point x="595" y="641" type="qcurve" smooth="yes"/>
      <point x="559" y="620"/>
      <point x="498" y="574"/>
      <point x="241" y="390"/>
    </contour>
    <contour>
      <point x="456" y="358" type="qcurve"/>
      <point x="696" y="198"/>
      <point x="839" y="93"/>
      <point x="860" y="80" type="qcurve" smooth="yes"/>
      <point x="865" y="76"/>
      <point x="865" y="48"/>
      <point x="852" y="13"/>
      <point x="841" y="13" type="qcurve" smooth="yes"/>
      <point x="838" y="13"/>
      <point x="833" y="16" type="qcurve" smooth="yes"/>
      <point x="814" y="32"/>
      <point x="780" y="61"/>
      <point x="698" y="123"/>
      <point x="476" y="281"/>
      <point x="425" y="313"/>
      <point x="410" y="315"/>
      <point x="395" y="324"/>
      <point x="385" y="353"/>
      <point x="385" y="377"/>
      <point x="388" y="383" type="qcurve" smooth="yes"/>
      <point x="393" y="391"/>
      <point x="417" y="399"/>
      <point x="430" y="408" type="qcurve" smooth="yes"/>
      <point x="682" y="576"/>
      <point x="830" y="701" type="qcurve" smooth="yes"/>
      <point x="834" y="705"/>
      <point x="839" y="705" type="qcurve" smooth="yes"/>
      <point x="851" y="705"/>
      <point x="869" y="670"/>
      <point x="869" y="646"/>
      <point x="863" y="641" type="qcurve" smooth="yes"/>
      <point x="827" y="620"/>
      <point x="757" y="567"/>
      <point x="497" y="385"/>
    </contour>
  </outline>
</glyph>
<glyph name="uni226F" format="1">
  <advance width="1000" height="1000"/>
  <unicode hex="226F"/>
  <outline>
    <contour>
      <point x="501" y="-134" type="qcurve" smooth="yes"/>
      <point x="471" y="-134"/>
      <point x="471" y="-115" type="qcurve" smooth="yes"/>
      <point x="471" y="173" type="line"/>
      <point x="371" y="115"/>
      <point x="322" y="85" type="qcurve" smooth="yes"/>
      <point x="286" y="62"/>
      <point x="249" y="33" type="qcurve" smooth="yes"/>
      <point x="245" y="30"/>
      <point x="242" y="30" type="qcurve" smooth="yes"/>
      <point x="232" y="30"/>
      <point x="221" y="61"/>
      <point x="221" y="77" type="qcurve" smooth="yes"/>
      <point x="221" y="95"/>
      <point x="229" y="103" type="qcurve" smooth="yes"/>
      <point x="294" y="140" type="line"/>
      <point x="418" y="212" type="line" smooth="yes"/>
      <point x="445" y="228"/>
      <point x="471" y="242" type="qcurve"/>
      <point x="471" y="494" type="line"/>
      <point x="444" y="509"/>
      <point x="414" y="526" type="qcurve" smooth="yes"/>
      <point x="322" y="578"/>
      <point x="271" y="608" type="qcurve" smooth="yes"/>
      <point x="229" y="632" type="line"/>
      <point x="220" y="642"/>
      <point x="220" y="664" type="qcurve" smooth="yes"/>
      <point x="220" y="679"/>
      <point x="229" y="707"/>
      <point x="237" y="707" type="qcurve" smooth="yes"/>
      <point x="239" y="707"/>
      <point x="242" y="706"/>
      <point x="271" y="686" type="qcurve" smooth="yes"/>
      <point x="294" y="669"/>
      <point x="315" y="655" type="qcurve" smooth="yes"/>
      <point x="375" y="618"/>
      <point x="471" y="563" type="qcurve"/>
      <point x="471" y="875" type="line" smooth="yes"/>
      <point x="471" y="894"/>
      <point x="501" y="894" type="qcurve" smooth="yes"/>
      <point x="530" y="894"/>
      <point x="530" y="875" type="qcurve" smooth="yes"/>
      <point x="530" y="529" type="line"/>
      <point x="566" y="509"/>
      <point x="607" y="486" type="qcurve" smooth="yes"/>
      <point x="732" y="416"/>
      <point x="746" y="413" type="qcurve" smooth="yes"/>
      <point x="754" y="412"/>
      <point x="770" y="402"/>
      <point x="780" y="372"/>
      <point x="780" y="358" type="qcurve" smooth="yes"/>
      <point x="780" y="349"/>
      <point x="777" y="342" type="qcurve" smooth="yes"/>
      <point x="770" y="333"/>
      <point x="751" y="327" type="qcurve" smooth="yes"/>
      <point x="729" y="319"/>
      <point x="603" y="248" type="qcurve" smooth="yes"/>
      <point x="564" y="226"/>
      <point x="530" y="207" type="qcurve"/>
      <point x="530" y="-115" type="line" smooth="yes"/>
      <point x="530" y="-127"/>
      <point x="515" y="-132" type="qcurve" smooth="yes"/>
      <point x="508" y="-134"/>
    </contour>
    <contour>
      <point x="530" y="462" type="qcurve"/>
      <point x="530" y="275" type="line"/>
      <point x="636" y="334"/>
      <point x="703" y="369" type="qcurve"/>
      <point x="637" y="403"/>
    </contour>
  </outline>
</glyph>
<glyph name="uni2272" format="1">
  <advance width="1000" height="1000"/>
  <unicode hex="2272"/>
  <outline>
    <contour>
      <point x="798" y="134" type="qcurve" smooth="yes"/>
      <point x="810" y="134"/>
      <point x="810" y="122" type="qcurve" smooth="yes"/>
      <point x="810" y="95"/>
      <point x="710" y="25"/>
      <point x="665" y="25" type="qcurve" smooth="yes"/>
      <point x="576" y="25"/>
      <point x="402" y="110"/>
      <point x="260" y="110"/>
      <point x="214" y="72" type="qcurve" smooth="yes"/>
      <point x="206" y="65"/>
      <point x="198" y="65" type="qcurve" smooth="yes"/>
      <point x="186" y="65"/>
      <point x="186" y="78" type="qcurve" smooth="yes"/>
      <point x="186" y="104"/>
      <point x="288" y="174"/>
      <point x="334" y="174" type="qcurve" smooth="yes"/>
      <point x="420" y="174"/>
      <point x="594" y="89"/>
      <point x="736" y="89"/>
      <point x="782" y="127" type="qcurve" smooth="yes"/>
      <point x="790" y="134"/>
    </contour>
    <contour>
      <point x="767" y="245" type="qcurve" smooth="yes"/>
      <point x="765" y="245"/>
      <point x="731" y="264"/>
      <point x="635" y="303"/>
      <point x="522" y="343"/>
      <point x="408" y="380"/>
      <point x="313" y="409"/>
      <point x="253" y="427"/>
      <point x="242" y="430"/>
      <point x="226" y="434"/>
      <point x="210" y="443"/>
      <point x="200" y="473"/>
      <point x="200" y="498"/>
      <point x="215" y="515"/>
      <point x="276" y="533"/>
      <point x="414" y="575"/>
      <point x="641" y="651"/>
      <point x="728" y="688"/>
      <point x="762" y="708"/>
      <point x="764" y="708" type="qcurve" smooth="yes"/>
      <point x="775" y="708"/>
      <point x="788" y="675"/>
      <point x="788" y="639"/>
      <point x="779" y="636" type="qcurve" smooth="yes"/>
      <point x="757" y="630"/>
      <point x="721" y="616"/>
      <point x="638" y="588"/>
      <point x="326" y="488"/>
      <point x="279" y="475" type="qcurve"/>
      <point x="321" y="462"/>
      <point x="432" y="430"/>
      <point x="652" y="365"/>
      <point x="748" y="329"/>
      <point x="775" y="320" type="qcurve" smooth="yes"/>
      <point x="786" y="318"/>
      <point x="786" y="245"/>
    </contour>
  </outline>
</glyph>
